<?xml version="1.0" encoding="UTF-8"?>
<svg width="80px" height="80px" viewBox="0 0 80 80" version="1.1" xmlns="http://www.w3.org/2000/svg" xmlns:xlink="http://www.w3.org/1999/xlink">
    <!-- Generator: Sketch 50.2 (55047) - http://www.bohemiancoding.com/sketch -->
    <title>bar-map</title>
    <desc>Created with Sketch.</desc>
    <defs>
        <rect id="path-1" x="0" y="0" width="80" height="80"></rect>
    </defs>
    <g id="Page-1" stroke="none" stroke-width="1" fill="none" fill-rule="evenodd">
        <g id="bar-map">
            <g id="world" opacity="0.500334821">
                <g id="Group-Clipped">
                    <mask id="mask-2" fill="white">
                        <use xlink:href="#path-1"></use>
                    </mask>
                    <g id="path-1"></g>
                    <g id="Group" mask="url(#mask-2)">
                        <g transform="translate(-38.000000, -33.000000)">
                            <g>
                                <g fill="#5596E6" fill-rule="nonzero" stroke="#FFFFFF">
                                    <path d="M44.4281588,20.6653091 C44.1129951,20.394 44.7878315,20.0745818 44.9622679,19.9937455 C45.4872133,19.7499273 45.7703042,19.6101818 46.0884133,19.0944 C46.3440133,18.6797455 46.600497,18.4775105 46.5006788,17.9434015 C46.4146061,17.4829287 46.1964133,17.0188364 46.2435406,16.5384 C46.3083406,15.8796 47.1078679,16.0483778 47.2355042,15.5760742 C47.3730897,15.0669884 47.7881042,14.8047218 48.2137224,14.6022545 C48.5399151,14.4470815 49.5993951,14.1578182 49.6079042,13.7068364 C49.6121588,13.4810182 49.3909224,13.3412727 49.4144861,13.1013818 C49.4570315,12.6621818 49.4740497,12.2210182 49.517577,11.7818182 C49.9407406,12.0763636 50.5085588,12.2252727 50.9631406,12.5047636 C51.4403042,12.798 51.9819406,12.8978182 52.5369951,12.8369455 C53.0985951,12.7754182 53.5119406,12.4196727 54.089577,12.6284727 C54.6040497,12.8146909 55.1489588,12.834 55.6496861,13.0473818 C56.0954315,13.2375273 56.4551042,13.5808364 56.904777,13.7569091 C57.2981588,13.9110545 57.8293224,13.7497091 58.1801588,13.9922182 C58.5935042,14.2779273 58.6707406,14.7681818 58.7502679,15.2270182 C58.8520497,15.8141455 59.0824497,16.2821455 59.539977,16.6765091 C60.3663406,17.3886545 61.3871042,17.2217455 62.3810315,17.4020727 C63.3788861,17.5833818 64.7992497,18.0366545 65.5984497,18.684 C66.2372861,19.2017455 66.8283406,20.0758909 67.7417588,19.9937455 C68.7972133,19.8985091 69.9256497,18.9680727 70.1619406,17.9083636 C70.2709224,17.4190909 69.9400497,17.0384727 69.7901588,16.5976364 C69.6245588,16.1116364 69.5034679,15.5529818 69.6700497,15.0499636 C69.9757224,14.1270545 71.4952497,12.9822545 72.4587406,12.9498545 C72.9575042,12.9331636 73.248777,12.5721818 73.7102315,12.5368364 C74.1808497,12.5008364 74.6828861,12.4923273 75.142377,12.6049091 C75.6797588,12.7361455 76.1484133,12.996 76.657977,13.1956364 C77.2621224,13.4322545 77.1020861,13.5144 77.1318679,14.0432727 C77.1554315,14.4716727 77.8472861,14.5623273 78.1559042,14.5852364 C78.7548133,14.6304 79.1423042,14.9017091 79.6957224,15.0620727 C80.2452133,15.2214545 80.8218679,15.0372 81.3795406,15.1393091 C81.6956861,15.1969091 82.1721951,15.8272364 82.0596133,16.1584364 C81.9411406,16.5079636 81.5147042,16.5969818 81.4554679,16.9903636 C81.3733224,17.5336364 81.7202315,17.9365091 81.8157951,18.4418182 C81.9231406,19.0102909 81.5566606,19.5139342 81.3635697,20.008116 C81.1583697,20.5324069 81.6956206,21.1551775 81.7849661,21.6977956 C81.9364933,22.6226684 82.1013733,23.4969611 82.1593006,24.4453975 L82.7429588,49.0827273 C81.9270679,49.0827273 81.1108497,49.0827273 80.2949588,49.0827273 C80.3175406,49.5536727 80.2998679,50.0262545 80.340777,50.4965455 L60.8185333,39.4475924 L56.3912861,41.5688727 C56.0162315,41.6713091 55.5566424,41.0593091 55.3380242,40.8416727 C54.4242788,39.9308727 53.4324133,39.7446545 52.2156133,39.4681091 C51.7809951,39.3692727 51.2125224,39.3188727 50.8253588,39.0786545 C50.5187042,38.8881818 50.3736242,38.3510847 50.2466424,38.0401756 C49.8738788,37.1267575 49.4199515,36.8781971 48.5258424,36.5417607 C48.2290061,36.4301607 47.9450315,36.1780364 47.6200497,36.1865455 C47.3019406,36.1947273 46.9586315,36.5478545 46.6601588,36.2251636 C46.4176497,35.9633455 45.9987406,35.2904727 45.9925224,34.9281818 C45.9794315,34.1702182 45.9061224,33.8933455 45.489177,33.2479636 C45.1681224,32.7505091 44.1005588,31.8668727 44.5600497,31.2048 C45.0902315,30.4409455 45.9012133,30.7332 45.5536497,29.4804 C45.3798679,28.8536727 45.2548497,28.3722545 45.4695406,27.7363636 C45.6534679,27.1914545 45.7624497,26.7417818 45.561177,26.1785455 C45.3497588,25.5861818 45.5140497,24.9931636 45.5670679,24.3913091 C45.6299042,23.6778545 45.5232133,22.9581818 45.2862679,22.2843273 C45.0820497,21.7063636 44.7865224,21.1621091 44.4281588,20.6653091" id="ly"></path>
                                    <path d="M0.818181818,28.3607089 L0.985090909,24.8025999 C0.830912727,23.8458377 2.29778182,23.5301635 2.826,23.0490726 C3.08788364,22.8105595 3.51595636,22.3232079 3.91905818,22.3483228 C4.26973091,22.3701682 4.35086182,21.8418126 4.81189091,21.752418 C5.56242545,21.6068864 5.94729818,22.3346657 6.39860727,21.3400839 C6.53868,21.0321202 7.00625455,21.1610657 7.27494545,21.1257202 C7.75865455,21.0615748 8.24596364,20.9957635 8.70250909,20.8268908 C9.61952727,20.4878362 9.65742545,19.5030137 10.43928,19.0899955 C10.7616436,18.9194864 11.1835636,18.9005635 11.5236,18.7748908 C11.9421818,18.6197635 12.2170909,18.1504544 12.6487636,18.0637271 C12.8068364,18.0319817 13.6574509,17.9628682 13.30956,17.5145046 C13.0847236,17.2248682 12.7273091,17.119218 13.1887636,16.6973635 C12.5286545,16.5160544 13.1246182,15.8241999 13.6089818,15.8647817 C14.2497818,15.9184544 14.8408364,15.690018 15.0679636,15.0901271 C15.5032364,13.9410726 18.4693091,14.9588908 19.3153091,14.7415817 C18.3452727,14.3037693 20.0238218,13.7691366 19.4966182,13.3627817 C19.2476618,13.170882 18.9690545,13.0014726 18.7668,12.756018 C18.5324727,12.4722726 18.6545455,12.0654726 18.4244727,11.7179089 C18.1839273,11.3546362 18.3172582,11.0556857 18.38664,10.6940493 C18.4517673,10.3549948 18.1901455,10.3508908 18.2268,10.0219817 C18.2611636,9.71467258 18.2564509,9.34446822 18.2603782,9.03846822 C18.2659418,8.62774095 17.9921455,8.29790895 18.3992727,7.97914531 C17.9761091,7.80634531 18.1473055,7.57047004 18.0861055,7.25399731 C18.0046145,6.83247004 17.2735855,6.69567004 17.1135491,6.26203367 C17.8973673,6.26007004 18.2323636,6.06983622 18.8983636,5.72947258 C19.1883273,5.58121804 19.3709455,5.58089076 19.5460364,5.27521804 C19.7008364,5.00456349 19.8176727,4.77743622 20.1053455,4.62361804 C20.2676727,4.53656349 20.5821818,4.28390895 20.7536727,4.41939985 C20.9762182,4.59514531 21.2570182,4.28979985 21.4049455,4.15430895 C21.7891636,3.80314531 22.3167273,4.68710895 22.7094545,3.87939985 C23.2360364,2.79710895 25.0507636,2.32878167 26.1137455,2.20638167 C26.8704,2.11932713 27.6349091,1.91118167 28.3974545,1.96256349 C28.9662545,2.0008544 29.358,1.27561804 29.8515273,1.55478167 C30.0662182,1.67619985 30.0174545,1.60812713 30.0992727,1.47296349 C30.1172727,1.44350895 30.9701455,1.45594531 31.0971273,1.40554531 C31.8341455,1.11329076 32.5783636,1.22358167 33.3533455,1.20198167 C33.9990545,1.18398167 34.1525455,1.31783622 34.6441091,1.68863622 C35.2721455,2.16219985 35.4901091,1.46183622 36.0346909,1.39507258 C36.2097818,1.37379985 37.2963273,1.32667258 37.2367636,1.00496349 C37.1294182,0.425690764 37.9204364,0.782418037 38.1086182,0.908745309 C38.5016727,1.17219985 39.0930545,1.30539985 39.4959273,0.983363491 C39.7171636,0.806308946 39.5728364,0.575908946 39.9940364,0.680963491 C40.2931636,0.755581673 40.5278182,0.975508946 40.8531273,0.958163491 C40.5775636,1.41339985 41.2609091,1.25401804 41.4769091,1.19772713 C41.9079273,1.08547258 42.3736364,1.19052713 42.7873091,1.05209076 C42.8184,1.63921804 42.0741818,1.92689076 41.7498545,2.30096349 C42.6331636,2.49143622 41.7858545,3.73343622 41.9642182,4.30256349 C42.2741455,5.2912544 42.1448727,6.03841804 41.9364,7.01369076 C41.7649091,7.81616349 40.8717818,8.4412544 40.2751636,8.96783622 C39.9272727,9.27481804 40.0964727,10.0766362 40.2997091,10.4166726 C40.6282909,10.966818 40.4787273,11.5663817 41.1558545,11.823618 C42.0804,12.1744544 41.8090909,13.3457635 42.5542909,13.9034362 C42.8998909,14.1623089 43.3076727,14.3495089 43.6002545,14.6744908 C43.9956,15.114018 44.0535273,15.8343453 44.1454909,16.392018 C44.3353091,17.544018 44.8818545,18.8239817 44.8818545,19.9854726 C44.8818545,20.2989999 44.2227273,20.1790675 44.6478545,20.7459039 C45.0592364,21.2953948 45.3997964,21.9413689 45.5357455,22.6173999 C46.0037127,24.94443 45.3158836,24.9300431 45.6666545,26.1231453 C45.8340218,26.6924002 45.8428909,27.108534 45.6216545,27.6626068 C45.3719127,28.2880217 45.5996291,28.8726519 45.7354473,29.4967609 C45.94032,30.4402882 45.5206909,30.4552839 44.8501091,30.961902 C44.0859273,31.5398657 45.3564,32.6623817 45.6879273,33.1722726 C46.3077818,34.1252908 45.9350182,35.2566726 46.7594182,36.1465271 C47.0758909,36.4881999 47.4398182,36.0784544 47.7775636,36.1039817 C48.2049818,36.1363817 48.6687273,36.4587453 49.0699636,36.6043817 C49.9856727,36.9368908 50.2933091,37.7053271 50.6310545,38.575218 C50.7914182,38.9872544 50.9530909,39.0369999 50.5066909,39.2903089 C45.8616436,42.2530435 41.1758509,45.2173162 37.2174545,49.0708544 C36.9897709,49.402326 36.2533091,50.2307089 35.6812364,50.5468544 C35.2471418,50.7867551 34.6084364,50.8086726 34.1299636,50.9078362 C33.4796727,51.0423453 32.8277455,51.1699817 32.1781091,51.3077635 C31.8521455,51.376818 28.9957091,52.3583089 29.1184364,51.3473635 C29.1616364,50.9909635 29.4162545,50.8528544 29.3812364,50.4581635 C29.3678182,50.3066362 29.4132436,49.5107384 29.2554982,49.4318657 C28.7753891,49.1916475 28.17576,49.0817133 27.6459055,48.9799315 C27.3847418,48.9295315 27.0339055,48.265302 26.8344655,48.3142588 C25.6898945,48.5952093 25.5097964,47.4545788 25.3040727,47.2839453 C25.0610073,47.0823486 24.6416727,47.064018 24.4191273,46.894818 C24.1687636,46.7046726 24.3843055,46.2323886 24.23376,45.9771159 C24.0445964,45.6560613 23.7161455,45.3765999 23.4081818,45.1943089 C22.8806182,44.8820908 22.3864364,44.5112908 21.9030545,44.1359089 C20.7019636,43.2035089 19.5218182,42.2432908 18.3262909,41.3036908 C13.7156727,37.678818 9.11127273,34.0673635 4.28727273,30.7275453 C3.13625455,29.9289999 1.97934545,29.1419089 0.818181818,28.3607089" id="dz"></path>
                                    <path d="M42.5432121,92.1499096 C42.8518302,91.886455 43.0434157,91.4978612 43.0570302,91.1065641 C43.0697284,90.7410299 43.5482012,90.0339114 43.4132012,89.7823761 C43.2756484,89.526079 43.2196848,89.4236525 43.5993212,88.9972914 C43.9758812,88.5743798 44.3458957,88.1434794 44.7618593,87.7569703 C45.0004412,87.5347521 45.3016302,87.4399838 45.4256666,87.1320201 C45.5326848,86.8666019 45.9466521,86.1627627 46.2421793,86.0793081 C46.5671612,85.9873445 46.7561939,86.418055 47.1544848,86.3310005 C47.4699757,86.2619459 47.488303,85.8234005 47.560303,85.575655 C47.6195393,85.827655 48.2976157,86.5160438 48.5372121,86.580055 C48.7768739,86.6440859 48.8420666,86.9831176 48.7484993,87.2404848 C48.6808848,87.4264707 49.0194812,87.7054739 49.3860921,87.6192278 C49.4968739,87.4286601 50.1074993,86.8645728 49.9572484,86.5244187 C49.8529793,86.2884059 50.3460484,85.9732914 50.5168848,85.8364914 C50.8009575,85.6093641 50.5166557,85.2639801 50.6701466,84.9581012 C50.9710412,84.3583216 51.3962339,83.8097732 51.6014993,83.0582732 C51.6885212,82.7396994 51.5729939,82.4041892 51.6639757,82.1032914 C51.7344048,81.8703747 52.1045502,81.790147 52.0858302,81.4028558 C51.9748521,81.3704263 52.9077757,81.4954085 53.0964157,80.5801641 C53.1389612,80.373763 53.496703,79.3525641 53.1471757,79.2841641 C53.5490666,79.0792914 54.1423139,78.8187823 54.2097321,78.3596187 C54.2535866,78.0601641 54.2362412,77.8122648 54.2362412,77.512483 C54.2362412,77.2002648 54.5502921,77.2272976 54.6911502,77.0132383 C54.8625757,76.7527063 54.8429066,76.3840761 54.948943,76.0570685 C55.0595284,75.7159947 55.1594121,75.3884012 55.2034302,75.1818005 C55.2890448,74.780119 55.5164339,74.0268518 55.936783,73.8571543 C56.1561212,73.7686107 57.4694012,73.7783176 57.6379139,73.0341256 C57.6853357,72.8246481 57.4676012,72.6615387 57.4989212,72.417655 C57.5531175,71.9955321 57.580543,71.7545481 57.6524121,71.4342005 C57.7364884,71.0595747 57.0486593,70.7367267 56.8276848,70.8061641 C56.6468339,70.8733172 56.410903,70.4871321 56.3246012,70.0041954 C56.2554484,69.2368521 56.2967502,68.9489667 56.1875393,68.7279823 C56.4722666,68.7279823 56.914183,68.7029787 57.1353212,68.9498208 C57.4636739,69.316363 57.1249466,69.683275 57.8506739,69.8836248 C58.2249102,69.9869318 58.2681757,70.8588518 58.2914121,71.1603027 C58.314583,71.4613805 58.2561975,71.2090139 58.5672702,71.5048488 C59.1923939,72.0993692 58.5191939,73.8552823 58.6057575,74.6339459 C58.726063,75.7159554 59.2390302,76.9510368 60.2156121,77.493655 C59.8217066,77.8334623 59.3227793,77.6732688 59.0004484,77.512699 C58.6721612,77.5436296 58.5984921,77.5952667 58.2506012,77.6085081 C57.5217648,77.6362445 56.7793793,77.1638918 56.4100848,77.7649641 C55.9617866,78.4945958 56.0170957,78.6208739 56.6133866,79.3035648 C57.2106593,79.9875648 57.8672666,80.5812376 58.5244302,81.2056739 C58.7230848,81.394183 58.9845757,81.683227 59.1167939,81.9295521 C59.3741939,82.4089936 59.5884921,83.3882361 59.8710266,83.854855 C60.1583721,84.3294365 59.582143,84.6626656 59.4384375,84.8549907 C59.2094448,85.1614456 58.8944448,85.8706881 58.6878702,86.3672361 C58.6194048,86.5318347 58.4560957,86.7866263 58.3886775,86.9538627 C58.2643139,87.2628081 58.0747248,87.5088616 57.9314775,87.810211 C57.7328557,88.2280336 56.7102266,88.6389343 57.298303,88.8752612 C57.7283066,89.0480579 57.6915866,89.4872187 57.6330048,90.0583096 C57.6064957,90.3165278 57.5920957,90.5487572 57.4477684,90.7703208 C57.4641321,90.7451208 57.7610012,91.1536488 57.765583,91.1831034 C57.8385648,91.6648488 57.7232339,92.402479 58.0436339,92.7891648 C58.2417321,93.0282343 58.5068557,93.117871 58.5964957,93.4893747 C58.6632921,93.7662114 58.7818302,94.1380914 59.0374302,94.3180914 C58.2304412,94.3387096 60.047623,96.4811841 60.2022266,96.6047459 C60.5952157,96.9188394 61.1449357,97.1044423 61.2153321,97.3882368 C61.2682193,97.6012979 61.3096193,97.7183928 61.3191102,97.9255565 C61.3430012,98.4498474 61.463503,98.9944914 61.5800121,99.5017641 C60.9654266,99.7892503 61.6468084,100.812122 61.2527393,101.104091 C60.901903,100.759473 60.5140848,100.449546 60.0395393,100.297691 C59.8336848,100.231582 59.2185757,99.9821318 59.0514048,100.093994 C58.8360921,100.238049 58.4080193,100.212967 58.2741321,99.8914118 C58.2674557,99.8754245 57.5543284,99.7393543 57.4846193,99.7118634 C57.2627284,99.6248088 56.6342666,99.6909278 56.3446302,99.6739096 C55.8167393,99.6434732 55.2801757,99.6500088 54.7539212,99.5757179 C54.6645757,99.5632816 54.4042302,99.6464187 54.3017939,99.5963459 C54.1037939,99.4991459 54.3904848,99.2995096 54.022303,99.3361641 C53.5359757,99.3842732 53.1108484,99.4631459 52.6153575,99.3567823 C52.0337939,99.2320914 51.5576121,99.3299459 50.9734302,99.3119459 C50.5924848,99.3001641 49.9097939,99.0835096 49.5484848,99.2828187 C49.4453939,99.3397641 49.4843393,99.6438005 49.3733939,99.6438005 C49.0127393,99.6438005 48.6524121,99.6438005 48.2917575,99.6438005 C47.7890666,99.6438005 47.2896484,99.662455 46.7876121,99.6735823 C45.7102302,99.6978005 45.4791757,99.1057641 45.7059757,98.1062732 C45.8352484,97.5368187 46.0316121,96.919255 45.7239757,96.3681278 C45.5789939,96.1082732 45.0805575,95.6684187 45.6061575,95.4962732 C45.3099757,95.666455 44.7359393,95.3863096 45.0802302,95.0433278 C45.2615393,94.8626732 45.6650666,94.5491459 45.1348848,94.5301641 C45.2379757,94.4162732 45.292303,94.2827459 45.2985212,94.1295823 C45.1325939,94.5327823 44.9565212,94.212055 44.6865212,94.2238368 C44.7863393,94.3573641 44.856703,94.4529278 44.6865212,94.3652187 C44.6969939,94.4941641 44.6816121,94.6198368 44.640703,94.7422368 C44.4240484,94.7343823 44.3193212,94.5668187 44.3821575,94.3652187 C44.1952848,94.7059096 43.6601939,94.2788187 43.5911393,94.0281278 C43.4821575,93.6318005 43.4592484,92.9540187 43.1774666,92.6450732 C42.8537939,93.0436914 42.916303,92.5743823 42.7061939,92.5743823 C42.7441575,92.7295096 42.7680484,92.8862732 42.7781939,93.0453278 C42.1095757,93.1291096 42.473503,92.502055 42.5432121,92.1499096" id="cm"></path>
                                    <path d="M106.092789,108.688611 C106.589753,108.326516 105.345593,106.819216 107.069403,107.173092 C107.073102,107.079165 107.167716,106.884755 107.062891,106.706631 L108.086796,106.573836 C107.406985,105.544335 107.114829,106.352142 106.791516,106.63466 C106.515233,106.876105 105.838989,105.807517 105.87404,105.156313 C106.13612,104.683853 105.962469,104.469024 106.450694,104.02612 C106.813018,103.69741 107.100887,102.613306 107.689094,102.34852 C107.968193,102.222889 107.927022,102.179974 107.91164,101.933211 C107.888076,101.552265 108.331858,101.368992 108.429058,101.029938 C108.544585,100.627065 108.577738,100.232374 108.617665,99.8281924 C108.653338,99.4645924 108.287676,99.2072644 108.211422,98.7995742 C108.040323,97.8849026 107.477349,97.6861924 107.39324,97.2833197 C107.327131,96.9635742 107.149094,96.6922651 107.041749,96.3879015 C106.970076,96.2540469 106.929822,96.1116833 106.920658,95.960156 C106.920658,95.7562651 107.149094,95.6404106 107.087567,95.4214651 C107.032913,95.2283742 106.821494,95.1776469 106.658513,95.1167742 C106.288694,94.9789924 106.559349,94.6981924 106.167931,94.7381197 C106.327934,94.3712469 105.871422,94.0184469 105.915243,93.7621924 C105.959196,93.5051982 106.272331,93.3040106 106.447094,93.1207378 C107.056803,92.4809197 107.803967,92.6645197 108.603822,92.6645197 C109.062658,92.6645197 109.522476,92.626556 109.981313,92.6216469 C110.206149,92.619356 110.440149,92.6082287 110.663349,92.6435742 C110.85644,92.6740106 110.915676,93.0124106 111.147385,93.1020833 C111.861167,93.3792833 112.657749,93.0408833 113.386258,93.378956 C114.147822,93.7327378 114.962731,94.3840106 115.556731,94.9659015 C115.859458,95.2624106 116.100003,95.470556 116.536585,95.5183378 C116.820331,95.5494287 117.466694,95.373356 117.689567,95.5157197 C118.312694,95.9143378 119.268658,95.5602287 119.811276,96.0815742 C119.886222,95.7107742 120.39644,95.1711015 120.626185,94.8516833 C121.034622,94.2835378 121.908113,94.0560833 122.511603,93.7746287 C123.155676,93.4745197 123.268585,94.1811015 123.749676,94.4622287 C124.079894,94.6553197 124.437603,94.5293197 124.780913,94.4671378 C125.059094,94.4164106 125.391276,94.6000106 125.652767,94.4556833 C125.251858,95.1432833 124.882694,95.8947015 124.394403,96.5247015 C123.878622,97.1897197 123.416185,97.5598651 123.417822,98.4533197 C123.421422,100.563901 123.440076,102.674156 123.438113,104.785065 C123.436149,106.366774 123.121313,107.866665 124.183313,109.159065 C124.543313,109.597283 125.085603,110.163138 124.699094,110.737501 C124.47164,111.076229 123.793858,111.694774 123.368731,111.303683 C123.334694,111.388774 123.302622,111.474847 123.273822,111.562229 C123.205749,111.480411 123.143567,111.394011 123.087276,111.303683 C123.198549,111.56092 123.483276,112.035138 123.228003,112.294992 C123.183822,111.654192 122.919058,112.388265 122.854585,112.535865 C122.722694,112.83892 122.468731,112.897174 122.179422,112.938083 C121.537313,113.028411 121.27844,113.595574 121.482985,114.136556 C121.576585,114.384301 121.12364,115.101029 120.937094,115.252556 C120.618985,115.510774 120.351931,117.248265 119.997822,117.099683 C120.152294,117.772556 119.479422,118.250701 119.362913,118.866629 C119.088985,118.66732 119.120403,119.015865 118.89164,118.961865 C118.602985,118.893792 118.234771,118.390215 118.011931,118.220592 C117.027134,117.470984 115.79168,116.655447 115.185473,115.846026 C115.025273,115.63213 114.731022,115.597829 115.066476,115.227356 C115.540694,114.70372 114.710862,114.072712 114.283836,113.805641 L106.078029,108.673864" id="ke"></path>
                                    <path d="M51.5454545,122.148115 C51.7699636,121.977606 52.0479164,122.121996 52.1359527,121.816977 C52.2072982,121.569886 52.4109927,120.599133 52.2375382,120.400479 C51.7836109,119.88077 53.5447636,119.095315 53.8756364,118.799788 C53.9649818,119.17517 54.5148,119.229824 54.5367273,119.624842 C54.7128,119.441897 54.9454909,119.33357 55.1412,119.176152 C55.4082545,118.961461 55.2966545,118.572333 55.5283636,118.328842 C55.9210909,118.849533 56.5092,117.853315 56.9729455,118.085352 C57.4147636,118.306588 57.0069818,118.405097 56.9389091,118.682297 C56.8626545,118.993533 57.06,119.334552 57.06,119.647424 C57.2560364,119.39477 57.6890182,119.713533 57.9534545,119.529933 C58.3438909,119.258624 58.5864,118.74317 58.8835636,118.379242 C59.0377091,118.190733 59.6644364,117.888006 59.6974909,117.716842 C59.7855273,117.264552 60.1618909,117.156224 60.5356364,116.996842 C61.4052,116.625715 61.5609818,114.988042 61.5400364,114.205861 C61.524,113.610552 61.5783273,113.072515 61.5033818,112.478188 C61.4317091,111.908079 62.14932,111.761788 62.3900618,111.310806 C62.9572255,110.248305 62.91396,109.575976 64.0665818,108.793424 C64.5516,108.464126 64.8471273,108.077024 65.1691636,107.62277 C65.4898909,107.170479 65.2581818,106.510042 65.3884364,105.991315 C65.5029818,105.535752 65.7258545,103.57997 65.7454909,103.067133 C65.7677455,102.487533 66.1035273,101.979279 66.1987636,101.414406 C66.2910545,100.867533 66.1313455,100.289242 66.2544,99.7479334 C66.4857818,98.7288061 67.0943782,97.895069 67.4429236,96.9260145 C67.6455055,96.3631054 67.5481091,95.7696061 67.5324,95.1955698 C67.5252,94.9308061 67.6479273,94.6532788 67.6057091,94.3944061 C67.5684,94.1636788 67.4309455,93.9712425 67.3677818,93.7493516 C67.2676364,93.3965516 67.8832364,93.4060425 68.0242909,93.0843334 C68.2193455,92.6402243 68.4248727,92.2501152 68.7613091,91.8907698 C69.0833455,91.5464788 69.4862182,91.2519334 69.9794182,91.2555334 C70.3970182,91.2584788 70.5639273,91.6194607 70.8306545,91.678697 C71.4505091,91.8158243 72.0252,92.4857516 72.2565818,93.0552061 C72.4450909,93.5202607 73.1133818,93.1730243 73.4907273,93.2865879 C73.6952727,93.3481152 73.7964,93.6246607 74.0317091,93.6135334 C74.2401818,93.6033879 74.2830545,93.5660788 74.4984,93.6760425 C74.8227273,93.8416425 74.8875273,93.6753879 75.2059636,93.655097 C75.4186909,93.6413516 75.6526909,93.7539334 75.8477455,93.8259334 C76.1995636,93.9561879 76.68,94.2098243 77.0638909,94.0746607 C77.7501818,93.8331334 77.5394182,92.1931698 78.4541455,92.150297 C78.9741818,92.1254243 79.1129455,93.1785879 79.7920364,92.535497 C80.0790545,92.2635334 82.0626545,92.0010607 81.9428727,91.3491334 C82.3536,91.3314607 82.4913818,91.8953516 82.8857455,91.8557516 C83.3593091,91.8079698 84.1709455,91.7366243 84.3679636,91.2313152 C84.4416,91.0428061 84.2517818,90.8546243 84.5008364,90.7296061 C84.8061818,90.577097 85.0568727,90.6680788 85.2951273,90.9024061 C85.6767273,91.2777879 86.0305091,90.8359698 86.4523636,91.0359334 C86.6611636,91.1347698 86.8339636,91.2918607 87.0385091,91.3975698 C87.2767636,91.5206243 87.4466182,91.415897 87.6989455,91.4538607 C88.2978545,91.5438607 88.5302182,90.8791698 89.1618545,91.2372061 C89.4020727,91.3733516 90.2359636,91.8986243 90.2359636,92.2092061 C90.2359636,92.3613879 90.4333091,92.7367698 90.5809091,92.7969879 C91.2014182,93.0499698 91.7928,93.9643698 92.4555273,93.3399334 C92.8309091,92.9858243 93.1081091,92.9151334 93.6062182,93.158297 C94.1180727,93.4086607 94.3215709,93.3073828 94.6237091,92.7122243 C95.0218691,91.9279152 96.0384436,93.8929065 96.0905455,94.0213152 C96.3235964,94.5955087 97.8744109,94.6711316 97.4002909,95.5670243 C97.7017091,95.4963334 98.0662909,95.4776788 98.1415636,95.8615698 C98.1795273,95.9640061 98.2315636,96.0589152 98.2983273,96.1453152 C98.3405455,96.3423334 98.0717564,96.7107967 98.1011127,96.916085 C98.1953345,97.5746887 98.0835382,98.2301636 97.9898727,98.8579774 C97.94052,99.1887127 98.18604,99.1452705 98.5571018,99.0797243 C98.7275455,99.0496152 99.3779345,99.5037388 99.2592655,99.8640956 C98.9760109,100.724329 97.9082182,101.577715 97.2942545,102.215242 C97.0911818,102.426006 96.6823855,102.986889 96.4365055,103.193889 C96.1906582,103.400889 96.1667345,103.224509 96.0255164,103.494509 C95.8487891,103.832909 96.0650182,104.24597 95.8506545,104.592224 C95.6130545,104.976442 95.3767636,105.555388 95.3260364,106.007679 C95.2805455,106.412842 95.2861091,106.822261 95.2579636,107.228733 C95.2249091,107.704261 95.1609927,108.11957 95.1122291,108.571206 C95.0768836,108.901424 95.1614182,109.364842 95.0095636,109.667242 C94.8370909,110.011206 94.5580582,110.140377 94.3063855,110.418886 C93.9169309,110.849905 93.9494945,110.98877 93.9354218,111.494406 C93.9262582,111.82757 93.5692036,112.202562 93.3888764,112.440489 C92.9909127,112.965108 93.5450836,113.513103 93.8524255,114.013015 C94.0839055,114.3895 94.2528436,114.654149 94.0807636,115.17285 C93.4551818,115.720754 94.2137018,117.441442 93.62196,118.006665 C94.0530109,118.254277 93.9742691,117.143506 94.1237673,117.331557 C94.2718909,118.206164 93.7245273,118.840442 93.7202727,119.697657 C93.7147418,120.81119 94.6528036,121.324 94.2581127,122.093788 C94.0302,122.5383 93.79044,122.636138 93.9830727,122.922636 C94.2778145,123.36104 94.4029309,124.083901 94.9850836,125.22408 C95.3741127,125.986016 96.4857927,125.843116 96.5535382,127.678393 C96.5801455,128.398834 97.1423018,128.003604 97.3584327,129.108696 C95.81796,129.459859 94.6819636,129.49997 93.1372364,129.830515 C93.7757455,130.885642 92.1187636,131.324188 91.8183273,132.114552 C92.7072,132.388806 92.412,133.76237 92.3521091,134.433606 C92.3082545,134.922224 92.4934909,135.383679 92.4650182,135.867388 C92.4499636,136.121024 92.3947855,136.362061 92.2936582,136.581006 C92.1473673,136.897806 92.0448,137.136552 91.9636364,137.471024 C91.8036,138.127533 91.5807273,138.503161 91.9976727,139.13807 C92.2876364,139.579888 92.8218109,140.135636 93.2050473,140.497927 C93.3768655,140.660582 94.2862255,141.217973 94.3573091,140.87957 C94.4835709,140.278579 94.6414145,140.390925 95.2321091,140.221097 C95.2321091,141.169206 95.2003636,142.120915 95.1748364,143.068697 C95.1705818,143.214988 95.2798909,143.839752 95.0344364,143.864297 C94.7470909,143.893097 94.6829455,143.560588 94.8816,143.401861 C94.4568,142.880515 93.5041091,144.506835 93.0554182,143.530253 C92.9058545,143.204944 92.7656836,142.792479 92.5464109,142.497606 C92.42172,142.330042 92.0877382,142.11437 92.04912,141.91637 C91.97352,141.529206 91.8968727,141.080188 91.4092364,141.066442 C91.0008,141.054988 90.8263636,140.627897 90.4339636,140.58077 C90.1060364,140.54117 89.9050909,140.78867 89.6782909,140.428342 C89.5028727,140.148852 89.4976036,139.741642 89.2413491,139.512224 C88.87644,139.184952 88.6169782,138.047371 88.2988691,139.067808 C87.9706145,140.120317 87.39612,139.566921 86.5749927,139.596049 C86.0215745,139.615685 85.8907309,139.439959 85.4237127,139.228214 C85.3922945,139.214141 84.9013855,139.096977 84.88764,139.099268 C84.1427673,139.230177 83.9202545,138.097097 84.1830545,137.580333 C83.7255273,137.606188 83.2655782,137.703136 82.8382909,137.865061 C82.3132473,138.064029 82.2022036,138.32338 81.6142909,138.077788 C81.8407964,137.672634 81.8540836,137.13808 81.6581455,137.147352 C81.4030691,137.159421 81.2963127,136.942292 81.1193236,136.774444 C80.7082691,136.384672 80.7648873,136.844716 80.6674909,136.878415 C80.3033673,137.004418 80.1435273,136.985679 79.8149455,136.900915 C79.4202545,136.798479 79.1750291,137.074618 78.8252727,137.198161 C78.3759927,137.356855 78.0901855,137.055182 77.7991745,137.105461 C77.6946764,137.123513 77.2792364,137.07797 77.2661455,137.084842 C76.9850182,137.23637 76.8410182,137.66117 76.4538545,137.651679 C76.5412364,137.360733 76.3668,137.132297 76.3160727,136.859024 C76.2460364,136.483642 76.5051382,136.416509 76.5876109,136.127854 C76.7784109,135.458582 76.5166909,134.296806 76.1102182,133.758442 C75.6150545,133.101606 75.4029818,132.690552 75.4651636,131.840297 C75.5293091,130.96157 75.8358982,130.039642 75.6074618,129.16517 C75.5197527,128.831024 75.2821527,128.541061 75.2870618,128.186624 C75.2929527,127.786042 75.5136,127.410988 75.5440364,127.013352 C75.5944364,126.358152 75.1702909,126.430888 74.6394545,126.425979 C74.1341455,126.421724 73.6318145,126.412724 73.1277818,126.434079 C72.0926509,126.477933 72.2505273,126.251788 72.5426182,125.375679 C72.3105818,125.375679 72.0828655,125.316812 71.8570473,125.405176 C71.7042109,125.46474 71.8167273,125.531133 71.7309818,125.604442 C71.4570545,125.839097 70.1986909,125.634224 69.8328,125.634224 C69.9548727,125.943824 69.7281709,126.306115 69.7808618,126.636988 C69.8237345,126.90437 69.8337818,127.328842 69.4073455,127.237861 C69.5461091,127.645642 69.2993455,128.050152 69.3844364,128.461861 C69.2113091,128.460329 68.085,128.499415 67.9022182,128.393461 C67.3633636,128.081112 66.4139782,128.664442 66.2301818,128.680806 C65.8016509,128.611248 65.39868,128.631493 64.9302545,128.633882 C64.3346182,128.509518 64.0769564,127.271242 63.7781564,126.834661 C63.6727745,126.680842 63.5910545,126.570552 63.4827273,126.417715 C63.2824364,126.134952 63.3739745,125.932042 63.3320836,125.630624 C63.2577927,125.094224 62.69724,124.742043 62.7776836,124.172359 C62.8499782,123.660357 62.7760473,123.232903 62.5357964,122.93357 C62.2005709,122.515885 62.2066255,122.362014 61.6853455,122.387024 C60.2499273,122.455896 58.8269455,122.51216 57.3938182,122.43047 C56.2362545,122.364485 54.8810182,122.555897 53.7444,122.336952 C52.8352364,122.161533 52.0818545,123.515461 51.5454545,122.148115" id="cd"></path>
                                    <path d="M94.8308727,109.174255 C94.9912364,108.731127 94.9398545,108.134509 95.0056364,107.664545 C95.0884364,107.073164 95.1436145,106.486665 95.2206545,105.891709 C95.3144836,105.167095 95.73372,104.752793 95.8045091,104.375127 C95.8476436,104.145035 95.7583636,103.911055 95.8028727,103.678691 C95.8729091,103.313127 96.2181818,103.407055 96.3850909,103.142618 C96.8933455,102.338182 97.7068145,101.765144 98.3947418,101.05398 C98.6614691,100.777762 99.0202909,100.297636 99.1325455,99.9252 C99.2248364,99.6188727 98.6553818,99.2978182 98.4348,99.18 C98.2580727,99.0854182 97.9916727,99.3730909 97.8604364,99.0828 C97.7566909,98.8527273 97.8408,98.5375636 97.8885818,98.3045455 C98.0342182,97.5904364 97.7668364,97.0134545 98.1281455,96.3579273 C98.2338545,96.1668 97.9740327,96.1163116 98.03916,95.9147116 C98.1078873,95.7013298 98.3025818,95.5220727 98.4681818,95.3852727 C98.6311636,95.2510909 98.8239273,95.1286909 99.0468,95.1689455 C99.2290909,95.202 99.5717455,95.5809818 99.7517455,95.4994909 C99.9821455,95.3954182 100.319891,94.9709455 100.565345,95.2946182 C100.828473,95.6408727 100.899491,95.7649091 101.359309,95.9305091 C101.101353,95.5020436 101.813236,95.3384727 102.147382,95.2916727 C102.561382,95.2336898 103.033735,94.9010433 103.438898,94.9481705 C103.993625,95.0126433 104.164691,95.5024364 104.770145,95.0825455 C105.204436,94.7817818 105.506182,94.3298182 105.836727,93.9272727 C106.029491,94.1874545 106.234691,94.5579273 106.118182,94.8933818 C106.508618,94.8537818 106.249385,95.1384011 106.617829,95.2492156 C106.998022,95.3635549 107.143298,95.4369655 106.984473,95.9242909 C106.777735,96.5585716 107.411531,97.2403004 107.741455,97.9923273 C107.806156,98.1398324 108.1872,98.6360727 108.18,98.7643636 C108.164291,99.0356727 108.484724,99.4382345 108.550833,99.7023436 C108.667015,100.171325 108.551258,100.810401 108.348022,101.278728 C108.174895,101.678328 107.842255,101.736982 107.927018,102.202036 C107.970873,102.443236 107.580436,102.594436 107.402073,102.684109 C107.052545,102.860509 107.037818,103.331127 106.828691,103.679345 C106.672255,103.939527 106.412825,104.079839 106.304498,104.348857 C106.157553,104.713112 106.022815,104.98015 105.853942,105.333604 C105.69132,105.322723 105.091953,105.521992 105.189185,104.998952 C104.808731,105.14288 104.928218,105.251668 104.771618,105.275831 C104.307513,105.347438 104.300935,105.068373 104.648956,105.090235 C104.559611,104.903401 104.247425,104.670056 104.35284,104.536384 C104.093607,104.631284 104.264869,104.56327 103.909385,104.69611 L104.022131,104.884184 C103.712073,104.967026 103.949935,105.270277 103.559171,105.249649 C103.609309,105.858835 102.692749,105.545049 102.588055,105.566112 C102.569498,105.576869 102.637113,105.01936 102.568909,105.112198 C102.125585,106.144943 101.963913,105.596555 101.880655,105.650882 C101.896855,105.870119 101.73168,105.884152 101.349916,105.921838 C101.170276,106.176728 100.746164,106.170457 100.78128,106.260267 C101.115425,107.114891 100.412771,107.25623 100.302676,107.856478 C100.207473,108.375676 100.397455,108.403468 100.456527,108.746093 C98.1037636,108.746093 100.967302,108.848232 98.6210182,108.672873 C97.81092,108.612327 96.8588836,108.778163 96.3847636,109.365231 C96.2200473,109.569175 95.9891564,110.140999 95.7012873,109.951959 C95.6250327,109.901877 95.5805891,109.626827 95.4468,109.637345 C95.2177091,109.655355 94.8536509,109.908903 94.7454545,109.985789 C94.7994218,109.772329 95.0996291,109.402262 94.8308727,109.174255" id="ug"></path>
                                    <path d="M21.9048672,64.9081889 C21.5582854,64.4984435 21.9631218,63.7516071 21.9277763,63.282298 C22.345049,63.4285889 22.8595218,63.3870253 23.2974127,63.3919344 C23.8135218,63.3978253 23.9444308,63.1333889 24.2504308,62.7789525 C24.6186127,62.3521889 25.0470127,62.4585525 25.5729399,62.4176435 C26.2431945,62.3652798 26.9114854,62.3040798 27.5843581,62.2906616 C27.9018127,62.2844435 28.2127218,62.2844435 28.5282127,62.3214253 C29.1497036,62.3940798 28.5642127,62.1309525 28.8561399,62.0566616 C29.3221763,61.9372071 29.9325399,62.565898 30.1357763,62.0334253 C30.3141399,61.5660798 30.8619945,61.5012798 31.046249,61.0784435 C31.2347581,60.6448071 31.2285399,60.1800798 31.4681036,59.7572435 C31.9681763,58.8752435 31.8565763,57.8986616 31.906649,56.8906616 C31.978649,55.4539344 31.9557399,54.0149162 31.9478854,52.5768798 C31.9429763,51.683098 32.0211945,51.4504071 32.9090854,51.243898 C33.6951945,51.0609525 34.5081399,51.0177525 35.2919581,50.8249889 C36.2168308,50.5975344 36.8258854,49.6883707 37.4814127,49.0511707 C38.4337763,48.1253162 39.3455581,47.1169889 40.3951218,46.3001162 C42.5341763,44.6352798 44.9069036,43.1275344 47.1915945,41.6701889 C48.2679945,40.9835707 49.3015218,40.2318253 50.3775945,39.5448798 C51.3849399,38.9017889 52.736249,39.561898 53.8087218,39.8544798 C54.7460308,40.1107344 55.501049,40.7207707 56.1408672,41.433898 C56.4170854,41.7412071 56.5021763,41.7556071 56.8399218,41.5235707 C57.3187218,41.1949889 57.8331945,40.9312071 58.3332672,40.6373162 C58.5705399,41.8868435 58.7655945,43.1098616 58.8631218,44.375098 C58.9020672,44.8781162 59.1972672,45.224698 59.4571218,45.6347707 C59.6053763,45.8687707 59.7405399,46.113898 59.8410127,46.3727707 C59.9355945,46.6152798 59.6691945,46.8116435 59.8783218,47.0515344 C60.1476672,47.3601525 60.5999581,47.6229525 60.713849,48.0402253 C60.8532672,48.5507707 60.2723581,49.0780071 60.2249036,49.5888798 C60.0835218,51.1126616 59.8416672,52.6312071 59.8416672,54.1651344 C59.8416672,54.8262253 59.774249,55.4843707 59.7549399,56.1448071 C59.7395581,56.6759707 59.8122127,57.3252798 59.6348308,57.8345162 C59.4816672,58.2733889 59.0437763,58.6474616 58.7606854,59.0058253 C58.3015218,59.5870616 57.801449,60.1342616 57.3357399,60.7102616 C56.5705763,61.6573889 55.9209399,62.742298 55.4954854,63.8795707 C55.393049,64.1538253 55.2703218,64.4208798 55.0827945,64.6493162 C54.9931218,64.758298 54.806249,64.7278616 54.7385036,64.8607344 C54.5261036,65.2763707 55.0389399,66.4542253 55.1057036,66.9117525 C54.8802127,66.9117525 54.590249,66.8548071 54.3876672,66.9870253 C54.172649,67.1274253 54.208649,67.278298 53.963849,67.386298 C53.4186127,67.6265162 53.0239218,67.8484071 52.610249,68.2840071 C51.9733763,68.9549162 51.5943945,68.6629889 50.821049,68.3488071 C49.9158127,67.9812798 49.1025399,67.9321889 48.1361036,67.9066616 C47.3097399,67.8850616 46.5969399,68.0359344 45.968249,68.6040798 C45.7542127,68.797498 45.5971218,69.0193889 45.4341399,69.2537162 C45.1526854,69.6592071 44.9828308,69.4016435 44.5760308,69.4389525 C43.6236672,69.5263344 43.2149036,69.0449162 42.4196308,68.7271344 C41.8380672,68.4944435 41.173049,67.6749525 40.4720308,68.0457525 C40.2069399,68.1858253 40.006649,68.4181889 39.7481036,68.5684071 C39.5491218,68.6839344 39.2352672,68.509498 39.1459218,68.7022616 C38.7780672,69.4945889 38.1385763,68.5127707 37.9890127,68.1828798 C37.6362127,67.4049525 37.094249,67.1071344 36.3048672,66.9647707 C35.8555218,66.8839344 35.5161399,66.5039707 35.0573036,66.4620798 C34.6508308,66.4247707 34.4894854,66.8466253 34.0568308,66.8377889 C33.2759581,66.8224071 32.5625036,66.7569525 31.9920672,67.4059344 C31.8045399,67.6189889 31.607849,67.7230616 31.5819945,68.0156435 C31.5391218,68.5006616 31.5243945,68.9084435 31.2341036,69.3168798 C30.8426854,69.8683344 30.3645399,70.2325889 30.3913763,70.9653525 C30.3972672,71.119498 30.3128308,72.6841889 30.2172672,72.6305162 C29.7525399,72.3683707 28.7517399,70.601098 28.2647581,70.6603344 C28.1115945,70.6789889 28.0481036,70.8655344 27.9126127,70.9172435 C27.7326127,70.9859707 27.3307218,70.9355707 27.2099581,71.1198253 C27.1477763,71.2144071 27.4187581,71.9975707 27.233849,71.9916798 C27.068249,71.9864435 26.6879581,71.2896798 26.6097399,71.1613889 C26.3547945,70.7428071 26.5521399,70.6567344 26.9013399,70.5169889 C26.7897399,70.2839707 26.7678127,69.9599707 26.5485399,69.7917525 C26.1522127,69.4883707 25.9077399,70.1200071 25.4966854,70.0473525 C24.7315218,69.9118616 23.4829763,68.7032435 23.8380672,67.9014253 C24.0521036,68.0568798 24.2622127,68.0627707 24.4958854,67.9488798 C24.3816672,67.8526616 22.8968308,66.810298 22.8477399,66.911098 C22.9560672,66.6895344 22.4065763,66.273898 22.3345763,66.0261525 C22.2115218,65.6000435 22.3103581,65.2037162 21.9048672,64.9081889" id="ne"></path>
                                    <path d="M103.254545,83.3079273 C103.301345,82.9263273 103.664945,82.7244 103.666255,82.3365818 C103.668873,81.6728727 104.135891,81.6103636 104.694545,81.7052727 C105.190691,81.7897091 105.620727,81.9474545 105.988909,81.3989455 C106.243527,81.0202909 106.076291,80.3621455 106.025891,79.9461818 C105.942764,79.2520364 105.840327,78.5035636 106.100509,77.8346182 C106.202618,77.5728 106.338109,77.3253818 106.433673,77.0606182 C106.5744,76.6718182 106.4196,76.4113091 106.413055,76.0264364 C106.406509,75.6415636 106.614327,75.2544 106.863382,74.9654182 C107.150073,74.6329091 107.577491,75.0298909 107.568327,75.3898909 C107.733927,75.2079273 108.392727,74.1992727 108.064145,73.8821455 C107.878255,73.7021455 108.178364,73.2763636 108.234,73.0950545 C108.342982,72.738 108.102764,72.2866909 108.420218,71.9957455 C108.929127,71.5293818 109.132364,70.9154182 109.447527,70.2870545 C109.5804,70.0213091 109.662218,69.7441091 109.986873,69.7287273 C110.121709,69.7221818 110.758909,69.7915636 110.817164,69.6308727 C110.994545,69.1416 110.953309,68.5328727 111.029564,68.0203636 C111.073418,67.7287636 111.192218,67.5016364 111.313636,67.2329455 C111.530618,66.7515273 111.476945,66.3015273 111.573818,65.8001455 C111.758073,64.8533455 112.156036,65.2002545 112.873091,65.1927273 C113.149964,65.1897818 113.207236,64.6258909 113.596364,64.8510545 C113.899745,65.0264727 114.067636,65.4309818 114.261055,65.7058909 C114.552982,64.9806545 114.841309,64.2495273 115.036691,63.4909091 C115.148618,63.6637091 115.274945,63.8826545 115.462145,63.9857455 C115.666364,64.098 115.897091,64.0076727 116.020473,64.2544364 C116.263309,64.7394545 116.560473,64.7967273 117.067418,64.7047636 C117.254618,64.6707273 117.451636,64.62 117.599564,64.4920364 C117.687927,64.4154545 117.764509,64.1254909 117.857127,64.0993091 C118.027964,64.0508727 118.305491,64.6360364 118.338873,64.7633455 C118.821927,64.1572364 119.636509,64.8612 120.132,64.7293091 C120.812073,64.5483273 121.510473,65.2735636 122.0904,65.5190182 C122.866691,65.8476 123.092182,66.852 123.724473,67.3573091 C124.104436,67.6610182 124.604182,67.9041818 124.839818,68.3515636 C125.054836,68.7606545 125.156291,69.1036364 125.538873,69.3965455 C126.181636,69.8890909 126.459491,70.2674182 126.034364,71.0142545 C125.532,71.8969091 124.844727,72.3992727 125.004436,73.4773091 C125.083636,74.0127273 124.873527,74.6649818 125.64,74.6126182 C126.088364,74.5818545 126.533127,74.3671636 126.967091,74.2568727 C127.318909,74.1675273 127.453647,74.4769833 127.782229,74.3680015 C127.746884,74.9279651 127.101273,75.3993458 127.411822,76.0501833 C127.784945,76.8320673 128.126029,77.0316218 128.611407,77.7280909 C128.772884,77.9597575 129.06,78.7313455 129.243273,78.9440727 C129.426873,79.1564727 129.585076,79.0901804 129.798131,79.2636349 C130.125731,79.5310167 130.632087,80.1000425 131.048051,80.2496062 C132.718778,80.8514607 134.221745,81.4788 135.887891,82.0934182 C136.677273,82.3846909 137.316502,82.7311713 138.134029,82.9239349 C138.891993,83.1026258 139.8636,82.9780364 140.629418,82.9780364 L133.631345,91.2848727 C133.203273,91.7852727 132.864382,91.8328516 132.25752,91.7510105 C131.26032,91.6165309 129.8646,91.5596345 128.564542,92.7550636 C128.220578,93.0713629 128.102073,93.4641818 127.601018,93.5636727 C127.139564,93.6556364 126.651698,93.6394364 126.22428,93.8734364 C125.762498,94.1264182 125.793589,94.5593182 125.186825,94.4202273 C124.678244,94.3033909 123.964593,94.7228302 123.515575,94.2257029 C123.325102,94.0142847 123.171742,93.6866258 122.853633,93.6493167 C122.546978,93.6133167 122.135891,93.8366182 121.870145,93.9583636 C121.452873,94.1501455 120.757189,94.5191716 120.49092,94.9122 C120.202658,95.3377495 119.996771,95.6592655 119.798509,95.9848364 C119.482691,95.6811273 118.768582,95.6346545 118.356873,95.6722909 C118.039745,95.7010909 117.81612,95.4474742 117.532047,95.3869287 C117.23652,95.3244196 116.906302,95.4617498 116.609433,95.434056 C115.404971,95.3217164 116.420171,95.1669393 113.248505,93.2584713 C112.707916,92.9331753 111.921284,93.3039425 111.257116,93.0692062 C110.949447,92.9604764 110.484,92.3563636 110.346545,92.0781818 C110.154764,91.6903636 110.482691,91.1772 110.357673,90.7514182 C110.245091,90.3678545 109.457345,90.1351636 109.194545,90.4709455 C109.034509,90.3158182 108.810982,89.856 108.679091,89.6511273 C108.374073,89.1782182 108.265745,88.5429818 108.060218,88.0190182 C107.905745,87.6256364 107.828836,87.1818545 107.616436,86.8130182 C107.518582,86.6428364 107.402073,86.5822909 107.236473,86.4991636 C107.052873,86.4075273 107.047538,86.225256 106.912047,86.1041651 C106.827611,86.0501651 106.794655,86.0026909 106.695164,85.9905818 C106.435636,85.9182545 106.409782,85.6394182 106.272,85.4518909 C105.964036,85.0336364 105.755564,84.5230909 105.344836,84.1876364 C105.044073,83.9421818 104.684727,83.7742909 104.2992,83.7274909 C103.940836,83.6846182 103.445345,83.6816727 103.254545,83.3079273" id="et"></path>
                                    <path d="M54.4909091,65.0598349 C54.5782909,64.8392531 54.7969091,64.8889985 54.9098182,64.7103076 C55.0096364,64.5522349 55.0387636,64.3300167 55.1978182,64.2118713 C55.3974545,64.0632895 55.4321455,63.4997258 55.5175636,63.2758713 C55.9783636,62.0656167 57.0128727,60.9594349 57.8369455,59.9854713 C58.5916364,59.0933258 59.4497455,58.3386349 59.5073455,57.1329622 C59.5793455,55.6222713 59.6091273,54.1083076 59.7158182,52.5992531 C59.7979636,51.4335076 59.7390545,49.8995804 60.318,48.8663804 C60.6511636,48.2713985 60.4318909,47.993544 60.0286909,47.5288167 C59.9141455,47.3969258 59.7698182,47.2931804 59.6536364,47.1625985 C59.4520364,46.9367804 59.7158182,46.7341985 59.6251636,46.5015076 C59.4157091,45.9634713 58.9767709,45.5468531 58.7280436,45.0349985 C58.5176073,44.6020167 58.6528364,44.0757622 58.6057091,43.6113622 C58.5278182,42.8435804 58.2987273,42.1026349 58.1779636,41.3413985 C58.1638909,41.2530349 58.01724,40.9397335 58.1393127,40.8788607 L60.8333236,39.6 L80.3290255,50.6363956 L80.5290545,61.4313622 C79.8846545,61.2313985 79.8262691,61.311564 79.1514327,61.4178425 C78.7048691,61.4881702 78.1268727,61.4176331 77.9837891,61.8357567 C77.8794218,62.1406375 78.17364,62.7206433 77.9505709,63.0156698 C77.7406582,63.2932462 77.42196,64.244304 76.9797818,64.3980895 C76.4774836,64.5727876 76.6817345,65.4460625 77.0406545,65.7909622 C76.2254182,66.4441985 75.6942873,66.8538 76.3273309,67.7645411 C76.7554364,68.3804847 75.7574509,68.6409153 75.4828691,69.158988 C75.29436,69.5147335 75.2205927,69.6378895 75.5069564,69.9242531 C75.7507745,70.1680713 76.1688655,69.9066491 76.4313709,69.9089924 C76.7611636,69.9119378 77.0369564,70.0646138 76.82508,70.3223378 C76.51692,70.6971273 77.1424691,71.1429055 76.9002545,71.800344 C76.9850182,71.7574713 77.0707636,71.7181985 77.1588,71.6825258 C77.3479636,71.9865622 77.1332727,72.3305258 77.1358909,72.6486349 C77.1385091,73.0122349 77.1822982,73.0170818 77.4119127,73.2692651 C77.6201891,73.4979862 78.1207527,73.3734196 78.1546909,73.9953622 C78.1698109,74.2723135 77.9015127,74.7750764 77.9819564,75.0906033 C77.8403455,74.8509284 77.16132,74.621196 76.8622909,74.7765622 C76.6847455,74.868804 76.4381455,74.946744 76.3213091,75.1201985 C76.1773091,75.3335804 76.1471018,75.1980698 75.9854291,75.377088 C75.7265564,75.6641062 75.1045091,75.5931076 75.0154909,76.0421258 C74.9791636,76.2270349 75.1257164,76.3832356 75.0662182,76.5742713 C74.8672036,77.2132811 74.2908436,77.4770858 73.8269673,77.898744 C73.4572473,78.2348335 73.2688364,78.7089305 72.9369818,79.0772531 C72.3489382,79.7298971 71.9407964,79.8768458 71.1103418,80.1857258 C70.6380873,80.3613633 69.4610182,80.4377258 68.9638909,80.3902713 C68.7943636,80.3742349 67.7523273,80.6190349 68.1241091,80.8991804 C68.2857818,81.0212531 68.7161455,81.1030713 68.6192727,81.3923804 C68.508,81.7252167 68.1198545,82.1948531 67.8619636,82.4334349 C67.6593818,82.6203076 67.4816727,83.0876531 67.2257455,83.1508167 C66.7417091,83.2709258 66.1545818,83.1783076 65.6545091,83.2228167 C64.9953818,83.2813985 64.5048,83.4447076 63.9402545,83.7939076 C63.63,83.9856895 63.0481091,84.1539076 62.9028,84.5243804 C62.6796,84.2036531 62.37,83.9775076 62.2678909,83.5818349 C62.0613818,83.6561258 61.9638545,83.9274349 61.8653455,84.1002349 C61.7953091,84.2226349 61.3924364,84.2556895 61.2559636,84.3155804 C60.5791636,84.6130713 60.3471273,84.5603804 59.6268,84.5711804 C60.0054545,84.0946713 59.5809818,83.9202349 59.4445091,83.4735076 C59.2586182,82.8664167 59.0982545,82.1856895 58.6976727,81.6774349 C58.3563273,81.2441258 57.8857091,80.9417258 57.4618909,80.5980895 C57.0410182,80.2560895 56.8070182,79.8397985 56.4669818,79.4339804 C56.2356,79.1577622 55.6481455,78.6354349 55.9269818,78.2341985 C56.2094182,77.8277258 56.3458909,77.5390713 56.8737818,77.5636167 C57.4635273,77.5911076 58.0418182,77.8306713 58.6269818,77.6316895 C58.8842182,77.5443076 59.112,77.6732531 59.3420727,77.765544 C59.5554545,77.8506349 59.8539273,77.6542713 60.0522545,77.596344 C58.8816,76.9460531 58.3350545,75.3777622 58.3969091,74.0974713 C58.4109818,73.8048895 58.5585818,73.5708895 58.5883636,73.2927076 C58.6191273,73.0040531 58.5451636,72.7134349 58.5376364,72.4254349 C58.5320727,72.2077985 58.5765818,71.850744 58.4489455,71.6583076 C58.3484727,71.5071076 58.0712727,71.6193622 58.0886182,71.3640895 C58.1115273,71.0273258 57.9760364,70.5747076 57.9073091,70.2444895 C57.8575636,70.0062349 57.5193273,69.9696295 57.3489818,69.8641985 C56.8053818,69.5277622 57.4964836,69.0191411 56.4221455,68.8578349 C56.1652036,68.819256 56.2406073,69.0206073 55.9638982,68.8083938 C55.5799091,68.355648 55.0696255,67.4721851 54.9368836,67.2290182 C54.5800255,66.5750978 54.6322909,65.7687076 54.4909091,65.0598349" id="td"></path>
                                    <path d="M27.6735273,83.5671273 C27.9677455,82.5460364 27.5436,81.3308727 27.9929455,80.3660727 C28.1025818,80.1301091 28.5175636,80.3389091 28.7145818,80.1121091 C29.0513455,79.7236364 28.7450182,79.2530182 29.0906182,78.8642182 C29.3167636,78.6096 29.304,78.2067273 29.5798909,78.0460364 C29.8692,77.8771636 30.3012,77.5171636 30.1598182,77.1061091 C30.0501818,76.7870182 29.9045455,76.5225818 30.3303273,76.4352 C30.9279273,76.3128 30.4455273,75.4582909 30.3836727,75.2020364 C30.3201818,74.9408727 30.4108364,74.7111273 30.2740364,74.4584727 C30.1565455,74.2414909 29.9742545,74.0690182 29.8613455,73.8490909 C29.6299636,73.3981091 29.9660727,73.0165091 30.0996,72.5972727 C30.2606182,72.0922909 30.1473818,71.5539273 30.1837091,71.0299636 C30.2275636,70.3970182 30.3974182,70.2664364 30.8405455,69.8308364 C31.2218182,69.4557818 31.3870909,68.8899273 31.3736727,68.3682545 C31.3625455,67.9280727 31.6665818,67.6659273 31.9820727,67.4034545 C32.3538545,67.0945091 32.8107273,67.0094182 33.2806909,66.9907636 C33.8956364,66.9662182 34.2268364,66.7443273 34.7907273,66.6016364 C35.1209455,66.5178545 35.5516364,66.8968364 35.8245818,67.0336364 C36.2945455,67.2696 36.7838182,67.1318182 37.1919273,67.5268364 C37.5519273,67.8757091 37.7230909,68.292 37.9675636,68.7138545 C38.0601818,68.8738909 38.1858545,69.0437455 38.3707636,69.1039636 C38.7592364,69.2306182 38.8142182,68.7943636 39.1241455,68.7603273 C40.1573455,68.6461091 40.4964,67.7199273 41.5764,68.4867273 C41.7256364,68.5924364 41.8915636,68.7171273 41.9887636,68.8755273 C42.0358909,68.9524364 42.3189818,68.9138182 42.4011273,68.958 C42.8514545,69.1992 43.0308,69.5353091 43.6133455,69.5572364 C43.9540364,69.5703273 44.6642182,69.7568727 44.9600727,69.6253091 C45.3786545,69.4390909 45.522,68.8964727 45.8806909,68.6258182 C46.7440364,67.9745455 48.0488727,67.9185818 49.0810909,68.0164364 C49.6224,68.0678182 50.1064364,68.2131273 50.5862182,68.4661091 C50.9881091,68.6781818 51.4940727,68.9904 51.9663273,68.8169455 C52.4199273,68.6503636 52.6549091,68.1316364 53.028,67.8505091 C53.2325455,67.6963636 53.4318545,67.5523636 53.6962909,67.5379636 C54.0991636,67.5163636 53.8197382,67.4332855 54.0425455,67.2846545 C54.9006873,66.7122447 55.17504,67.5240153 55.4877818,68.1062302 C55.7535927,68.6010502 56.2873745,68.6411607 56.1599018,70.0127673 C56.1458291,70.1644255 56.3812691,70.7688884 56.5154509,70.8768884 C56.6810509,71.0100884 56.8065273,70.8866935 57.0109091,70.9605818 C58.0729091,71.3444924 57.1067018,72.3919975 57.4285091,72.8905091 C57.8388109,73.5260989 56.5227491,74.0145305 56.0459455,73.9646476 C55.3272873,73.8894567 55.0703127,75.4563273 54.8831127,76.0231636 C54.7767491,76.3452 54.7161382,76.6855636 54.6186109,77.0069455 C54.5096291,77.3659636 54.1064945,77.3111585 54.0973309,77.7166495 C54.0891491,78.0795949 54.1777091,78.5408433 53.8982182,78.8628796 C53.6619273,79.1351705 53.3225455,79.2572727 53.0047636,79.4196 C53.3582182,79.4889818 53.0070545,80.3935636 52.9818545,80.5981091 C52.9088727,81.1842545 52.5305455,81.5187273 51.9444,81.5406545 C51.9990545,81.8473091 51.7627636,81.9150545 51.5994545,82.1097818 C51.3955636,82.3526182 51.5620145,82.7122909 51.5053964,83.0016 C51.37416,83.6728364 51.0399491,84.3788585 50.6186182,84.9318545 C50.2560655,85.4076829 50.9260909,85.69926 50.0894182,86.2445455 C49.7367164,86.4744251 49.9477091,86.7243273 49.8236727,87.0545455 C49.7418545,87.2721818 49.4561127,87.4791098 49.3449709,87.6835342 C49.2372982,87.8815342 48.8812255,87.7643705 48.7313345,87.7044796 C48.5473418,87.6309709 48.5895273,87.0856364 48.5770909,86.9223273 C48.5630182,86.7331636 47.9149527,86.5616138 47.8259345,86.3436502 C47.6842255,85.9967411 47.5121455,86.1133091 47.4178909,85.7110909 C47.3458909,85.9588364 47.3278909,86.3973818 47.0120727,86.4664364 C46.6137818,86.5534909 46.44324,86.125536 46.1218909,86.2294909 C45.5429782,86.4167629 45.4198909,87.3199538 45.0436909,87.5673491 C44.5550073,87.8886949 42.9932618,89.4850527 43.2012764,89.6968538 C43.5344727,90.0360785 42.9352691,90.9082833 42.9336,91.1526545 C42.9307855,91.568628 42.7739236,91.911636 42.2691055,92.7171393 C42.0684873,92.6657575 41.8824,92.3805818 41.9750182,92.1914182 C41.7603273,92.3305091 41.5950545,92.1181091 41.5037455,91.9554545 C41.7118909,92.7301091 41.9059636,92.9055273 41.0066182,93.0361091 C40.6508727,93.0878182 39.4802182,93.3218182 39.8081455,92.5916727 C39.6549818,92.8881818 39.6477818,92.9673818 39.2910545,92.9451273 C38.8960364,92.9205818 38.9641091,92.8184727 38.5808727,92.5681091 C38.7605455,92.6993455 38.9775273,93.3761455 38.5504364,93.2053091 C38.2644,93.0910909 38.6878909,92.4041455 38.1816,92.6623636 C38.3229818,92.9464364 38.4447273,93.2161091 38.3223273,93.5342182 C38.088,93.4350545 37.8183273,92.5903636 37.9001455,92.3324727 C37.6304727,92.5658182 38.0778545,93.2468727 37.9377818,93.5656364 C37.7427273,94.0100727 37.7443636,92.9670545 37.7561455,92.8744364 C37.7116364,93.0043636 37.6409455,93.7184727 37.6154182,93.0861818 C37.6092,93.2727273 37.5833455,93.4825091 37.4517818,93.6281455 C37.4449091,93.4589455 37.3981091,93.3018545 37.3110545,93.1568727 C37.4118545,93.3594545 37.4036727,93.6857455 37.0934182,93.6579273 C36.5337818,93.6078545 36.6876,93.7361455 36.5321455,93.204 C36.5380364,93.7070182 36.1462909,94.1439273 36.0608727,93.4160727 C36.0667636,93.8883273 35.9437091,93.5787273 35.5997455,93.4105091 C35.2603636,93.2445818 35.0319273,92.9137091 34.8597818,92.5913455 C34.6977818,92.2886182 34.4952,91.9584 34.5809455,91.6059273 C34.6382182,91.3702909 34.6693091,91.1542909 34.3394182,91.2478909 C34.2785455,90.9919636 34.3057091,90.8482909 34.5675273,90.7956 C35.0751273,90.6934909 34.6005818,90.5108727 34.9772727,90.2821091 C34.7085818,90.3030545 34.4709818,90.6679636 34.2065455,90.6080727 C33.3628364,90.4169455 34.5171273,90.1220727 34.7187273,90.0936 C34.5822545,89.9283273 34.4251636,89.9047636 34.2474545,90.0229091 C34.2546545,89.9204727 34.2621818,89.8183636 34.2703636,89.7162545 C34.2189818,90.0104727 33.8472,90.2228727 33.7041818,89.8576364 C33.5745818,89.5270909 33.9718909,89.3811273 34.1525455,89.1978545 C33.9385091,89.2849091 33.7457455,89.4338182 33.5863636,89.5987636 C33.2633455,88.8633818 32.5485818,88.0497818 31.7451273,87.8452364 C31.3546909,87.7457455 30.8870182,87.6946909 30.4841455,87.7192364 C30.1696364,87.7388727 29.7108,87.8753455 29.4401455,87.6429818 C29.7824727,87.7100727 30.2854909,87.4822909 30.4776,87.1952727 C30.1274182,87.1789091 29.8790182,87.5912727 29.5350545,87.3130909 C29.4123273,87.4610182 29.3805818,87.6259636 29.4401455,87.8079273 C28.8759273,87.8818909 28.3005818,87.7738909 27.7416,87.9021818 C27.7229455,87.5487273 27.9219273,87.2374909 27.9314182,86.8889455 C27.9412364,86.5282909 27.7798909,86.2635273 27.8695636,85.8907636 C28.0165091,85.2836727 28.0296,84.1169455 27.6735273,83.5671273" id="path5406"></path>
                                    <path d="M81.4559207,20.7019636 C80.9895571,19.9554545 81.9501025,19.1733676 81.8319571,18.4077818 C81.7051062,17.5859084 80.9562734,17.0120455 82.1395934,16.0363636 C82.1644662,16.6352727 82.8625389,16.4209091 83.2245025,16.3132364 C83.8859207,16.1165455 84.4278844,16.3358182 85.085048,16.4019273 C85.8040662,16.4739273 86.4939571,16.6339636 87.1900662,16.8195273 C87.4842844,16.8980727 87.5310844,17.2181455 87.8298844,17.3104364 C88.0953025,17.3922545 88.2972298,17.3592 88.5603571,17.3313818 C88.7370844,17.3124 88.8189025,17.5886182 89.0182116,17.6298545 C89.2365025,17.6750182 89.4593753,17.676 89.6796298,17.6979273 C90.3875207,17.7679636 90.8601025,18.2120727 91.5241389,18.3230182 C92.166248,18.4303636 92.7802116,17.9980364 93.2406844,17.6053091 C93.4795934,17.4017455 93.7021389,17.1805091 93.9210844,16.9556727 C94.1086116,17.1019636 94.2499934,17.2525091 94.4872662,17.2148727 C94.3517753,17.1468 94.3812298,17.1078545 94.2025389,17.1206182 C94.4345753,16.9975636 94.6662844,16.7740364 94.7229025,16.5079636 C95.1238116,16.7475273 95.5008298,16.3171636 95.9010844,16.3201091 C95.6320662,16.4438182 95.373848,16.5976364 95.1683207,16.8146182 C95.2393389,16.7727273 96.8632662,16.2818182 96.0879571,16.2255273 C96.6616662,16.0357091 97.0341025,16.6925455 97.5852298,16.6143273 C97.8483571,16.5770182 98.0964298,16.3168364 98.3755934,16.4143636 C98.6351207,16.5046909 98.7575207,16.8807273 98.9875934,17.0266909 C98.7545753,16.8637091 98.5159934,16.5056727 98.2086844,16.4850545 C98.2996662,16.7292 97.9632298,17.1909818 98.3605389,17.2858909 C98.7925389,17.3889818 98.5902844,17.496 98.8697753,17.7571636 C98.8697753,17.6609455 99.6405025,17.3356364 99.0825025,17.0738182 C99.6761753,17.2119273 99.8735207,17.7597818 100.569957,17.6989091 C100.795775,17.6792727 101.46243,17.2623273 101.343957,17.7571636 C101.77563,17.4829091 102.259993,17.6429455 102.723739,17.5032 C103.132175,17.3804727 103.540972,17.220564 103.868572,16.936164 L105.858226,22.1886622 C105.355208,22.8284804 105.467593,24.0116727 105.147521,24.7696364 C104.960321,25.2127636 104.968175,25.4889818 104.973084,25.9573091 C104.977339,26.3578909 104.468103,26.7453818 104.593448,27.1358182 C104.350284,26.9109818 104.024975,26.8095273 103.756612,26.6216727 C103.415921,26.3830909 103.177666,26.0355273 102.944321,25.6994182 C102.648793,25.2733091 101.784466,24.9951273 101.909812,24.3553091 C102.036139,23.7105818 101.414321,23.2635273 101.096539,22.8092727 C100.657012,22.1818909 100.343484,21.4510909 100.165448,20.7029455 C99.870248,21.0200727 99.5560662,21.7119273 99.8640298,22.0738909 C100.390612,22.6940727 100.335957,23.4553091 100.777448,24.0961091 C101.159703,24.6511636 101.547193,25.3305818 102.025012,25.8041455 C102.23643,26.0136 102.47763,26.1939273 102.670393,26.4220364 C102.771193,26.5414909 103.186503,27.2261455 102.685775,26.8527273 C103.090939,27.1688727 102.755812,27.5714182 103.012721,27.8319273 C103.357666,28.1814545 103.540939,28.5519273 103.721593,28.9924364 C103.810284,29.2090909 103.956575,29.3946545 104.082575,29.5893818 C104.178793,29.7382909 103.987666,29.9281091 103.979157,30.0737455 C103.967375,30.2684727 104.285484,30.5574545 104.372212,30.7253455 C104.571521,31.1095636 104.78883,31.4846182 104.990103,31.8681818 C105.650866,33.1281818 106.317848,34.3659273 106.943266,35.6452364 C107.188066,36.1456364 107.547739,36.504 107.855048,36.9536727 C108.141084,37.3722545 108.642466,37.5018545 108.907557,37.9276364 C108.656866,37.9410545 108.403884,37.8975273 108.178066,37.7862545 C108.012793,38.4699273 108.092583,39.5137702 108.441521,39.9168 C108.773735,40.300488 108.006935,41.07096 107.53923,41.0936727 C107.307521,41.1049244 107.219517,40.936248 106.985975,41.196744 C106.802015,41.401944 106.705012,41.7537818 106.62123,42.0169091 C106.525012,42.3209455 106.381993,42.5896364 106.046212,42.6678545 C105.774575,42.7310182 105.285761,42.675444 105.141433,42.9870076 C104.877652,43.557444 105.038604,44.2231429 104.234495,44.1592985 C103.297677,44.0849127 102.821364,43.3253356 102.327804,43.3460062 C100.70175,43.4141051 99.7684334,43.5623924 98.4937389,43.3472727 C98.5303934,43.2193091 98.6783207,42.9486545 98.5870116,42.8170909 C98.3569389,42.4842545 98.1805389,43.0877455 98.1042844,43.1967273 C97.7989389,43.6333091 96.2731934,43.3708364 95.784248,43.3708364 L82.6642116,43.342452 L82.1965389,25.6090909 C82.147448,24.7801091 82.1677389,23.9105455 82.0531934,23.0894182 C81.9550116,22.3831636 81.7737025,21.3385091 81.4559207,20.7019636" id="eg"></path>
                                    <path d="M93.4363636,113.481818 C93.7453418,112.488166 94.2826255,113.574656 94.3596982,113.583613 C95.4586145,113.711321 95.6784109,113.352519 95.7698182,112.254545 C96.3737345,112.772959 96.1811345,112.022689 97.5433745,112.495507 C97.3132691,112.607404 96.7286945,113.243488 97.1833091,113.223273 C96.7997782,114.227172 97.5608509,114.266379 97.9851273,114.139636 C97.7257636,114.53399 98.3073927,114.699669 97.7543018,115.094867 C97.4126618,115.338976 97.4237564,115.201767 97.3460945,115.641157 C97.3269491,115.749363 96.9294436,115.695596 96.86268,115.835341 C96.7880618,115.990796 97.1021782,116.346983 97.0646073,116.445482 C97.04016,116.509624 96.8706,116.849255 96.5838436,117.059652 C96.1341382,117.389625 96.0709091,117.778428 95.5921745,118.086457 C95.3565382,118.238066 95.1153382,118.28304 94.90536,118.283534 C94.8200727,117.997387 94.3110655,116.920826 94.2118691,116.567846 C94.06872,116.058361 94.2705818,115.530617 93.9305455,115.088073 C93.9705709,114.838387 94.0933309,114.533709 93.8935636,114.2568 C93.717,114.01202 93.5168727,113.7816 93.4363636,113.481818" id="bi"></path>
                                    <path d="M48.9272727,116.790888 C49.1180727,116.213906 49.2332727,116.043069 49.7091273,115.681106 C50.1306545,115.360706 50.2792364,116.424669 50.8316727,116.086597 C50.9108727,116.03816 50.8087636,115.560997 50.8945091,115.383615 C51.0794182,115.002342 50.6837455,114.916924 50.4572727,114.772597 C50.2569818,114.64496 50.8234909,113.391179 49.9418182,113.635979 C50.2491273,113.215106 50.1614182,112.71176 50.0334545,112.245069 C50.3898545,112.328851 50.5374545,112.291215 50.8817455,112.296451 C51.0336,112.298742 51.1062545,112.529469 51.2482909,112.494779 C51.6727636,112.39136 52.4218909,112.500342 52.3256727,111.862815 C52.2595636,111.42656 52.1113091,110.499069 52.9458545,110.948088 C53.2508727,111.112051 53.7921818,112.021542 53.5945091,112.363215 C53.9829818,112.140015 54.3505091,112.622415 54.7465091,112.526851 C55.0865455,112.444706 55.4131636,111.894888 55.5025091,111.584306 C55.6072364,111.775106 55.7931273,112.842669 56.0326909,112.822379 C56.2107273,112.807324 56.6748,112.344888 56.6446909,112.143615 C56.6139273,111.938742 56.6623636,111.233469 56.8698545,111.112706 C57.1464,110.952015 57.4069091,110.427069 57.0570545,110.193397 C57.5329091,110.025506 57.2992364,109.113397 57.1968,108.781869 C57.0400364,108.274924 57.5646545,107.713324 57.3218182,107.26496 C57.1778182,106.998888 56.8086545,106.920342 56.5399636,106.920342 C56.3933455,106.810706 56.5245818,106.441869 56.2094182,106.411433 C55.3928727,106.33256 56.0281091,105.903179 55.9286182,105.399506 C55.8602182,105.052924 55.9796727,104.370233 56.3010545,104.138524 C56.6378182,103.89536 56.9317091,104.018742 57.1480364,103.559906 C57.3159273,103.203506 57.0483164,102.935852 56.916,102.626197 C56.6766982,102.066158 56.5984145,101.541167 55.8723273,101.656488 C55.2435055,101.756361 54.6866182,102.09896 54.0628364,102.205979 C54.2402182,101.741251 54.0451964,101.23464 54.0019636,100.764997 C53.9545418,100.249644 54.2817491,99.7620335 54.2977527,99.5006669 C54.2961164,99.2899033 56.8158545,99.5671786 57.0344727,99.5436149 C57.456,99.498124 57.6042545,99.6100513 58.0054909,99.6401604 C58.3429091,99.6656877 58.3936364,100.118633 58.8462545,99.994924 C59.7357818,99.7514331 60.6668727,100.383069 61.2759273,100.980997 C61.5636,100.571579 61.2775636,100.267869 61.2945818,99.8358695 C61.3086545,99.4788149 61.6644,99.2660877 61.7930182,98.954524 C61.9746545,98.5159786 62.1965455,98.0888877 62.3035636,97.6235058 C62.3896364,97.2500877 62.2531636,96.9057968 62.3349818,96.5451422 C62.3968364,96.2715422 62.4714545,95.8644149 62.7447273,95.7141968 C63.0945818,95.5217604 63.5354182,95.7125604 63.9098182,95.552524 C64.3153091,95.3790695 64.6301455,95.1012149 65.0834182,95.3123058 C65.5275273,95.5191422 65.8305818,95.7047124 66.3342545,95.6232149 C66.9511636,95.5233968 67.7579236,95.2936284 67.6724727,96.159268 C67.5993927,96.8994542 67.0767382,97.9258437 66.7232836,98.5600982 C66.3076473,99.3049709 66.3124255,99.7952877 66.3055527,100.658306 C66.3016255,101.136779 66.2181382,101.622491 66.0734182,102.082269 C65.9148873,102.585942 65.7935018,102.860197 65.7870545,103.409033 C65.7828982,103.763702 65.7630655,104.109069 65.7375382,104.469724 C65.7123382,104.825797 65.6095418,105.277384 65.5218982,105.623894 C65.2988291,106.505894 65.7215018,107.077292 64.9863164,107.885214 C64.3280073,108.608637 63.6328145,108.813311 63.1887709,109.62296 C62.9777782,110.007663 62.8020327,110.42399 62.6319491,110.846214 C62.3162945,111.629898 61.5615382,111.74769 61.6086655,112.226029 C61.6860327,113.011392 61.6210036,113.778931 61.6182545,114.649869 C61.6155709,115.497143 61.2438218,116.80122 60.4366691,116.94266 C60.1428436,116.99415 59.8372691,117.303897 59.7446509,117.614152 C59.6952327,117.780407 59.16348,118.007112 59.0070436,118.195735 C58.7256873,118.534904 58.5224182,118.933428 58.1964873,119.268404 C57.7823564,119.694023 57.3715636,119.18816 57.1290545,119.501033 C57.1290545,119.197651 56.8542436,118.649885 57.06468,118.400723 C57.2326364,118.201862 57.3159927,118.023344 56.9716364,117.916225 C56.5453636,117.78362 55.9646182,118.669106 55.5974182,118.182451 C55.4144727,118.37456 55.4462182,118.615433 55.3509818,118.841906 C55.2243273,119.142997 54.8217818,119.254269 54.6061091,119.478451 C54.5841818,119.08376 54.0343636,119.028779 53.9450182,118.653397 C53.6511273,119.193318 53.3511164,117.58312 52.8450218,118.372381 C52.6715018,118.643012 52.3846473,118.620306 52.1712,118.804269 C51.9571964,118.988697 51.5911091,119.414833 51.3706909,119.659515 C50.8525527,120.234733 50.6952,119.163615 50.6120727,118.854342 C50.3950909,118.047942 49.5212727,117.345615 48.9272727,116.790888" id="cg"></path>
                                    <path d="M93.1312216,112.720433 C92.9580943,112.363378 93.8578652,111.752809 93.8487016,111.276954 C93.832338,110.440772 94.2089634,110.07818 94.9217634,109.663526 C95.0104543,109.611817 95.4371852,109.341669 95.5487852,109.428397 C95.699658,109.545233 95.7556216,109.94876 95.9981307,109.680724 C96.1886034,109.470287 96.8117307,108.543778 97.1599489,108.665524 C96.9976216,109.144978 97.4094943,109.750269 97.6277852,110.105687 C97.9007307,110.549797 98.1784216,111.313487 98.1057671,111.823378 C98.0141307,112.464833 97.6485671,112.548287 97.1069307,112.342433 C96.4919852,112.10876 96.3427489,112.666106 95.814858,112.199742 C95.7389307,112.778687 95.7880216,113.410324 95.087658,113.555633 C94.7309307,113.629597 94.3984216,113.676069 94.2233307,113.319015 C94.0308943,112.926287 93.5219852,112.957706 93.4810762,113.427015 C93.2598398,113.219524 93.1521671,113.027742 93.1312216,112.720433" id="rw"></path>
                                    <path d="M43.3433455,107.952779 C43.3918455,108.026422 43.4398455,108.100066 43.4883455,108.173709 C43.6273455,107.985337 43.5908455,107.81867 43.3783455,107.673709 C43.3663455,107.766732 43.3548455,107.859756 43.3433455,107.952779" id="path5980"></path>
                                    <path d="M43.0128,108.426436 C42.8596364,108.218945 42.7421455,107.950582 42.8720727,107.696945 C42.8799273,107.888727 42.9509455,108.053345 43.0848,108.191127 C43.1371636,107.656691 43.4556,108.098182 43.4382545,108.403855 C43.4909455,107.750945 44.1553091,107.379491 44.2279636,106.741309 C44.2780364,106.300145 43.9956,105.442364 44.3811273,105.104945 C44.3978182,105.319964 44.5572,105.474764 44.6625818,105.648218 C44.7349091,105.294109 45.2546182,105.4908 45.4153091,105.788945 C45.3730909,105.487527 45.6970909,105.376582 45.9356727,105.3864 C45.3390545,105.3864 44.8802182,105.262691 44.5395273,104.735455 C44.4040364,104.525345 43.9641818,104.258291 44.4498545,104.161418 C44.6563636,104.120182 44.9358545,104.224909 44.9437091,104.470364 C45.1191273,104.079273 44.8242545,103.558909 44.9365091,103.141636 C44.9983636,102.912873 45.2776255,102.935762 45.4478073,103.028053 C45.7531527,103.19398 45.9679745,102.990639 46.3034291,102.990639 L49.23972,103.038055 L49.2316364,99.8004338 C49.3631673,99.0467018 49.6726364,99.3375982 50.2363964,99.3627524 C50.7157527,99.3841364 51.3024545,99.4497447 51.8082545,99.4219004 C52.2897709,99.3953913 52.7795673,99.5569462 53.1018,99.5404156 C53.8666364,99.5011822 54.4736618,99.0994484 53.9554909,100.314327 C53.6328982,101.070655 54.1564364,101.788691 53.8975636,102.465818 C54.4617818,102.369273 54.9704618,102.068702 55.5293455,101.947418 C56.5749818,101.720494 56.4481636,102.340345 56.7614945,102.865179 C57.0566618,103.359636 57.3105273,104.081443 56.3144727,104.312618 C55.7669127,104.439705 55.7381455,105.372982 55.7895273,105.806291 C55.8140727,106.012145 55.37736,106.577892 55.8658473,106.603943 C56.1040691,106.616648 56.3401636,106.799204 56.3134255,106.972959 C56.2752327,107.221094 56.8399745,107.175891 57.0478582,107.383418 C57.5052545,107.840104 56.94804,108.420005 57.0300545,108.913418 C57.0822218,109.227436 57.4538073,110.163417 56.8927636,110.452909 C57.2485091,110.690509 57.0001091,111.3084 56.6715273,111.442582 C56.5798909,111.479891 56.4484255,112.264498 56.4749345,112.295916 C56.67948,112.536461 56.1198764,113.122623 55.8495491,113.094805 C55.5635127,113.065351 55.4665091,112.077818 55.3378909,111.843491 C55.2505091,112.147527 54.8923091,112.774166 54.5421273,112.816384 C54.1893273,112.85893 53.7764727,112.423091 53.4298909,112.6224 C53.6679818,111.696981 51.8969127,110.234523 52.1473745,111.777814 C52.2938945,112.680569 51.9407673,112.692345 51.0977782,112.772114 C50.8275164,112.797687 50.904,112.571414 50.6382873,112.590805 C50.2903964,112.616188 50.2164,112.584557 49.8691636,112.504255 C49.9974545,112.970945 50.0851636,113.474291 49.7775273,113.895164 C50.1192982,113.774155 50.3508764,113.965066 50.3345455,114.305564 C50.3204727,114.598996 50.2635927,114.848005 50.3029636,114.999264 C50.4465055,115.140305 50.6239527,115.140865 50.7139527,115.278084 C50.9167309,115.587144 50.6826327,115.629932 50.7088145,115.894695 C50.7300873,116.110368 50.8666909,116.409423 50.4818182,116.430369 C50.0753455,116.452296 50.0659855,116.104817 49.7727164,115.925996 C49.4780727,115.746323 48.8349818,116.8452 48.7626545,117.0504 C48.2193818,116.624618 47.7484364,115.738036 47.3730545,115.165309 C46.8212727,114.323564 45.9890182,113.649382 45.2736,112.952618 C45.6709091,112.707164 45.8024727,113.615673 46.1703273,113.162073 C45.9055636,113.187273 45.5256,112.858691 45.2379273,112.787673 C44.7758182,112.673455 44.4400364,111.608182 44.1445091,111.231491 C44.4423273,111.258655 44.55,111.585273 44.8285091,111.656945 C44.5758545,111.247855 44.5284,111.344727 44.1664364,111.132982 C44.0021455,111.037091 44.0518909,110.745818 44.0119636,110.601164 C43.9141091,110.246073 43.6594909,109.966255 43.4834182,109.650764 C43.7115273,109.840582 44.1661091,110.255891 44.0954182,110.596582 C44.3307273,110.515418 44.5778182,110.4624 44.8285091,110.479091 C44.6923636,110.375345 44.5824,110.248691 44.4979636,110.099455 C44.4449455,110.286655 44.3055273,110.3832 44.1183273,110.289273 C44.1494182,110.042509 44.3454545,109.818655 44.2394182,109.559455 C43.8692727,110.636509 43.1898545,108.558 43.0128,108.426436" id="path6014"></path>
                                    <path d="M57.1090909,88.660013 C57.2694545,88.3995039 57.5103273,88.2263767 57.7417091,88.0355767 C58.1010545,87.7397221 58.1354182,87.3996858 58.3671273,87.0279039 C58.7611636,86.395613 59.0312945,85.4490487 59.4740945,84.8471941 C60.0226036,84.100685 60.1098545,84.6111421 60.8154545,84.4059421 C61.1836364,84.2989239 61.4726182,84.2215403 61.8296727,84.1073221 C62.1821455,83.994413 62.0865818,83.6101948 62.46,83.4763403 C62.5621091,83.872013 62.8717091,84.0978312 63.0949091,84.4188858 C63.2922545,84.026489 63.8975127,83.8354567 64.0828145,83.6946508 C64.6668655,83.2508821 65.5829673,83.0723614 66.2807127,83.070725 C66.8914036,83.0694159 67.4917855,83.2426447 67.7909455,82.6774676 C68.0019055,82.2789312 68.8597855,81.571793 68.8143273,81.1913221 C68.7861491,80.955365 68.2615636,81.0161854 68.2382945,80.7135465 C68.2025891,80.2490156 69.6270436,80.2366741 70.0002982,80.2429054 C71.1657818,80.2623683 72.4451564,79.8051127 73.206,78.8614676 C73.6060909,78.3652698 73.8530182,77.8318676 74.3694545,77.4483039 C74.6309455,77.2542312 75.3619745,76.5934316 75.2160109,76.2894312 C75.0324436,75.9071341 75.3337636,75.5244607 75.7947273,75.4133221 C76.3155491,75.2877476 76.71888,74.6329992 77.3266582,74.6186418 C78.0608945,74.6012963 78.2302255,75.077969 78.5549127,75.4714752 C79.0653273,76.0900141 79.6186473,76.5505785 79.9207527,77.2122781 C80.2133345,77.853173 80.2356218,78.4342785 80.1966436,79.1098676 C80.1578618,79.7813854 79.5736145,79.8722625 79.6621091,80.3659403 C79.7485091,80.3348494 79.8342545,80.3034312 79.9206545,80.272013 C79.9903636,80.5341585 79.8463636,80.7694676 79.7570182,81.0021585 C80.28,81.0973948 80.8956,80.9622312 81.3799636,81.2286312 C81.9039273,81.5166312 81.0484364,82.2634676 82.0289455,82.4300494 C82.3591636,82.4863403 82.8111273,82.4506676 83.0922545,82.6627403 C83.4198545,82.9101585 83.5855527,83.1838927 83.9392364,83.4468858 C84.49092,83.8571221 84.0677891,84.1743345 84.0611127,84.3804116 C84.0498218,84.727409 84.5407636,84.9767843 84.8084727,85.1351843 C85.0964727,85.3060207 85.4118,85.4951941 85.7101091,85.6477948 C86.2922618,85.9455901 86.11488,86.1060814 86.3289818,86.4450312 C86.4803127,86.6846112 87.1262836,86.8060458 86.9488364,87.1614312 C86.7125455,87.6346676 86.9064545,87.7166788 87.1975309,87.9883676 C87.4640945,88.2371308 87.1648364,88.4453188 87.6207273,88.7447767 C87.9114436,88.9357305 88.2022909,89.0324494 88.5217091,89.196413 C89.0358545,89.4601948 89.2281273,89.7715588 89.2051527,90.3307599 C89.1836509,90.8531232 89.5400182,91.1397847 89.7002182,91.5819039 C89.2882473,91.1337596 88.73784,90.9516323 88.3718182,91.3324796 C88.2166909,91.4939068 87.8956364,91.4539403 87.7054909,91.4346312 C87.6132,91.4035403 87.5238545,91.4097585 87.4384364,91.4532858 C87.2247273,91.5606312 87.1487018,91.3604025 86.9853927,91.2965843 C86.65812,91.1689479 86.3897564,90.9038014 86.0422909,91.0029585 C85.3474582,91.2012399 85.3241891,90.7388428 84.8807673,90.6705312 C84.59856,90.627053 84.4007891,90.8091312 84.4557709,91.0896039 C84.5457709,91.5487676 84.0037418,91.6189283 83.6833418,91.7197283 C83.3639236,91.8198738 82.9262291,91.9655494 82.6290655,91.7485676 C82.4696836,91.6323858 82.1219236,91.1322508 82.0279964,91.4447963 C81.8987236,91.8735236 81.0224182,92.1583556 80.6517491,92.2257738 C79.9733455,92.3491556 79.5368618,92.9868268 79.2494182,92.6730312 C78.9250582,92.3189123 78.5622764,91.8066159 78.0223418,92.4362887 C77.8581491,92.6277727 77.8753636,92.9162145 77.7493636,93.125669 C77.5772182,93.4117054 77.5417091,93.7998312 77.2347273,94.009613 C76.8066545,94.3021948 75.8006836,93.6629003 75.2682436,93.682769 C74.9576618,93.694361 74.8973782,93.7858239 74.5340073,93.6650996 C74.1611782,93.5412367 74.0337382,93.7220908 73.7747673,93.4019919 C73.5148473,93.0806952 72.9714109,93.353513 72.6068291,93.2880585 C72.1499564,93.205913 72.1412509,92.5763058 71.8866327,92.3286159 C71.4431455,91.8972181 70.7741018,91.5988828 70.3483527,91.3398661 C69.7487236,90.9750487 68.8941818,91.7291767 68.5904727,92.2524858 C68.4176727,92.5503039 68.1699273,92.8477948 68.0514545,93.170813 C67.9585091,93.4231403 67.5968727,93.3800843 67.5019636,93.523757 C67.3497818,93.7538298 67.7339018,94.2267028 67.7055273,94.4933221 C67.6643236,94.8804236 67.6263927,95.0486188 67.6459636,95.9182676 C67.3193455,95.3769585 66.4946509,95.8450207 65.9382873,95.7622207 C65.6885782,95.7252388 65.2594909,95.5232494 65.0290909,95.4168858 C64.5849818,95.212013 64.2186327,95.6300647 63.7663418,95.7194101 C63.1003418,95.8509738 62.5689818,95.6214312 62.4223636,96.4458312 C62.3431636,96.8909221 62.3893091,97.375613 62.3074909,97.8066312 C62.1981818,98.3852494 61.8080727,98.9435767 61.6107273,99.4999403 C61.4618182,98.8519403 61.3430182,98.2746312 61.2962182,97.6158312 C61.2490909,96.954413 60.5503636,96.9891039 60.2031273,96.6029221 C60.0326182,96.4127767 58.2542182,94.3368858 59.0678182,94.3162676 C58.6469455,94.0194312 58.7336727,93.3668494 58.3023273,93.0297585 C57.7426909,92.5928494 57.8241818,91.9651403 57.7996364,91.3083039 C57.7904727,91.0628494 57.4723636,90.8949585 57.4812,90.7303403 C57.4942909,90.4875039 57.6350182,90.2394312 57.6517091,89.9835039 C57.6703636,89.704013 57.6703636,89.4022676 57.5921455,89.1303039 C57.5175273,88.8747039 57.2056364,88.9938312 57.1090909,88.660013" id="cf"></path>
                                    <path d="M111.396436,63.0196364 C111.791127,62.6658545 111.768545,62.1108 111.910582,61.6414909 C112.064727,61.1322545 112.278436,60.6370909 112.461055,60.1370182 C112.628618,59.6772 112.154073,57.7688727 112.889127,57.6664364 C113.035745,57.6458182 113.5836,57.7567636 113.671636,57.6098182 C113.909891,57.2121818 113.7276,56.9068364 114.198545,56.7576 C114.578182,56.6374909 115.0164,56.3393455 115.412727,56.1829091 C115.997236,55.9518545 116.017527,55.3509818 116.436764,54.9615273 C117.169527,56.4234545 117.707564,57.8300727 118.0656,59.4261818 C118.151018,59.8068 118.145455,60.1831636 118.318909,60.5421818 C118.506764,60.9303273 118.685127,61.2382909 118.762036,61.6647273 C118.8144,61.9553455 119.180291,61.9798909 119.259818,62.2885091 C119.333455,62.5732364 119.392691,63.0612 119.644036,63.2559273 C119.957891,63.0330545 119.443745,62.1870545 119.771673,62.1330545 C120.092727,62.0800364 120.283527,62.4832364 120.305127,62.7221455 C120.33,63.0019636 120.529964,63.4791273 120.798327,63.6031636 C121.177636,63.7785818 121.416873,63.2637818 121.804364,63.6957818 C122.125418,64.0528364 122.162727,64.3172727 122.680145,64.3882909 C123.277091,64.4704364 123.503891,64.9282909 123.821673,65.4021818 C124.128655,65.8590545 124.395709,66.3237818 124.874182,66.6252 C125.1,66.7675636 125.299636,66.9423273 125.489455,67.1288727 C125.584691,67.2224727 126.0468,67.8564 125.816727,67.2849818 C126.132545,67.4869091 126.131236,67.9336364 126.230727,68.2497818 C126.317782,68.5253455 126.623782,68.4500727 126.801818,68.6366182 C126.973964,68.8169455 127.656982,70.0916727 127.914218,69.4528364 C128.171618,69.6943636 128.297258,69.8057771 128.151229,69.9831262 C127.774767,70.1604753 127.472596,70.4037567 127.466215,70.6140622 C127.444124,71.3417138 126.8712,70.3002273 126.224051,70.8124287 C126.303022,70.6259258 126.114578,70.0474582 125.409305,69.5645509 C124.789025,68.6295033 124.388902,67.9809142 124.009985,67.8795349 C123.335051,67.6989491 123.118691,66.8674964 122.714607,66.3104029 C122.276978,65.7070527 121.623284,65.6777815 121.067182,65.2492636 C120.546622,64.848132 120.237349,65.1814756 119.755211,65.0374364 C119.377538,64.9246058 118.722273,64.570464 118.348036,65.0464364 C118.339625,64.753308 117.750764,64.170252 117.878956,64.3735211 C117.939829,64.4700109 117.458738,64.9968218 117.106069,65.0173516 C116.8758,65.0307535 116.382927,65.0993465 116.142545,64.7378182 C115.70292,64.0766585 115.559411,64.61748 115.045527,63.774 C114.850145,64.5322909 114.561491,65.2637455 114.269891,65.9889818 C114.112473,65.7644727 113.701451,64.9261636 113.316578,65.1333273 C113.075705,65.2632545 113.104931,65.5047491 112.765778,65.4788455 C111.831578,65.4074935 111.849905,65.3681422 111.605367,65.9542091 C111.431127,65.1205604 111.382691,63.8508895 111.381676,63.0786273" id="path6830"></path>
                                    <path d="M82.8132218,78.2459345 C82.9153964,78.1434164 82.9327091,77.945724 83.0217927,77.8565749 C83.1615382,77.7168884 83.3693236,77.5925247 83.5085127,77.453316 C83.7265418,77.2353 83.5085127,76.7692473 83.73096,76.5494607 C83.8882473,76.3921604 84.3777818,76.625748 84.5653418,76.4382142 C84.6940909,76.309416 85.4447236,76.0800371 85.5665345,76.2018185 C85.7313164,76.3666724 85.7088982,76.9143338 85.7889491,76.9944338 C85.8584945,77.0636585 86.10624,77.0196011 86.1644618,77.0778884 C86.2719709,77.185404 86.2793345,77.3910982 86.3451818,77.5228549 C86.3883818,77.610312 86.4935345,77.7129153 86.5399091,77.7592505 C86.7071455,77.9264345 86.6158036,78.3773149 86.7624545,78.524064 C86.8583127,78.620364 87.1665382,78.7653622 87.2769273,78.802164 C87.5634218,78.8977244 88.7143745,78.5188931 88.8761127,78.3571876 C88.9119164,78.3216687 89.0955491,78.3787876 89.1263455,78.3850385 C89.5832182,78.4763902 90.26964,78.4841891 90.6142255,78.426756 C90.7873855,78.6698116 90.8824909,79.0286793 91.0591855,79.2054327 C91.2516873,79.397892 92.5536109,79.2786567 92.8113055,79.1498029 C92.89872,79.1061873 92.8513636,78.9019527 92.8944982,78.8160633 C93.0108436,78.5834345 93.3684545,78.2801182 93.6315491,78.1486036 C93.9344727,77.997096 94.6420036,78.1254 94.8134618,77.9539255 C94.9313782,77.8360942 94.7014364,77.1899335 94.8692945,77.0222553 C95.09436,76.7972062 95.5053164,76.6156778 95.7314945,76.4799382 C96.3724582,76.6313575 96.6433418,77.1137444 97.0385891,77.5089622 C97.2599564,77.7302967 97.5735491,77.8353055 97.7616982,78.0234676 C97.8154691,78.0774185 97.8847855,77.9420193 97.9006909,77.9261105 C97.9481127,77.8788 98.3865273,77.9122015 98.4847418,77.9122015 C98.6053745,77.9122015 98.9296691,77.9400524 99.0131564,77.8565716 C99.4440109,77.4257367 99.7904291,76.7733513 100.250771,76.3130585 C100.465167,76.0986033 100.490596,75.5725713 100.695731,75.3674891 C101.077036,74.986128 101.629931,74.6369313 101.794287,74.1437935 C101.297487,73.756404 101.926309,72.6349811 101.59956,72.3083007 C101.55636,72.2653167 100.911764,71.7029705 100.932087,71.682552 C101.150084,71.4646375 102.348818,71.8110295 102.503389,71.5017764 C102.604549,71.3000291 102.477862,71.0302255 102.503389,70.8760244 C102.630142,70.8088058 103.810582,70.8654862 103.810582,70.8760244 C103.810582,71.1237829 103.589313,71.9999967 103.462953,72.2526807 C103.336658,72.5052338 103.733673,74.0308713 103.810582,74.3385044 C103.847433,74.4857084 103.714724,75.0348916 103.768462,75.0894022 C103.88412,75.2051389 104.177029,75.2567825 104.324662,75.3675185 C104.915225,75.8104691 105.244527,76.6627887 105.673451,77.0917942 C105.812116,77.230404 105.661015,77.999148 105.423218,77.8009909 C105.470673,79.1982851 105.338913,78.2733371 106.17156,78.5513127 C106.193487,78.3419531 106.236491,78.1348484 106.303484,77.9295207 C106.457956,77.4549753 106.685411,77.1134662 106.666756,76.6019389 C106.645811,76.0269207 106.591713,75.636648 106.963822,75.1660298 C107.246585,74.8089753 107.728985,75.107448 107.719167,75.5054116 C107.918149,75.2864662 108.010865,75.1095196 108.164913,74.7890116 C108.553844,73.9798822 107.980953,73.9910651 108.165109,73.7736284 C108.614356,73.2432076 108.276284,72.3218105 108.765131,71.9999935 C109.235422,71.6903967 109.424258,70.6539207 109.720767,70.1829753 C110.023495,69.7025389 110.41524,69.9235298 110.88324,69.8584025 C111.194476,69.814872 111.137956,68.8817356 111.14352,68.6627902 C111.158575,68.0449025 111.519327,67.591728 111.644476,67.003848 C111.825524,66.1540385 111.689018,65.2171876 111.659858,64.62216 C111.62844,63.9837295 111.431618,63.2036029 111.663131,62.7699207 C111.987393,62.1624895 112.086524,61.3370291 112.36284,60.5879967 C112.470251,60.2968124 112.621713,59.9773025 112.688149,59.6732629 C112.760804,59.3420629 112.584175,59.0831738 112.644393,58.7568796 C112.70592,58.4246978 112.656502,57.7424389 112.961978,57.5621084 C113.183542,57.4311993 113.799207,57.6786207 113.884298,57.3788389 C114.049898,56.7962935 113.965069,56.7341705 114.607178,56.4910069 C114.961942,56.3564978 115.769455,56.0670545 115.964705,55.7502644 C116.113222,55.5092902 116.488964,54.8598829 116.577196,54.7639691 C116.522542,54.3228087 115.775313,54.3717753 115.753713,53.9685753 C115.44804,54.2434811 114.588949,52.8103571 114.129458,52.7321389 C113.334218,52.5969785 113.0976,51.0568298 113.063236,50.389524 C113.014145,49.439124 112.728436,48.582324 112.852145,47.6479604 C112.907127,47.2342876 112.768036,46.7623604 112.603418,46.3873058 C112.375636,45.8682513 112.836109,45.6335967 112.949018,46.1454513 C112.918255,45.4729058 112.146218,45.0494149 111.960327,44.4253058 C111.735818,43.6712695 112.058509,43.3813058 111.364036,42.8959604 C110.840073,42.5297422 110.504945,41.8365785 109.957418,41.5505422 C109.345745,41.2308 108.851236,40.9807636 108.684327,40.2545455 C108.463745,40.4777455 107.880218,41.3581091 107.527745,41.1735273 C107.065636,40.9313455 106.918036,41.5426909 106.8192,41.8238182 C106.6284,42.3654545 106.4664,42.6740727 105.876327,42.7752 C105.291818,42.8756695 105.139964,42.9984 105.018545,43.5858545 C104.753127,44.8704 103.497709,43.8902182 102.889309,43.5586909 C102.361745,43.2713455 101.437527,43.4906182 100.861527,43.5145091 C100.109127,43.5456 99.3462545,43.563924 98.6010545,43.4356331 C98.8474582,43.2087447 98.7185455,42.4065927 98.3556,42.9885785 C97.99668,43.5640713 97.5302182,43.4591967 96.9228,43.4591967 C95.3715273,43.4591967 93.8202545,43.4591967 92.2693091,43.4591967 C89.1085091,43.4591967 85.9034618,43.4297095 82.7429891,43.4297095 C82.80648,45.3141458 82.8742909,47.2290611 82.9050545,49.1144793 C82.0891636,49.1144793 81.2729455,49.1144793 80.4570545,49.1144793 L80.6926909,61.2968825 C80.2878545,61.1712098 79.8656727,61.0164098 79.4614909,61.2275007 C79.128,61.4022644 78.8085818,61.2075371 78.4688727,61.375752 C77.6765455,61.767828 78.5110909,62.3614975 78.0159273,62.9924825 C77.6189455,63.4977884 77.5482545,64.0476065 76.9732364,64.3529553 C76.6112727,64.5447371 76.9814182,65.4431007 77.2036364,65.6558247 C76.3792364,66.3152825 75.8467636,66.5391371 76.4381455,67.6531735 C76.6633091,68.0773189 76.3825091,68.2560065 76.0365818,68.500152 C75.6670909,68.7609916 75.6019636,69.0967702 75.4363636,69.4970247 C75.7570909,70.3629818 76.3651636,69.5484 76.9045091,69.8609455 C77.2236,70.0468364 76.7408727,70.3521753 76.8868364,70.6025389 C77.0665091,70.9082149 77.1620727,71.3140364 77.0632364,71.6638909 C77.148,71.6210215 77.2337455,71.5817455 77.3217818,71.5460695 C77.5783636,71.9584331 77.0969455,72.4149818 77.3064,72.8325818 C77.5138909,73.2482182 78.0473455,73.3038545 78.2276727,73.605924 C78.4924364,74.0497091 77.9347636,74.4571636 78.1311273,74.8885091 C78.3340364,75.3352331 78.6901091,75.6713455 79.0311273,76.0120364 C79.6408364,76.6217455 80.1726545,77.5244913 80.1772364,78.3973309 C80.1831273,78.5597269 80.2152327,78.7188109 80.2152327,78.8684302 C80.2185055,78.8720302 81.6750982,78.8684302 81.6750982,78.8684302 C81.8421382,78.9302225 81.8941418,78.7910858 82.0234473,78.6699785 C82.2497564,78.6509313 82.2969491,78.9642033 82.4298545,78.5327531 C82.5984327,78.4279342 82.6961564,78.4079247 82.8130909,78.245964 L82.8132218,78.2459345 Z" id="sd"></path>
                                    <path d="M81.6321684,81.7547188 C81.6203866,81.9011178 81.5868411,82.0516534 81.5868411,82.1319432 C81.5868411,82.6671028 82.2880884,82.622633 82.6493647,82.6791138 C82.897732,82.7179774 83.1767647,82.7748214 83.3622957,82.9587421 C83.5605575,83.1550698 83.6420484,83.3488414 83.9055357,83.517341 C84.1672557,83.6846003 84.3066738,83.814845 84.3066738,84.049529 C84.3066738,84.2644752 83.9767175,84.4987076 84.1570447,84.7002683 C84.6686375,85.2729367 85.3134629,85.5368887 85.9730157,85.9164923 C86.3135102,86.1124959 86.2157866,86.3058945 86.4235066,86.5897708 C86.5738229,86.7955861 86.9473393,86.8681098 87.0390411,87.1049439 C87.1425575,87.3718447 86.7811829,87.5828701 86.9779393,87.8605545 C87.0872811,88.0154036 87.3617975,88.133981 87.3617975,88.3499221 C87.3585247,88.8575745 87.8971829,88.9480621 88.3003175,89.2394625 C88.6538375,89.494925 89.2122302,89.5955385 89.2564775,90.1133298 C89.2856047,90.4540501 89.1852302,90.824837 89.4266593,91.115573 C89.6024047,91.3269421 89.6915538,91.6891807 89.9228047,91.8257385 C90.2439902,92.0155305 90.3599757,92.1400054 90.4137138,92.5211472 C90.4705284,92.921333 90.996292,92.9663003 91.1923611,93.2207679 C91.2883502,93.345305 91.5508229,93.434297 91.6834993,93.5169072 C92.1858629,93.8328072 92.2959902,93.6211665 92.7672957,93.318701 C93.4819611,92.8599825 93.5845284,93.3508392 94.2005866,93.4018381 C94.8211938,93.4531807 94.6437466,92.201765 95.3875393,92.8427188 C95.6318811,93.0530865 95.6692884,93.324893 95.8447066,93.5578163 C96.0083757,93.7750436 96.139972,94.0600163 96.323932,94.2605919 C96.733252,94.7081407 97.9164411,94.8723628 97.550812,95.6688072 C97.8797866,95.5917083 98.2516011,95.6060854 98.3021647,96.021617 C98.4469502,95.6658683 98.9020229,95.1171432 99.3639684,95.2216643 C99.6448666,95.2850407 99.7688702,95.6535105 100.091594,95.5081425 C100.277157,95.424845 100.601452,95.0464588 100.784692,95.2993065 C101.028412,95.6351308 101.206383,95.793269 101.644077,95.951057 C101.361477,95.2813588 102.806354,95.3731359 103.456383,95.0331159 C103.819263,94.8433272 104.212776,95.2894425 104.688532,95.2957588 C104.864801,95.298377 105.433503,94.8795727 105.51987,94.7773719 C105.987085,94.2246247 106.593161,93.0599428 107.315027,92.9509414 C108.43947,92.7811556 109.802954,92.8853559 110.957736,92.8227781 C110.749656,92.5598014 110.532968,92.3660887 110.532968,92.0051036 C110.532968,91.7182818 110.715521,91.3772243 110.605688,91.0962836 C110.509732,90.8483418 110.597507,90.9449919 110.316379,90.7042501 C110.026645,90.4560923 109.706277,90.3953276 109.42911,90.7529319 C109.251008,90.5807734 109.332008,90.3141934 109.119412,90.1949614 C108.939674,90.0940305 108.877067,89.8369185 108.787525,89.6654112 C108.546096,89.2028341 108.529765,88.6840708 108.294292,88.226717 C108.096292,87.8418999 108.117139,87.2151203 107.726376,86.9192592 C107.368208,86.6480778 107.188994,86.3638087 106.905805,86.2337538 C106.674685,86.1276061 106.367114,85.3903818 106.056107,85.0163352 C105.777532,84.6811752 105.551092,84.4018676 105.08355,84.1598003 C104.661237,83.9411232 104.177921,84.0337054 103.775539,83.8001308 C103.161052,83.4437178 103.88547,83.1883665 103.949681,82.8146407 C104.029405,82.3537065 103.939208,82.0275334 104.498387,82.0034134 C104.864637,81.9874098 105.290583,82.1399647 105.635921,82.1030908 C106.768154,81.9818887 106.310725,80.6507298 106.252863,79.9075425 C106.216961,79.5099748 106.205376,79.1157716 106.252863,78.7265952 C105.416616,78.4478603 105.548343,79.3728083 105.500921,77.9755141 C105.738717,78.1736712 105.889819,77.4049272 105.751154,77.2663174 C105.32223,76.8373119 104.992928,75.9849923 104.402365,75.5420418 C104.254732,75.4313058 103.961823,75.3796621 103.846165,75.2639254 C103.792427,75.2094148 103.925103,74.6602316 103.888252,74.5130276 C103.811343,74.2053945 103.414361,72.679757 103.540623,72.4272039 C103.666983,72.1745199 103.888252,71.2983061 103.888252,71.0505476 C103.888252,71.0399767 102.707812,70.983329 102.581059,71.0505476 C102.555532,71.2047487 102.682219,71.4745523 102.581059,71.6762963 C102.426488,71.9855559 101.227787,71.6391607 101.009757,71.8570752 C100.989467,71.877497 101.63403,72.4398334 101.67723,72.4828239 C102.003979,72.809501 101.375157,73.9309272 101.87199,74.3183167 C101.707601,74.8114545 101.154739,75.1606512 100.773434,75.5420123 C100.568267,75.7470945 100.542837,76.2731265 100.328441,76.4875818 C99.8680993,76.9478745 99.5217138,77.6002599 99.0908266,78.0310948 C99.007372,78.1145821 98.6830775,78.0867247 98.5624447,78.0867247 C98.4642302,78.0867247 98.0257829,78.0533265 97.9783938,78.1006338 C97.9623575,78.1165392 97.8931393,78.2519418 97.8393684,78.1979908 C97.6512193,78.0098254 97.3376266,77.9048199 97.116292,77.6834821 C96.7210447,77.2882643 96.4501284,76.8058807 95.8091647,76.6544614 C95.5829866,76.790201 95.1720302,76.9717294 94.9469647,77.1967752 C94.7791066,77.3644567 95.0090484,78.0106174 94.8911647,78.1284487 C94.7197066,78.2999199 94.0121757,78.1716225 93.709252,78.3231236 C93.4461575,78.4546414 93.0885466,78.7579545 92.9722011,78.9905832 C92.9290338,79.0764759 92.9764557,79.2807072 92.8889757,79.3243228 C92.6312811,79.4531898 91.3293575,79.5724185 91.1368557,79.3799527 C90.9601611,79.2031992 90.8650557,78.8443348 90.6918957,78.6012759 C90.3473102,78.6587123 89.6608884,78.6509003 89.2040157,78.5595618 C89.173252,78.5533436 88.9895866,78.4961952 88.9537829,78.5317108 C88.7920447,78.6934163 87.641092,79.0722508 87.3545975,78.9766839 C87.2442084,78.9398887 86.9359829,78.7948872 86.8401247,78.6985839 C86.6934738,78.5518348 86.7848157,78.1009545 86.6175793,77.9337705 C86.5712047,77.8874418 86.466052,77.7848319 86.422852,77.6973781 C86.3570047,77.5656181 86.3496411,77.3599239 86.242132,77.2524083 C86.1839102,77.194121 85.9361647,77.2381719 85.8666193,77.1689538 C85.7865684,77.088857 85.8089866,76.5411956 85.6442047,76.3763385 C85.5223938,76.254557 84.7717611,76.4839359 84.643012,76.6127374 C84.455452,76.8002712 83.9659175,76.5666836 83.8086302,76.7239839 C83.5861829,76.9437672 83.8040484,77.4098232 83.5861829,77.6278359 C83.4469938,77.7670447 83.2392084,77.8914116 83.0994629,78.0310948 C83.0103793,78.1202407 82.9930666,78.317933 82.890892,78.4204545 C82.7961466,78.5148236 82.7453538,78.5832399 82.5061829,78.7077214 C82.3559647,79.1673334 82.2916229,78.7346887 82.0994157,78.8448519 C82.0497684,78.9279988 81.9065211,79.0429436 81.7514593,79.0429436 L80.2916266,79.0429436 C80.2680629,79.4502247 80.1726957,79.6666272 80.0343247,79.7678952 C79.8350157,80.0405134 79.631452,80.1206952 79.707052,80.5101498 C79.793452,80.4790588 79.8791975,80.4476374 79.9655975,80.4162225 C80.0353066,80.6780374 79.8913066,80.9136738 79.8019611,81.1463647 C80.2316702,81.2245828 81.2134884,81.0975978 81.5338884,81.4422225 C81.6270957,81.4859363 81.6538011,81.596165 81.6321684,81.7547221 L81.6321684,81.7547188 Z" id="ss"></path>
                                </g>
                            </g>
                        </g>
                    </g>
                </g>
            </g>
            <rect id="Rectangle" fill="#5596E6" fill-rule="nonzero" x="8" y="18" width="5.61760727" height="12.6396164"></rect>
            <rect id="Rectangle" fill="#5596E6" fill-rule="nonzero" x="25" y="18" width="5.61760727" height="12.6396164"></rect>
            <rect id="Rectangle" fill="#5596E6" fill-rule="nonzero" x="16" y="12.5" width="5.61999989" height="18.2572236"></rect>
            <rect id="Rectangle" fill="#5596E6" fill-rule="nonzero" x="32" y="51" width="5.61760727" height="25.2792327"></rect>
            <rect id="Rectangle" fill="#5596E6" fill-rule="nonzero" x="49" y="63.5" width="5.61999989" height="12.6396164"></rect>
            <rect id="Rectangle" fill="#5596E6" fill-rule="nonzero" x="41" y="58" width="5.61760727" height="18.2572236"></rect>
            <rect id="Rectangle" fill="#5596E6" fill-rule="nonzero" x="52" y="27" width="5.61760727" height="12.6396164"></rect>
            <rect id="Rectangle" fill="#5596E6" fill-rule="nonzero" x="69" y="23" width="5.61760727" height="16.8528218"></rect>
            <rect id="Rectangle" fill="#5596E6" fill-rule="nonzero" x="60" y="31.25" width="5.61999989" height="8.4264109"></rect>
        </g>
    </g>
</svg>