<?xml version="1.0" encoding="UTF-8"?>
<svg width="80px" height="80px" viewBox="0 0 80 80" version="1.1" xmlns="http://www.w3.org/2000/svg" xmlns:xlink="http://www.w3.org/1999/xlink">
    <!-- Generator: Sketch 50.2 (55047) - http://www.bohemiancoding.com/sketch -->
    <title>butterfly</title>
    <desc>Created with Sketch.</desc>
    <defs></defs>
    <g id="Page-1" stroke="none" stroke-width="1" fill="none" fill-rule="evenodd">
        <g id="butterfly" fill="#5596E6" fill-rule="nonzero">
            <rect id="Rectangle-path" transform="translate(19.376610, 35.107594) scale(-1, 1) rotate(-180.000000) translate(-19.376610, -35.107594) " x="0.356222639" y="30.6631493" width="38.0407755" height="8.88888889"></rect>
            <rect id="Rectangle-path" transform="translate(59.872420, 35.107594) scale(-1, 1) rotate(-180.000000) translate(-59.872420, -35.107594) " x="40.1010632" y="30.6631493" width="39.5427142" height="8.88888889"></rect>
            <rect id="Rectangle-path" transform="translate(22.004753, 25.012296) scale(-1, 1) rotate(-180.000000) translate(-22.004753, -25.012296) " x="5.61250804" y="20.5678516" width="32.7844903" height="8.88888889"></rect>
            <rect id="Rectangle-path" transform="translate(57.620513, 25.012296) scale(-1, 1) rotate(-180.000000) translate(-57.620513, -25.012296) " x="40.1010634" y="20.5678516" width="35.0388993" height="8.88888889"></rect>
            <rect id="Rectangle-path" transform="translate(22.630144, 14.916998) scale(-1, 1) rotate(-180.000000) translate(-22.630144, -14.916998) " x="6.86329003" y="10.4725539" width="31.5337086" height="8.88888889"></rect>
            <rect id="Rectangle-path" transform="translate(56.028018, 14.916998) scale(-1, 1) rotate(-180.000000) translate(-56.028018, -14.916998) " x="40.1010636" y="10.4725539" width="31.8539087" height="8.88888889"></rect>
            <rect id="Rectangle-path" transform="translate(24.132083, 4.821701) scale(-1, 1) rotate(-180.000000) translate(-24.132083, -4.821701) " x="9.86716718" y="0.377256183" width="28.5298312" height="8.88888889"></rect>
            <rect id="Rectangle-path" transform="translate(53.331833, 4.821701) scale(-1, 1) rotate(-180.000000) translate(-53.331833, -4.821701) " x="40.1010634" y="0.377256183" width="26.4615385" height="8.88888889"></rect>
            <rect id="Rectangle-path" transform="translate(27.009381, 45.202891) scale(-1, 1) rotate(-180.000000) translate(-27.009381, -45.202891) " x="15.6217633" y="40.758447" width="22.7752346" height="8.88888889"></rect>
            <rect id="Rectangle-path" transform="translate(52.842526, 45.202891) scale(-1, 1) rotate(-180.000000) translate(-52.842526, -45.202891) " x="40.1010628" y="40.758447" width="25.4829269" height="8.88888889"></rect>
            <rect id="Rectangle-path" transform="translate(28.011007, 55.298189) scale(-1, 1) rotate(-180.000000) translate(-28.011007, -55.298189) " x="17.6250158" y="50.8537447" width="20.7719825" height="8.88888889"></rect>
            <rect id="Rectangle-path" transform="translate(50.514572, 55.298189) scale(-1, 1) rotate(-180.000000) translate(-50.514572, -55.298189) " x="40.1010633" y="50.8537447" width="20.8270169" height="8.88888889"></rect>
            <rect id="Rectangle-path" transform="translate(31.014384, 65.393487) scale(-1, 1) rotate(-180.000000) translate(-31.014384, -65.393487) " x="23.6317695" y="60.9490424" width="14.7652283" height="8.88888889"></rect>
            <rect id="Rectangle-path" transform="translate(48.186616, 65.393487) scale(-1, 1) rotate(-180.000000) translate(-48.186616, -65.393487) " x="40.1010628" y="60.9490424" width="16.171107" height="8.88888889"></rect>
            <rect id="Rectangle-path" transform="translate(33.141713, 75.488785) scale(-1, 1) rotate(-180.000000) translate(-33.141713, -75.488785) " x="27.8864286" y="71.0443401" width="10.5105691" height="8.88888889"></rect>
            <rect id="Rectangle-path" transform="translate(45.859662, 75.488785) scale(-1, 1) rotate(-180.000000) translate(-45.859662, -75.488785) " x="40.1010628" y="71.0443401" width="11.5171983" height="8.88888889"></rect>
        </g>
    </g>
</svg>