<?xml version="1.0" encoding="UTF-8"?>
<svg width="80px" height="80px" viewBox="0 0 80 80" version="1.1" xmlns="http://www.w3.org/2000/svg" xmlns:xlink="http://www.w3.org/1999/xlink">
    <!-- Generator: Sketch 50.2 (55047) - http://www.bohemiancoding.com/sketch -->
    <title>cartogram</title>
    <desc>Created with Sketch.</desc>
    <defs>
        <rect id="path-1" x="0" y="0" width="80" height="80"></rect>
        <rect id="path-3" x="0" y="0" width="80" height="80"></rect>
        <rect id="path-5" x="0" y="0" width="80" height="80"></rect>
        <rect id="path-7" x="0" y="0" width="80" height="80"></rect>
        <rect id="path-9" x="0" y="0" width="80" height="80"></rect>
        <rect id="path-11" x="0" y="0" width="80" height="80"></rect>
        <rect id="path-13" x="0" y="0" width="80" height="80"></rect>
        <rect id="path-15" x="0" y="0" width="80" height="80"></rect>
        <rect id="path-17" x="0" y="0" width="80" height="80"></rect>
        <rect id="path-19" x="0" y="0" width="80" height="80"></rect>
        <rect id="path-21" x="0" y="0" width="80" height="80"></rect>
        <rect id="path-23" x="0" y="0" width="80" height="80"></rect>
        <rect id="path-25" x="0" y="0" width="80" height="80"></rect>
        <rect id="path-27" x="0" y="0" width="80" height="80"></rect>
        <rect id="path-29" x="0" y="0" width="80" height="80"></rect>
        <rect id="path-31" x="0" y="0" width="80" height="80"></rect>
        <rect id="path-33" x="0" y="0" width="80" height="80"></rect>
        <rect id="path-35" x="0" y="0" width="80" height="80"></rect>
        <rect id="path-37" x="0" y="0" width="80" height="80"></rect>
        <rect id="path-39" x="0" y="0" width="80" height="80"></rect>
        <rect id="path-41" x="0" y="0" width="80" height="80"></rect>
        <rect id="path-43" x="0" y="0" width="80" height="80"></rect>
        <rect id="path-45" x="0" y="0" width="80" height="80"></rect>
        <rect id="path-47" x="0" y="0" width="80" height="80"></rect>
        <rect id="path-49" x="0" y="0" width="80" height="80"></rect>
        <rect id="path-51" x="0" y="0" width="80" height="80"></rect>
        <rect id="path-53" x="0" y="0" width="80" height="80"></rect>
        <rect id="path-55" x="0" y="0" width="80" height="80"></rect>
        <rect id="path-57" x="0" y="0" width="80" height="80"></rect>
        <rect id="path-59" x="0" y="0" width="80" height="80"></rect>
        <rect id="path-61" x="0" y="0" width="80" height="80"></rect>
        <rect id="path-63" x="0" y="0" width="80" height="80"></rect>
        <rect id="path-65" x="0" y="0" width="80" height="80"></rect>
        <rect id="path-67" x="0" y="0" width="80" height="80"></rect>
        <rect id="path-69" x="0" y="0" width="80" height="80"></rect>
        <rect id="path-71" x="0" y="0" width="80" height="80"></rect>
        <rect id="path-73" x="0" y="0" width="80" height="80"></rect>
        <rect id="path-75" x="0" y="0" width="80" height="80"></rect>
        <rect id="path-77" x="0" y="0" width="80" height="80"></rect>
        <rect id="path-79" x="0" y="0" width="80" height="80"></rect>
        <rect id="path-81" x="0" y="0" width="80" height="80"></rect>
        <rect id="path-83" x="0" y="0" width="80" height="80"></rect>
        <rect id="path-85" x="0" y="0" width="80" height="80"></rect>
        <rect id="path-87" x="0" y="0" width="80" height="80"></rect>
        <rect id="path-89" x="0" y="0" width="80" height="80"></rect>
        <rect id="path-91" x="0" y="0" width="80" height="80"></rect>
    </defs>
    <g id="Page-1" stroke="none" stroke-width="1" fill="none" fill-rule="evenodd">
        <g id="cartogram">
            <g id="polygon14302-Clipped">
                <mask id="mask-2" fill="white">
                    <use xlink:href="#path-1"></use>
                </mask>
                <g id="path-1"></g>
                <polygon id="polygon14302" stroke="#FFFFFF" stroke-width="2" fill="#5596E6" fill-rule="nonzero" mask="url(#mask-2)" points="23.1263826 26.7256533 25.6828586 22.2976324 23.1263826 17.8696116 18.0134307 17.8696116 15.4569547 22.2976324 18.0134307 26.7256533"></polygon>
            </g>
            <g id="polygon14304-Clipped">
                <mask id="mask-4" fill="white">
                    <use xlink:href="#path-3"></use>
                </mask>
                <g id="path-1"></g>
                <polygon id="polygon14304" stroke="#FFFFFF" stroke-width="2" fill="#5596E6" fill-rule="nonzero" mask="url(#mask-4)" points="15.4569547 31.1536742 18.0134307 26.7256533 15.4569547 22.2976324 10.3440028 22.2976324 7.78752685 26.7256533 10.3440028 31.1536742"></polygon>
            </g>
            <g id="polygon14306-Clipped">
                <mask id="mask-6" fill="white">
                    <use xlink:href="#path-5"></use>
                </mask>
                <g id="path-1"></g>
                <polygon id="polygon14306" stroke="#FFFFFF" stroke-width="2" fill="#5596E6" fill-rule="nonzero" mask="url(#mask-6)" points="23.1263826 35.5816951 25.6828586 31.1536742 23.1263826 26.7256533 18.0134307 26.7256533 15.4569547 31.1536742 18.0134307 35.5816951"></polygon>
            </g>
            <g id="polygon14308-Clipped">
                <mask id="mask-8" fill="white">
                    <use xlink:href="#path-7"></use>
                </mask>
                <g id="path-1"></g>
                <polygon id="polygon14308" stroke="#FFFFFF" stroke-width="2" fill="#5596E6" fill-rule="nonzero" mask="url(#mask-8)" points="15.4569547 40.009716 18.0134307 35.5816951 15.4569547 31.1536742 10.3440028 31.1536742 7.78752685 35.5816951 10.3440028 40.009716"></polygon>
            </g>
            <g id="polygon14310-Clipped">
                <mask id="mask-10" fill="white">
                    <use xlink:href="#path-9"></use>
                </mask>
                <g id="path-1"></g>
                <polygon id="polygon14310" stroke="#FFFFFF" stroke-width="2" fill="#5596E6" fill-rule="nonzero" mask="url(#mask-10)" points="7.78752685 44.4377369 10.3440028 40.009716 7.78752685 35.5816951 2.67457493 35.5816951 0.118098964 40.009716 2.67457493 44.4377369"></polygon>
            </g>
            <g id="polygon14312-Clipped">
                <mask id="mask-12" fill="white">
                    <use xlink:href="#path-11"></use>
                </mask>
                <g id="path-1"></g>
                <polygon id="polygon14312" stroke="#FFFFFF" stroke-width="2" fill="#5596E6" fill-rule="nonzero" opacity="0.303515625" mask="url(#mask-12)" points="23.1263826 44.4377369 25.6828586 40.009716 23.1263826 35.5816951 18.0134307 35.5816951 15.4569547 40.009716 18.0134307 44.4377369"></polygon>
            </g>
            <g id="polygon14314-Clipped">
                <mask id="mask-14" fill="white">
                    <use xlink:href="#path-13"></use>
                </mask>
                <g id="path-1"></g>
                <polygon id="polygon14314" stroke="#FFFFFF" stroke-width="2" fill="#5596E6" fill-rule="nonzero" mask="url(#mask-14)" points="7.78752685 53.2937787 10.3440028 48.8657578 7.78752685 44.4377369 2.67457493 44.4377369 0.118098964 48.8657578 2.67457493 53.2937787"></polygon>
            </g>
            <g id="polygon14318-Clipped">
                <mask id="mask-16" fill="white">
                    <use xlink:href="#path-15"></use>
                </mask>
                <g id="path-1"></g>
                <polygon id="polygon14318" stroke="#FFFFFF" stroke-width="2" fill="#5596E6" fill-rule="nonzero" opacity="0.308258929" mask="url(#mask-16)" points="15.4569547 66.5778413 18.0134307 62.1498204 15.4569547 57.7217995 10.3440028 57.7217995 7.78752685 62.1498204 10.3440028 66.5778413"></polygon>
            </g>
            <g id="polygon14330-Clipped">
                <mask id="mask-18" fill="white">
                    <use xlink:href="#path-17"></use>
                </mask>
                <g id="path-1"></g>
                <polygon id="polygon14330" stroke="#FFFFFF" stroke-width="2" fill="#5596E6" fill-rule="nonzero" mask="url(#mask-18)" points="38.4652384 9.01356978 41.0217144 4.58554889 38.4652384 0.157528004 33.3522865 0.157528004 30.7958105 4.58554889 33.3522865 9.01356978"></polygon>
            </g>
            <g id="polygon14332-Clipped">
                <mask id="mask-20" fill="white">
                    <use xlink:href="#path-19"></use>
                </mask>
                <g id="path-1"></g>
                <polygon id="polygon14332" stroke="#FFFFFF" stroke-width="2" fill="#5596E6" fill-rule="nonzero" mask="url(#mask-20)" points="30.7958105 31.1536742 33.3522865 26.7256533 30.7958105 22.2976324 25.6828586 22.2976324 23.1263826 26.7256533 25.6828586 31.1536742"></polygon>
            </g>
            <g id="polygon14336-Clipped">
                <mask id="mask-22" fill="white">
                    <use xlink:href="#path-21"></use>
                </mask>
                <g id="path-1"></g>
                <polygon id="polygon14336" stroke="#FFFFFF" stroke-width="2" fill="#5596E6" fill-rule="nonzero" opacity="0.747600446" mask="url(#mask-22)" points="38.4652384 35.5816951 41.0217144 31.1536742 38.4652384 26.7256533 33.3522865 26.7256533 30.7958105 31.1536742 33.3522865 35.5816951"></polygon>
            </g>
            <g id="polygon14338-Clipped">
                <mask id="mask-24" fill="white">
                    <use xlink:href="#path-23"></use>
                </mask>
                <g id="path-1"></g>
                <polygon id="polygon14338" stroke="#FFFFFF" stroke-width="2" fill="#5596E6" fill-rule="nonzero" opacity="0.747600446" mask="url(#mask-24)" points="30.7958105 40.009716 33.3522865 35.5816951 30.7958105 31.1536742 25.6828586 31.1536742 23.1263826 35.5816951 25.6828586 40.009716"></polygon>
            </g>
            <g id="polygon14340-Clipped">
                <mask id="mask-26" fill="white">
                    <use xlink:href="#path-25"></use>
                </mask>
                <g id="path-1"></g>
                <polygon id="polygon14340" stroke="#FFFFFF" stroke-width="2" fill="#5596E6" fill-rule="nonzero" opacity="0.747600446" mask="url(#mask-26)" points="38.4652384 44.4377369 41.0217144 40.009716 38.4652384 35.5816951 33.3522865 35.5816951 30.7958105 40.009716 33.3522865 44.4377369"></polygon>
            </g>
            <g id="polygon14342-Clipped">
                <mask id="mask-28" fill="white">
                    <use xlink:href="#path-27"></use>
                </mask>
                <g id="path-1"></g>
                <polygon id="polygon14342" stroke="#FFFFFF" stroke-width="2" fill="#5596E6" fill-rule="nonzero" opacity="0.308258929" mask="url(#mask-28)" points="30.7958105 48.8657578 33.3522865 44.4377369 30.7958105 40.009716 25.6828586 40.009716 23.1263826 44.4377369 25.6828586 48.8657578"></polygon>
            </g>
            <g id="polygon14344-Clipped">
                <mask id="mask-30" fill="white">
                    <use xlink:href="#path-29"></use>
                </mask>
                <g id="path-1"></g>
                <polygon id="polygon14344" stroke="#FFFFFF" stroke-width="2" fill="#5596E6" fill-rule="nonzero" opacity="0.308258929" mask="url(#mask-30)" points="23.1263826 53.2937787 25.6828586 48.8657578 23.1263826 44.4377369 18.0134307 44.4377369 15.4569547 48.8657578 18.0134307 53.2937787"></polygon>
            </g>
            <g id="polygon14348-Clipped">
                <mask id="mask-32" fill="white">
                    <use xlink:href="#path-31"></use>
                </mask>
                <g id="path-1"></g>
                <polygon id="polygon14348" stroke="#FFFFFF" stroke-width="2" fill="#5596E6" fill-rule="nonzero" opacity="0.308258929" mask="url(#mask-32)" points="23.1263826 71.0058622 25.6828586 66.5778413 23.1263826 62.1498204 18.0134307 62.1498204 15.4569547 66.5778413 18.0134307 71.0058622"></polygon>
            </g>
            <g id="polygon14354-Clipped">
                <mask id="mask-34" fill="white">
                    <use xlink:href="#path-33"></use>
                </mask>
                <g id="path-1"></g>
                <polygon id="polygon14354" stroke="#FFFFFF" stroke-width="2" fill="#5596E6" fill-rule="nonzero" opacity="0.308258929" mask="url(#mask-34)" points="30.7958105 66.5778413 33.3522865 62.1498204 30.7958105 57.7217995 25.6828586 57.7217995 23.1263826 62.1498204 25.6828586 66.5778413"></polygon>
            </g>
            <g id="polygon14358-Clipped">
                <mask id="mask-36" fill="white">
                    <use xlink:href="#path-35"></use>
                </mask>
                <g id="path-1"></g>
                <polygon id="polygon14358" stroke="#FFFFFF" stroke-width="2" fill="#5596E6" fill-rule="nonzero" opacity="0.308258929" mask="url(#mask-36)" points="23.1263826 79.861904 25.6828586 75.4338831 23.1263826 71.0058622 18.0134307 71.0058622 15.4569547 75.4338831 18.0134307 79.861904"></polygon>
            </g>
            <g id="polygon14382-Clipped">
                <mask id="mask-38" fill="white">
                    <use xlink:href="#path-37"></use>
                </mask>
                <g id="path-1"></g>
                <polygon id="polygon14382" stroke="#FFFFFF" stroke-width="2" fill="#5596E6" fill-rule="nonzero" mask="url(#mask-38)" points="15.4569547 48.8657578 18.0134307 44.4377369 15.4569547 40.009716 10.3440028 40.009716 7.78752685 44.4377369 10.3440028 48.8657578"></polygon>
            </g>
            <g id="polygon14384-Clipped">
                <mask id="mask-40" fill="white">
                    <use xlink:href="#path-39"></use>
                </mask>
                <g id="path-1"></g>
                <polygon id="polygon14384" stroke="#FFFFFF" stroke-width="2" fill="#5596E6" fill-rule="nonzero" mask="url(#mask-40)" points="23.1263826 17.8696116 25.6828586 13.4415907 23.1263826 9.01356978 18.0134307 9.01356978 15.4569547 13.4415907 18.0134307 17.8696116"></polygon>
            </g>
            <g id="polygon14388-Clipped">
                <mask id="mask-42" fill="white">
                    <use xlink:href="#path-41"></use>
                </mask>
                <g id="path-1"></g>
                <polygon id="polygon14388" stroke="#FFFFFF" stroke-width="2" fill="#5596E6" fill-rule="nonzero" opacity="0.308258929" mask="url(#mask-42)" points="15.4569547 57.7217995 18.0134307 53.2937787 15.4569547 48.8657578 10.3440028 48.8657578 7.78752685 53.2937787 10.3440028 57.7217995"></polygon>
            </g>
            <g id="polygon14390-Clipped">
                <mask id="mask-44" fill="white">
                    <use xlink:href="#path-43"></use>
                </mask>
                <g id="path-1"></g>
                <polygon id="polygon14390" stroke="#FFFFFF" stroke-width="2" fill="#5596E6" fill-rule="nonzero" opacity="0.308258929" mask="url(#mask-44)" points="30.7920753 48.8130349 33.3504129 53.1381155 38.467088 53.1381155 41.0254256 48.8130349 38.467088 44.4879542 33.3504129 44.4879542"></polygon>
            </g>
            <g id="polygon14392-Clipped">
                <mask id="mask-46" fill="white">
                    <use xlink:href="#path-45"></use>
                </mask>
                <g id="path-1"></g>
                <polygon id="polygon14392" stroke="#FFFFFF" stroke-width="2" fill="#5596E6" fill-rule="nonzero" mask="url(#mask-46)" points="46.1346663 13.4415907 48.6911423 9.01356978 46.1346663 4.58554889 41.0217144 4.58554889 38.4652384 9.01356978 41.0217144 13.4415907"></polygon>
            </g>
            <g id="polygon14394-Clipped">
                <mask id="mask-48" fill="white">
                    <use xlink:href="#path-47"></use>
                </mask>
                <g id="path-1"></g>
                <polygon id="polygon14394" stroke="#FFFFFF" stroke-width="2" fill="#5596E6" fill-rule="nonzero" mask="url(#mask-48)" points="38.4652384 17.8696116 41.0217144 13.4415907 38.4652384 9.01356978 33.3522865 9.01356978 30.7958105 13.4415907 33.3522865 17.8696116"></polygon>
            </g>
            <g id="polygon14396-Clipped">
                <mask id="mask-50" fill="white">
                    <use xlink:href="#path-49"></use>
                </mask>
                <g id="path-1"></g>
                <polygon id="polygon14396" stroke="#FFFFFF" stroke-width="2" fill="#5596E6" fill-rule="nonzero" mask="url(#mask-50)" points="30.7958105 22.2976324 33.3522865 17.8696116 30.7958105 13.4415907 25.6828586 13.4415907 23.1263826 17.8696116 25.6828586 22.2976324"></polygon>
            </g>
            <g id="polygon14398-Clipped">
                <mask id="mask-52" fill="white">
                    <use xlink:href="#path-51"></use>
                </mask>
                <g id="path-1"></g>
                <polygon id="polygon14398" stroke="#FFFFFF" stroke-width="2" fill="#5596E6" fill-rule="nonzero" mask="url(#mask-52)" points="46.1346663 22.2976324 48.6911423 17.8696116 46.1346663 13.4415907 41.0217144 13.4415907 38.4652384 17.8696116 41.0217144 22.2976324"></polygon>
            </g>
            <g id="polygon14400-Clipped">
                <mask id="mask-54" fill="white">
                    <use xlink:href="#path-53"></use>
                </mask>
                <g id="path-1"></g>
                <polygon id="polygon14400" stroke="#FFFFFF" stroke-width="2" fill="#5596E6" fill-rule="nonzero" mask="url(#mask-54)" points="38.4652384 26.7256533 41.0217144 22.2976324 38.4652384 17.8696116 33.3522865 17.8696116 30.7958105 22.2976324 33.3522865 26.7256533"></polygon>
            </g>
            <g id="polygon14402-Clipped">
                <mask id="mask-56" fill="white">
                    <use xlink:href="#path-55"></use>
                </mask>
                <g id="path-1"></g>
                <polygon id="polygon14402" stroke="#FFFFFF" stroke-width="2" fill="#5596E6" fill-rule="nonzero" mask="url(#mask-56)" points="30.7958105 13.4415907 33.3522865 9.01356978 30.7958105 4.58554889 25.6828586 4.58554889 23.1263826 9.01356978 25.6828586 13.4415907"></polygon>
            </g>
            <g id="polygon14404-Clipped">
                <mask id="mask-58" fill="white">
                    <use xlink:href="#path-57"></use>
                </mask>
                <g id="path-1"></g>
                <polygon id="polygon14404" stroke="#FFFFFF" stroke-width="2" fill="#5596E6" fill-rule="nonzero" opacity="0.308258929" mask="url(#mask-58)" points="30.7958105 57.7217995 33.3522865 53.2937787 30.7958105 48.8657578 25.6828586 48.8657578 23.1263826 53.2937787 25.6828586 57.7217995"></polygon>
            </g>
            <g id="polygon14406-Clipped">
                <mask id="mask-60" fill="white">
                    <use xlink:href="#path-59"></use>
                </mask>
                <g id="path-1"></g>
                <polygon id="polygon14406" stroke="#FFFFFF" stroke-width="2" fill="#5596E6" fill-rule="nonzero" opacity="0.299944196" mask="url(#mask-60)" points="23.1263826 62.1498204 25.6828586 57.7217995 23.1263826 53.2937787 18.0134307 53.2937787 15.4569547 57.7217995 18.0134307 62.1498204"></polygon>
            </g>
            <g id="polygon14306-Clipped">
                <mask id="mask-62" fill="white">
                    <use xlink:href="#path-61"></use>
                </mask>
                <g id="path-1"></g>
                <polygon id="polygon14306" stroke="#FFFFFF" stroke-width="2" fill="#5596E6" fill-rule="nonzero" mask="url(#mask-62)" points="62.1263826 30.5816951 64.6828586 26.1536742 62.1263826 21.7256533 57.0134307 21.7256533 54.4569547 26.1536742 57.0134307 30.5816951"></polygon>
            </g>
            <g id="polygon14308-Clipped">
                <mask id="mask-64" fill="white">
                    <use xlink:href="#path-63"></use>
                </mask>
                <g id="path-1"></g>
                <polygon id="polygon14308" stroke="#FFFFFF" stroke-width="2" fill="#5596E6" fill-rule="nonzero" opacity="0.746149554" mask="url(#mask-64)" points="54.4569547 35.009716 57.0134307 30.5816951 54.4569547 26.1536742 49.3440028 26.1536742 46.7875269 30.5816951 49.3440028 35.009716"></polygon>
            </g>
            <g id="polygon14310-Clipped">
                <mask id="mask-66" fill="white">
                    <use xlink:href="#path-65"></use>
                </mask>
                <g id="path-1"></g>
                <polygon id="polygon14310" stroke="#FFFFFF" stroke-width="2" fill="#5596E6" fill-rule="nonzero" opacity="0.746149554" mask="url(#mask-66)" points="46.7875269 39.4377369 49.3440028 35.009716 46.7875269 30.5816951 41.6745749 30.5816951 39.118099 35.009716 41.6745749 39.4377369"></polygon>
            </g>
            <g id="polygon14312-Clipped">
                <mask id="mask-68" fill="white">
                    <use xlink:href="#path-67"></use>
                </mask>
                <g id="path-1"></g>
                <polygon id="polygon14312" stroke="#FFFFFF" stroke-width="2" fill="#5596E6" fill-rule="nonzero" opacity="0.303515625" mask="url(#mask-68)" points="62.1263826 39.4377369 64.6828586 35.009716 62.1263826 30.5816951 57.0134307 30.5816951 54.4569547 35.009716 57.0134307 39.4377369"></polygon>
            </g>
            <g id="polygon14314-Clipped">
                <mask id="mask-70" fill="white">
                    <use xlink:href="#path-69"></use>
                </mask>
                <g id="path-1"></g>
                <polygon id="polygon14314" stroke="#FFFFFF" stroke-width="2" fill="#5596E6" fill-rule="nonzero" opacity="0.746149554" mask="url(#mask-70)" points="46.7875269 48.2937787 49.3440028 43.8657578 46.7875269 39.4377369 41.6745749 39.4377369 39.118099 43.8657578 41.6745749 48.2937787"></polygon>
            </g>
            <g id="polygon14332-Clipped">
                <mask id="mask-72" fill="white">
                    <use xlink:href="#path-71"></use>
                </mask>
                <g id="path-1"></g>
                <polygon id="polygon14332" stroke="#FFFFFF" stroke-width="2" fill="#5596E6" fill-rule="nonzero" mask="url(#mask-72)" points="69.7958105 26.1536742 72.3522865 21.7256533 69.7958105 17.2976324 64.6828586 17.2976324 62.1263826 21.7256533 64.6828586 26.1536742"></polygon>
            </g>
            <g id="polygon14338-Clipped">
                <mask id="mask-74" fill="white">
                    <use xlink:href="#path-73"></use>
                </mask>
                <g id="path-1"></g>
                <polygon id="polygon14338" stroke="#FFFFFF" stroke-width="2" fill="#5596E6" fill-rule="nonzero" mask="url(#mask-74)" points="69.7958105 35.009716 72.3522865 30.5816951 69.7958105 26.1536742 64.6828586 26.1536742 62.1263826 30.5816951 64.6828586 35.009716"></polygon>
            </g>
            <g id="polygon14340-Clipped">
                <mask id="mask-76" fill="white">
                    <use xlink:href="#path-75"></use>
                </mask>
                <g id="path-1"></g>
                <polygon id="polygon14340" stroke="#FFFFFF" stroke-width="2" fill="#5596E6" fill-rule="nonzero" mask="url(#mask-76)" points="77.4652384 39.4377369 80.0217144 35.009716 77.4652384 30.5816951 72.3522865 30.5816951 69.7958105 35.009716 72.3522865 39.4377369"></polygon>
            </g>
            <g id="polygon14342-Clipped">
                <mask id="mask-78" fill="white">
                    <use xlink:href="#path-77"></use>
                </mask>
                <g id="path-1"></g>
                <polygon id="polygon14342" stroke="#FFFFFF" stroke-width="2" fill="#5596E6" fill-rule="nonzero" opacity="0.308258929" mask="url(#mask-78)" points="69.7958105 43.8657578 72.3522865 39.4377369 69.7958105 35.009716 64.6828586 35.009716 62.1263826 39.4377369 64.6828586 43.8657578"></polygon>
            </g>
            <g id="polygon14344-Clipped">
                <mask id="mask-80" fill="white">
                    <use xlink:href="#path-79"></use>
                </mask>
                <g id="path-1"></g>
                <polygon id="polygon14344" stroke="#FFFFFF" stroke-width="2" fill="#5596E6" fill-rule="nonzero" opacity="0.308258929" mask="url(#mask-80)" points="62.1263826 48.2937787 64.6828586 43.8657578 62.1263826 39.4377369 57.0134307 39.4377369 54.4569547 43.8657578 57.0134307 48.2937787"></polygon>
            </g>
            <g id="polygon14382-Clipped">
                <mask id="mask-82" fill="white">
                    <use xlink:href="#path-81"></use>
                </mask>
                <g id="path-1"></g>
                <polygon id="polygon14382" stroke="#FFFFFF" stroke-width="2" fill="#5596E6" fill-rule="nonzero" opacity="0.746149554" mask="url(#mask-82)" points="54.4569547 43.8657578 57.0134307 39.4377369 54.4569547 35.009716 49.3440028 35.009716 46.7875269 39.4377369 49.3440028 43.8657578"></polygon>
            </g>
            <g id="polygon14388-Clipped">
                <mask id="mask-84" fill="white">
                    <use xlink:href="#path-83"></use>
                </mask>
                <g id="path-1"></g>
                <polygon id="polygon14388" stroke="#FFFFFF" stroke-width="2" fill="#5596E6" fill-rule="nonzero" opacity="0.308258929" mask="url(#mask-84)" points="54.4569547 52.7217995 57.0134307 48.2937787 54.4569547 43.8657578 49.3440028 43.8657578 46.7875269 48.2937787 49.3440028 52.7217995"></polygon>
            </g>
            <g id="polygon14394-Clipped">
                <mask id="mask-86" fill="white">
                    <use xlink:href="#path-85"></use>
                </mask>
                <g id="path-1"></g>
                <polygon id="polygon14394" stroke="#FFFFFF" stroke-width="2" fill="#5596E6" fill-rule="nonzero" mask="url(#mask-86)" points="77.4652384 12.8696116 80.0217144 8.44159067 77.4652384 4.01356978 72.3522865 4.01356978 69.7958105 8.44159067 72.3522865 12.8696116"></polygon>
            </g>
            <g id="polygon14396-Clipped">
                <mask id="mask-88" fill="white">
                    <use xlink:href="#path-87"></use>
                </mask>
                <g id="path-1"></g>
                <polygon id="polygon14396" stroke="#FFFFFF" stroke-width="2" fill="#5596E6" fill-rule="nonzero" mask="url(#mask-88)" points="69.7958105 17.2976324 72.3522865 12.8696116 69.7958105 8.44159067 64.6828586 8.44159067 62.1263826 12.8696116 64.6828586 17.2976324"></polygon>
            </g>
            <g id="polygon14400-Clipped">
                <mask id="mask-90" fill="white">
                    <use xlink:href="#path-89"></use>
                </mask>
                <g id="path-1"></g>
                <polygon id="polygon14400" stroke="#FFFFFF" stroke-width="2" fill="#5596E6" fill-rule="nonzero" mask="url(#mask-90)" points="77.4652384 21.7256533 80.0217144 17.2976324 77.4652384 12.8696116 72.3522865 12.8696116 69.7958105 17.2976324 72.3522865 21.7256533"></polygon>
            </g>
            <g id="polygon14404-Clipped">
                <mask id="mask-92" fill="white">
                    <use xlink:href="#path-91"></use>
                </mask>
                <g id="path-1"></g>
                <polygon id="polygon14404" stroke="#FFFFFF" stroke-width="2" fill="#5596E6" fill-rule="nonzero" opacity="0.308258929" mask="url(#mask-92)" points="69.7958105 52.7217995 72.3522865 48.2937787 69.7958105 43.8657578 64.6828586 43.8657578 62.1263826 48.2937787 64.6828586 52.7217995"></polygon>
            </g>
        </g>
    </g>
</svg>