<?xml version="1.0" encoding="UTF-8"?>
<svg width="80px" height="80px" viewBox="0 0 80 80" version="1.1" xmlns="http://www.w3.org/2000/svg" xmlns:xlink="http://www.w3.org/1999/xlink">
    <!-- Generator: Sketch 50.2 (55047) - http://www.bohemiancoding.com/sketch -->
    <title>chord</title>
    <desc>Created with Sketch.</desc>
    <defs></defs>
    <g id="Page-1" stroke="none" stroke-width="1" fill="none" fill-rule="evenodd">
        <g id="chord">
            <path d="M73.0576522,18.3774959 C72.4908831,17.4143268 67.5573999,12.5528836 66.557524,10.8462877 C66.1668989,11.2529134 65.7742014,11.6934246 65.3991185,12.2160825 C55.9692007,25.2681528 31.2100105,33.9707347 14.8503828,10.3350998 C14.4721914,9.79190534 9.41021202,15.7658431 8.07980719,16.6756168 C8.11607211,16.8060246 3.65793579,24.806759 4.14699428,25.076816 C23.9030917,36.001289 63.1251555,34.5868417 77.1275628,28.5429045 C77.3265018,28.4566506 73.0576522,18.3836568 73.0576522,18.3774959 Z" id="Shape" fill="#5596E6" fill-rule="nonzero" opacity="0.5"></path>
            <path d="M39.0551897,0.997805256 C40.4810913,22.6819078 27.4219216,42.2676923 1.00005218,43.7764103 L1.34146994,36.7812215 L2.20502433,30.0707692 C29.4286544,39.5601615 33.1788644,26.9360925 35.7176953,6.0358031 C35.8957404,4.57009136 36.0678279,3.0636768 36.2416359,1.52133184 L39.0551897,0.997805256 Z" id="Shape" fill="#5596E6" fill-rule="nonzero" opacity="0.3"></path>
            <path d="M64.6153846,70.1569719 C48.4668915,53.5950966 34.6950973,10.0044179 35.9413308,1.30292811 L34.5393716,1.39660617 L33.2733794,1.77827739 C32.1657313,4.26589192 38.4883036,59.6745356 51.6080172,76.9230769 L59.0802467,74.438559 L64.6153846,70.1569719 Z" id="Shape" fill="#5596E6" fill-rule="nonzero" opacity="0.75"></path>
            <path d="M30.4109806,2.99123395 C35.8506437,21.3749688 45.9641816,41.4462011 78.2096403,49.2307692 L78.974359,42.2894242 C54.7407989,42.7572973 36.7094815,25.9695882 32.3190338,2.05128205 L29.7435897,2.05128205 L30.4109806,2.99123395 Z" id="Shape" fill="#5596E6" fill-rule="nonzero" opacity="0.6"></path>
            <path d="M75.8974359,54.5753846 C42.990929,38.014359 4.1025641,54.2984615 4.1025641,54.2984615 L6.15869679,60.9774359 L9.99220005,64.4584615 C9.99220005,64.4584615 22.7062682,34.0820513 72.2546646,61.8030769 L75.8974359,54.5753846 Z" id="Shape" fill="#5596E6" fill-rule="nonzero" opacity="0.5"></path>
            <circle id="Oval" stroke="#5596E6" cx="40" cy="40" r="39.1815385"></circle>
        </g>
    </g>
</svg>