<?xml version="1.0" encoding="UTF-8"?>
<svg width="80px" height="80px" viewBox="0 0 80 80" version="1.1" xmlns="http://www.w3.org/2000/svg" xmlns:xlink="http://www.w3.org/1999/xlink">
    <!-- Generator: Sketch 50.2 (55047) - http://www.bohemiancoding.com/sketch -->
    <title>circular-bar</title>
    <desc>Created with Sketch.</desc>
    <defs></defs>
    <g id="Page-1" stroke="none" stroke-width="1" fill="none" fill-rule="evenodd">
        <g id="circular-bar" transform="translate(3.000000, 3.000000)" stroke="#5596E6" stroke-width="6">
            <path d="M25.8610659,51.9592397 C28.9420152,54.2936249 32.7820261,55.6786081 36.9455172,55.6786081 C47.0918612,55.6786081 55.3170981,47.4533712 55.3170981,37.3070272 C55.3170981,27.1606832 47.0918612,18.9354463 36.9455172,18.9354463" id="Oval"></path>
            <path d="M11.6393246,48.2337228 C15.8696252,58.0178411 25.6080216,64.8643986 36.9455172,64.8643986 C52.1650331,64.8643986 64.5028885,52.5265431 64.5028885,37.3070272 C64.5028885,22.0875112 52.1650331,9.74965581 36.9455172,9.74965581" id="Oval"></path>
            <path d="M43.1283421,44.100596 C44.9733405,42.4204881 46.1313076,39.9989865 46.1313076,37.3070272 C46.1313076,32.2338552 42.0186892,28.1212367 36.9455172,28.1212367" id="Oval"></path>
            <path d="M0,37 C0,57.4345357 16.5654642,74 37,74 C57.4345357,74 74,57.4345357 74,37 C74,16.5654642 57.4345357,0 37,0" id="Oval"></path>
        </g>
    </g>
</svg>