<?xml version="1.0" encoding="UTF-8"?>
<svg width="80px" height="80px" viewBox="0 0 80 80" version="1.1" xmlns="http://www.w3.org/2000/svg" xmlns:xlink="http://www.w3.org/1999/xlink">
    <!-- Generator: Sketch 50.2 (55047) - http://www.bohemiancoding.com/sketch -->
    <title>range-area</title>
    <desc>Created with Sketch.</desc>
    <defs></defs>
    <g id="Page-1" stroke="none" stroke-width="1" fill="none" fill-rule="evenodd">
        <g id="range-area" fill="#5596E6">
            <g id="Group-5" opacity="0.501283482" transform="translate(36.000000, 0.000000)">
                <rect id="Rectangle-2" transform="translate(3.602000, 9.585308) rotate(3.000000) translate(-3.602000, -9.585308) " x="0.913218151" y="0.990936174" width="5.37756438" height="17.1887439"></rect>
                <rect id="Rectangle-2" transform="translate(21.370361, 19.471892) rotate(41.000000) translate(-21.370361, -19.471892) " x="18.681579" y="13.9816956" width="5.37756438" height="10.9803922"></rect>
                <rect id="Rectangle-2" transform="translate(9.868240, 13.617401) rotate(15.000000) translate(-9.868240, -13.617401) " x="7.17945765" y="8.12720494" width="5.37756438" height="10.9803922"></rect>
                <rect id="Rectangle-2" transform="translate(27.144496, 30.603172) scale(-1, 1) rotate(115.000000) translate(-27.144496, -30.603172) " x="24.4557141" y="27.2667549" width="5.37756438" height="6.67283367"></rect>
                <rect id="Rectangle-2" transform="translate(17.317548, 13.670964) rotate(29.000000) translate(-17.317548, -13.670964) " x="14.6287659" y="5.59705924" width="5.37756438" height="16.1478096"></rect>
                <rect id="Rectangle-2" transform="translate(28.295373, 22.314313) scale(-1, 1) rotate(127.000000) translate(-28.295373, -22.314313) " x="25.6065909" y="13.8482517" width="5.37756438" height="16.9321233"></rect>
                <rect id="Rectangle-2" transform="translate(31.230459, 35.968777) rotate(-100.000000) translate(-31.230459, -35.968777) " x="28.541677" y="30.4785812" width="5.37756438" height="10.9803922"></rect>
                <rect id="Rectangle-2" transform="translate(29.885691, 42.050320) rotate(88.000000) translate(-29.885691, -42.050320) " x="27.1969084" y="38.5858691" width="5.37756438" height="6.92890091"></rect>
            </g>
            <g id="Group-3" opacity="0.295200893" transform="translate(18.000000, 20.000000)">
                <rect id="Rectangle-2" x="17.443038" y="0.740740741" width="5.37756438" height="14.1176471"></rect>
                <rect id="Rectangle-2" transform="translate(28.168861, 12.471153) rotate(40.000000) translate(-28.168861, -12.471153) " x="25.4800785" y="6.98095659" width="5.37756438" height="10.9803922"></rect>
                <rect id="Rectangle-2" transform="translate(26.816179, 33.960334) scale(-1, 1) rotate(41.000000) translate(-26.816179, -33.960334) " x="24.1273972" y="28.6394808" width="5.37756438" height="10.6417063"></rect>
                <rect id="Rectangle-2" transform="translate(35.006797, 19.431687) rotate(79.000000) translate(-35.006797, -19.431687) " x="32.3180151" y="11.3577824" width="5.37756438" height="16.1478096"></rect>
                <rect id="Rectangle-2" transform="translate(29.363897, 27.229372) scale(-1, 1) rotate(66.000000) translate(-29.363897, -27.229372) " x="26.6751145" y="23.8425879" width="5.37756438" height="6.77356825"></rect>
                <rect id="Rectangle-2" transform="translate(19.830570, 37.548310) rotate(-11.000000) translate(-19.830570, -37.548310) " x="17.1417881" y="32.0581142" width="5.37756438" height="10.9803922"></rect>
                <rect id="Rectangle-2" transform="translate(12.651115, 39.606198) rotate(5.000000) translate(-12.651115, -39.606198) " x="9.96233265" y="32.5473746" width="5.37756438" height="14.1176471"></rect>
                <rect id="Rectangle-2" transform="translate(5.350211, 35.616001) rotate(32.000000) translate(-5.350211, -35.616001) " x="2.6614291" y="30.1258051" width="5.37756438" height="10.9803922"></rect>
            </g>
            <g id="Group-6" transform="translate(31.000000, 44.000000)">
                <rect id="Rectangle-2" transform="translate(30.736728, 16.587395) rotate(-52.000000) translate(-30.736728, -16.587395) " x="28.0479453" y="11.224419" width="5.37756438" height="10.725952"></rect>
                <rect id="Rectangle-2" transform="translate(28.358809, 23.128902) rotate(137.000000) translate(-28.358809, -23.128902) " x="25.6700268" y="15.3058704" width="5.37756438" height="15.6460626"></rect>
                <rect id="Rectangle-2" transform="translate(22.303440, 26.391632) rotate(148.000000) translate(-22.303440, -26.391632) " x="19.6146577" y="19.8335465" width="5.37756438" height="13.1161703"></rect>
                <rect id="Rectangle-2" transform="translate(14.810372, 25.506415) rotate(-22.000000) translate(-14.810372, -25.506415) " x="12.1215898" y="23.1907902" width="5.37756438" height="4.63124994"></rect>
                <rect id="Rectangle-2" transform="translate(9.509858, 30.034245) rotate(-10.000000) translate(-9.509858, -30.034245) " x="6.82107554" y="24.9608669" width="5.37756438" height="10.146757"></rect>
                <rect id="Rectangle-2" x="0.498163112" y="25.7536196" width="5.37756438" height="6.29576315"></rect>
                <rect id="Rectangle-2" transform="translate(39.464472, 5.071672) scale(-1, 1) rotate(79.000000) translate(-39.464472, -5.071672) " x="36.7756898" y="-3.67497664" width="5.37756438" height="17.4932972"></rect>
                <rect id="Rectangle-2" transform="translate(35.290747, 11.411762) scale(-1, 1) rotate(64.000000) translate(-35.290747, -11.411762) " x="32.6019649" y="4.7873809" width="5.37756438" height="13.2487632"></rect>
            </g>
            <g id="Group-4" opacity="0.752511161" transform="translate(0.000000, 3.000000)">
                <rect id="Rectangle-2" transform="translate(14.018995, 41.966089) rotate(69.000000) translate(-14.018995, -41.966089) " x="11.3302131" y="36.4758925" width="5.37756438" height="10.9803922"></rect>
                <rect id="Rectangle-2" transform="translate(19.284906, 15.113354) scale(-1, 1) rotate(43.000000) translate(-19.284906, -15.113354) " x="16.5961243" y="7.71868519" width="5.37756438" height="14.7893384"></rect>
                <rect id="Rectangle-2" transform="translate(26.359767, 12.458627) rotate(153.000000) translate(-26.359767, -12.458627) " x="23.6709845" y="6.96843118" width="5.37756438" height="10.9803922"></rect>
                <rect id="Rectangle-2" transform="translate(32.377940, 8.364743) scale(-1, 1) rotate(12.000000) translate(-32.377940, -8.364743) " x="29.6891577" y="0.970073976" width="5.37756438" height="14.7893384"></rect>
                <rect id="Rectangle-2" transform="translate(13.165916, 28.188295) scale(-1, 1) rotate(74.000000) translate(-13.165916, -28.188295) " x="10.4771333" y="22.5442543" width="5.37756438" height="11.2880822"></rect>
                <rect id="Rectangle-2" transform="translate(9.469955, 34.753466) rotate(91.000000) translate(-9.469955, -34.753466) " x="6.78117278" y="26.289104" width="5.37756438" height="16.9287247"></rect>
                <rect id="Rectangle-2" transform="translate(14.192548, 50.670292) rotate(52.000000) translate(-14.192548, -50.670292) " x="11.5037661" y="40.8457596" width="5.37756438" height="19.6490658"></rect>
                <rect id="Rectangle-2" transform="translate(15.335038, 21.175518) scale(-1, 1) rotate(57.000000) translate(-15.335038, -21.175518) " x="12.6462554" y="14.852241" width="5.37756438" height="12.6465535"></rect>
            </g>
        </g>
    </g>
</svg>