<?xml version="1.0" encoding="UTF-8"?>
<svg width="80px" height="81px" viewBox="0 0 80 81" version="1.1" xmlns="http://www.w3.org/2000/svg" xmlns:xlink="http://www.w3.org/1999/xlink">
    <!-- Generator: Sketch 50.2 (55047) - http://www.bohemiancoding.com/sketch -->
    <title>bubble-chart</title>
    <desc>Created with Sketch.</desc>
    <defs></defs>
    <g id="Page-1" stroke="none" stroke-width="1" fill="none" fill-rule="evenodd">
        <g id="bubble-chart" stroke="#5596E6">
            <polyline id="Shape" stroke-linecap="round" points="0.885063291 0 0.885063291 79.8430769 80.0040479 79.8430769"></polyline>
            <path d="M1.51898734,38.4615385 C11.0603138,26.8875685 19.511817,20.8436379 26.873497,20.3297468 C34.235177,19.8158557 51.4531857,28.6676302 78.5275231,46.8850704" id="Line" stroke-linecap="square"></path>
            <path d="M38.9873418,67.6923077 C51.0117692,67.6923077 66.9940012,63.039557 66.9940012,52.8435309 C66.9940012,42.6475047 56.7659417,37.3117071 44.4930102,30.563139 C38.6508442,27.3506828 32.7771465,24.4601467 25.6779683,26.4616455 C15.2555713,29.4000724 17.2151899,41.6335264 17.2151899,49.2307692 C17.2151899,59.4267954 26.9629143,67.6923077 38.9873418,67.6923077 Z" id="Oval"></path>
            <path d="M38.9873418,59.4871795 C45.4190123,59.4871795 60.6072778,59.0129008 60.678629,50.9453455 C60.7499802,42.8777903 48.1895299,38.2945238 38.5359795,34.0147744 C35.7121364,32.762868 30.174221,29.6759255 25.4470019,33.6598683 C19.6675564,38.5305926 22.044872,44.8096997 24.0067651,50.2419571 C25.9354654,55.5823069 32.5556713,59.4871795 38.9873418,59.4871795 Z" id="Oval-2"></path>
            <path d="M62.743585,27.9380119 C74.2087368,27.9380119 75.9493671,20.0234333 75.9493671,14.3589744 C75.9493671,8.69451539 66.6550252,4.1025641 55.1898734,4.1025641 C43.7247216,4.1025641 30.1096694,4.26969873 30.1096694,9.9341577 C30.1096694,12.5029606 31.9111471,16.1148959 37.039472,18.5552518 C50.6498243,25.0318505 56.4778203,27.9380119 62.743585,27.9380119 Z" id="Oval-2"></path>
            <path d="M61.0253429,24.0645576 C67.1773755,24.0645576 67.8481013,18.3240956 67.8481013,14.3589744 C67.8481013,10.3938531 62.8608934,7.17948718 56.7088608,7.17948718 C50.5568281,7.17948718 35.9097275,8.2387222 35.9097275,12.2038435 C35.9097275,16.1689648 54.8733102,24.0645576 61.0253429,24.0645576 Z" id="Oval-2"></path>
            <path d="M38.4810127,52.3076923 C42.3959425,52.3076923 45.5696203,49.0933264 45.5696203,45.1282051 C45.5696203,41.1630838 33.9261647,34.8096997 30.1424381,37.8036508 C27.6556612,39.7713638 27.0742813,42.5126517 28.3982981,46.0275146 C29.3720559,49.9033278 34.5660828,52.3076923 38.4810127,52.3076923 Z" id="Oval-2"></path>
        </g>
    </g>
</svg>