<?xml version="1.0" encoding="UTF-8"?>
<svg width="81px" height="80px" viewBox="0 0 81 80" version="1.1" xmlns="http://www.w3.org/2000/svg" xmlns:xlink="http://www.w3.org/1999/xlink">
    <!-- Generator: Sketch 50.2 (55047) - http://www.bohemiancoding.com/sketch -->
    <title>gantt</title>
    <desc>Created with Sketch.</desc>
    <defs></defs>
    <g id="Page-1" stroke="none" stroke-width="1" fill="none" fill-rule="evenodd">
        <g id="gantt" transform="translate(1.000000, 0.000000)" stroke="#5596E6">
            <path d="M0.271304348,0.22125 L0.271304348,79.95625" id="Shape" stroke-width="2" opacity="0.4"></path>
            <path d="M19.8446377,0.22125 L19.8446377,79.95625" id="Shape" stroke-width="2" opacity="0.4"></path>
            <path d="M39.4202899,0.22125 L39.4202899,79.95625" id="Shape" stroke-width="2" opacity="0.4"></path>
            <path d="M58.9971014,0.0425 L58.9971014,79.7775" id="Shape" stroke-width="2" opacity="0.4"></path>
            <path d="M78.5704348,0.0425 L78.5704348,79.7775" id="Shape" stroke-width="2" opacity="0.4"></path>
            <g id="Group" transform="translate(0.000000, 3.000000)" fill-rule="nonzero">
                <rect id="Rectangle-path" fill="#5596E6" x="11.5942029" y="0" width="5.64405797" height="8.88392857"></rect>
                <rect id="Rectangle-path" fill="#FFFFFF" x="0" y="0" width="12.9031884" height="8.89285717"></rect>
            </g>
            <g id="Group-2" transform="translate(12.000000, 19.250000)" fill-rule="nonzero">
                <rect id="Rectangle-path" fill="#5596E6" x="10.0289855" y="0" width="13.475942" height="8.88392857"></rect>
                <rect id="Rectangle-path" fill="#FFFFFF" x="0.753623188" y="0" width="9.37971014" height="8.89285719"></rect>
            </g>
            <rect id="Rectangle-path" fill="#FFFFFF" fill-rule="nonzero" x="24.6597101" y="35.5" width="26.7594203" height="10"></rect>
            <rect id="Rectangle-path" fill="#FFFFFF" fill-rule="nonzero" x="49.9408696" y="51.75" width="25.5744928" height="10"></rect>
            <g id="Group-3" transform="translate(44.000000, 68.000000)" fill-rule="nonzero">
                <rect id="Rectangle-path" fill="#5596E6" x="0.0579710145" y="1.07142857" width="21.3055072" height="8.88214286"></rect>
                <rect id="Rectangle-path" fill="#FFFFFF" x="13.9710145" y="1.07142857" width="20.8336232" height="8.89285719"></rect>
            </g>
        </g>
    </g>
</svg>