<?xml version="1.0" encoding="UTF-8"?>
<svg width="81px" height="81px" viewBox="0 0 81 81" version="1.1" xmlns="http://www.w3.org/2000/svg" xmlns:xlink="http://www.w3.org/1999/xlink">
    <!-- Generator: Sketch 50.2 (55047) - http://www.bohemiancoding.com/sketch -->
    <title>contour</title>
    <desc>Created with Sketch.</desc>
    <defs>
        <rect id="path-1" x="0" y="0" width="78" height="78"></rect>
    </defs>
    <g id="Page-1" stroke="none" stroke-width="1" fill="none" fill-rule="evenodd">
        <g id="contour">
            <g id="Group" transform="translate(2.000000, 1.000000)">
                <mask id="mask-2" fill="white">
                    <use xlink:href="#path-1"></use>
                </mask>
                <g id="Mask"></g>
                <g mask="url(#mask-2)" fill="#5596E6" fill-rule="nonzero" id="Shape">
                    <g transform="translate(-8.000000, -7.000000)">
                        <polygon opacity="0.301171875" points="18.0416779 16.772029 9.38923253 21.7669609 9.38923253 31.7568249 18.0416779 36.7517568 26.6941234 31.7568249 26.6941234 21.7669609"></polygon>
                        <polygon opacity="0.606473214" points="27.9003721 33.115537 19.2479267 38.110469 19.2479267 48.1003329 27.9003721 53.0952649 36.5528175 48.1003329 36.5528175 38.110469"></polygon>
                        <polygon opacity="0.296149554" points="37.4460918 16.772029 28.7936464 21.7669609 28.7936464 31.7568249 37.4460918 36.7517568 46.0985373 31.7568249 46.0985373 21.7669609"></polygon>
                        <polygon points="47.1482988 33.115537 38.4958534 38.110469 38.4958534 48.1003329 47.1482988 53.0952649 55.8007442 48.1003329 55.8007442 38.110469"></polygon>
                        <polygon opacity="0.301171875" points="56.8505057 49.459045 48.1980603 54.453977 48.1980603 64.4438409 56.8505057 69.4387729 65.5029512 64.4438409 65.5029512 54.453977"></polygon>
                        <polygon opacity="0.600669643" points="66.3962255 33.115537 57.7437801 38.110469 57.7437801 48.1003329 66.3962255 53.0952649 75.0486709 48.1003329 75.0486709 38.110469"></polygon>
                        <polygon opacity="0.606473214" points="47.1077584 0.505371094 38.455313 5.50030306 38.455313 15.490167 47.1077584 20.485099 55.7602038 15.490167 55.7602038 5.50030306"></polygon>
                        <polygon opacity="0.600669643" points="56.8505057 16.772029 48.1980603 21.7669609 48.1980603 31.7568249 56.8505057 36.7517568 65.5029512 31.7568249 65.5029512 21.7669609"></polygon>
                        <polygon opacity="0.606473214" points="66.3354148 0.505371094 57.6829694 5.50030306 57.6829694 15.490167 66.3354148 20.485099 74.9878603 15.490167 74.9878603 5.50030306"></polygon>
                        <polygon points="18.0416779 49.459045 9.38923253 54.453977 9.38923253 64.4438409 18.0416779 69.4387729 26.6941234 64.4438409 26.6941234 54.453977"></polygon>
                        <polygon opacity="0.299107143" points="27.9003721 65.802553 19.2479267 70.797485 19.2479267 80.7873489 27.9003721 85.7822809 36.5528175 80.7873489 36.5528175 70.797485"></polygon>
                        <polygon points="37.4460918 49.459045 28.7936464 54.453977 28.7936464 64.4438409 37.4460918 69.4387729 46.0985373 64.4438409 46.0985373 54.453977"></polygon>
                        <polygon opacity="0.299107143" points="47.1482988 65.802553 38.4958534 70.797485 38.4958534 80.7873489 47.1482988 85.7822809 55.8007442 80.7873489 55.8007442 70.797485"></polygon>
                        <polygon points="8.65244542 65.802553 0 70.797485 0 80.7873489 8.65244542 85.7822809 17.3048908 80.7873489 17.3048908 70.797485"></polygon>
                        <polygon opacity="0.301171875" points="8.65244542 33.115537 0 38.110469 0 48.1003329 8.65244542 53.0952649 17.3048908 48.1003329 17.3048908 38.110469"></polygon>
                        <polygon opacity="0.299107143" points="66.3962255 65.802553 57.7437801 70.797485 57.7437801 80.7873489 66.3962255 85.7822809 75.0486709 80.7873489 75.0486709 70.797485"></polygon>
                        <polygon opacity="0.301171875" points="76.2549196 49.459045 67.6024742 54.453977 67.6024742 64.4438409 76.2549196 69.4387729 84.907365 64.4438409 84.907365 54.453977"></polygon>
                        <polygon opacity="0.299107143" points="85.6441522 65.802553 76.9917067 70.797485 76.9917067 80.7873489 85.6441522 85.7822809 94.2965976 80.7873489 94.2965976 70.797485"></polygon>
                        <polygon opacity="0.301171875" points="85.6441522 33.115537 76.9917067 38.110469 76.9917067 48.1003329 85.6441522 53.0952649 94.2965976 48.1003329 94.2965976 38.110469"></polygon>
                        <polygon points="76.2549196 16.772029 67.6024742 21.7669609 67.6024742 31.7568249 76.2549196 36.7517568 84.907365 31.7568249 84.907365 21.7669609"></polygon>
                        <polygon opacity="0.301171875" points="27.8801019 0.505371094 19.2276565 5.50030306 19.2276565 15.490167 27.8801019 20.485099 36.5325473 15.490167 36.5325473 5.50030306"></polygon>
                        <polygon opacity="0.301171875" points="8.65244542 0.505371094 0 5.50030306 0 15.490167 8.65244542 20.485099 17.3048908 15.490167 17.3048908 5.50030306"></polygon>
                        <polygon points="85.5630713 0.505371094 76.9106259 5.50030306 76.9106259 15.490167 85.5630713 20.485099 94.2155167 15.490167 94.2155167 5.50030306"></polygon>
                    </g>
                </g>
            </g>
            <polyline id="Shape" stroke="#5596E6" stroke-linecap="round" points="0.885063291 0 0.885063291 80 80.8850633 80"></polyline>
        </g>
    </g>
</svg>