<?xml version="1.0" encoding="UTF-8"?>
<svg width="82px" height="82px" viewBox="0 0 82 82" version="1.1" xmlns="http://www.w3.org/2000/svg" xmlns:xlink="http://www.w3.org/1999/xlink">
    <!-- Generator: Sketch 50.2 (55047) - http://www.bohemiancoding.com/sketch -->
    <title>sunburst</title>
    <desc>Created with Sketch.</desc>
    <defs></defs>
    <g id="Page-1" stroke="none" stroke-width="1" fill="none" fill-rule="evenodd">
        <g id="sunburst" transform="translate(1.000000, 1.000000)" stroke="#5596E6" stroke-width="2">
            <path d="M10.095202,42.4075694 C10.3756082,45.9388109 11.2674785,49.2978586 12.6649208,52.3788203" id="Path"></path>
            <path d="M14.2739476,55.4415407 C16.2125408,58.6643602 18.7395985,61.4930303 21.7064423,63.7788726" id="Path"></path>
            <path d="M25.8937439,66.4833727 C30.0986121,68.7277565 34.9007319,70 40,70" id="Path"></path>
            <path d="M41.9281261,69.9390358 C45.76523,69.6956429 49.4063706,68.7309063 52.7174429,67.1789312" id="Path"></path>
            <path d="M54.935142,66.0239444 C57.8937548,64.322331 60.534773,62.1306934 62.747411,59.5598171" id="Path"></path>
            <path d="M64.3705506,57.4989052 C67.9134047,52.5735117 70,46.530431 70,40" id="Path"></path>
            <path d="M69.7598225,36.1857998 C69.2174406,31.9112886 67.7755884,27.9173951 65.6299453,24.3997985" id="Path"></path>
            <path d="M62.7881128,20.4875736 C60.295482,17.5792125 57.2557317,15.1535733 53.8283868,13.3701812" id="Path"></path>
            <path d="M49.7715003,11.6273373 C46.7085017,10.5726545 43.4211262,10 40,10" id="Path"></path>
            <path d="M32.8667881,10.8532051 C29.9861187,11.5557678 27.2684161,12.6742573 24.7809116,14.1414424" id="Path"></path>
            <path d="M21.7882292,16.1583364 C19.4057732,17.9809687 17.3045049,20.1526259 15.560791,22.5969414" id="Path"></path>
            <path d="M10.2315474,36.2544468 C10.7319905,32.2363301 12.0270461,28.464905 13.9545184,25.1023676 L4.67728814,21.2133102 C2.48290866,25.3305892 0.98734245,29.8767484 0.348893056,34.6934842 L9.86108398,35.2575684" id="Path"></path>
            <path d="M32.5,68.5 L34.7707945,59.3094577 C27.8314398,57.4347567 22.3872675,51.9190792 20.6143669,44.9385147 L11.5,47.5" id="Path"></path>
            <path d="M67.5,50.5 L58.8608364,46.6698504 C56.5624075,53.1691842 50.9997132,58.1260663 44.1428699,59.5703805 L46.5,69.5" id="Path"></path>
            <path d="M43.5,10.5 L41.9806238,20.0968362 C49.6703387,20.8527889 56.0815872,25.9638798 58.714608,32.9303472 L67.5,30.5" id="Path"></path>
            <path d="M12.5,30.5 L20.9146426,34.0030638 C22.747485,28.1642016 27.1858139,23.4788255 32.8671723,21.3093924 L28.5,12.5" id="Path"></path>
            <path d="M25.5,53.5 L31.2680724,46.6907212 C33.278721,49.3108391 36.4420982,51 40,51 C43.0705734,51 45.8472971,49.74188 47.8427969,47.7130143 L53,54" id="Line-2" stroke-linecap="square"></path>
            <path d="M50.5,24.5 L45.6492639,30.5595258 C43.9980396,29.5692912 42.0655023,29 40,29 C36.4011537,29 33.2059647,30.7282625 31.1991156,33.4001049 L24.5,27.5" id="Line-4" stroke-linecap="square"></path>
            <path d="M40,45 C37.2385763,45 35,42.7614237 35,40 C35,37.2385763 37.2385763,35 40,35 L38.5,29.5" id="Oval-2"></path>
            <path d="M39,45 L39,50" id="Line-7" stroke-linecap="square"></path>
            <path d="M10.9648438,43.2736816 L0.0804165687,42.5570973 C0.378002432,47.2740117 1.49312129,51.7690047 3.28568149,55.9019845 L12.7629395,51.229248" id="Path"></path>
            <path d="M14.5,56.5 L6.07568628,61.2030149 C9.00068764,65.8730799 12.863253,69.8959786 17.3996659,73.0079945 L21.4978027,62.7758789" id="Path"></path>
            <path d="M27.0046387,66.4931641 L22.485212,75.9716254 C27.7749037,78.5520199 33.7183549,80 40,80 L38.9575195,69.237793" id="Path"></path>
            <path d="M42.8588867,69.1445312 L43.5979123,79.8403809 C48.1397716,79.4354874 52.5430479,78.3520499 56.5202637,76.5566406 L51.4606934,66.9431152" id="Path"></path>
            <path d="M55.6479492,65.2290039 L60.6924145,74.2388153 C63.9984076,72.2365312 66.9911544,69.7689354 69.5798434,66.9268394 L61.9975586,60.2229004" id="Path"></path>
            <path d="M64.7661133,56.4567871 L72.9883242,62.628981 C77.411332,56.1934886 80,48.3990522 80,40 L69.2683105,41.0092773" id="Path"></path>
            <path d="M68.9387207,35.2492676 L79.6508202,34.6913214 C78.9143756,29.137593 77.0384522,23.9436193 74.2657155,19.3520659 L65.5703125,25.6445312" id="Path"></path>
            <path d="M62.0537109,19.7753906 L69.8328443,13.3535598 C66.7192485,9.87005106 63.0045478,6.93521359 58.8517184,4.71202349 L54.484375,14.3759766" id="Path"></path>
            <path d="M48.6630859,11.7536621 L51.9355988,1.81104203 C48.1661604,0.634168888 44.1571392,0 40,0 L41.072998,10.5959473" id="Path"></path>
            <path d="M32.0671387,11.6933594 L29.4632868,1.40232415 C26.3185174,2.25879968 23.3279523,3.48933768 20.5423472,5.04318255 L26.0473633,14.2375488" id="Path"></path>
            <path d="M21.480957,17.4121094 L15.77846,8.1646774 C12.5140149,10.6522057 9.64363509,13.6304011 7.2773281,16.9892561 L16.6269531,22.1835938" id="Path"></path>
            <path d="M19.5,19.5 L25.5,25.5" id="Line-36" stroke-linecap="square"></path>
            <path d="M58.5,17.5 L53.5,23.5" id="Line-37" stroke-linecap="square"></path>
            <path d="M53.5,55.5 L58.5,62.5" id="Line-38" stroke-linecap="square"></path>
            <path d="M24.5,53.5 L18.5,59.5" id="Line-39" stroke-linecap="square"></path>
        </g>
    </g>
</svg>