<?xml version="1.0" encoding="UTF-8"?>
<svg width="79px" height="80px" viewBox="0 0 79 80" version="1.1" xmlns="http://www.w3.org/2000/svg" xmlns:xlink="http://www.w3.org/1999/xlink">
    <!-- Generator: Sketch 50.2 (55047) - http://www.bohemiancoding.com/sketch -->
    <title>icon</title>
    <desc>Created with Sketch.</desc>
    <defs></defs>
    <g id="Page-1" stroke="none" stroke-width="1" fill="none" fill-rule="evenodd">
        <g id="icon" fill="#5596E6" fill-rule="nonzero">
            <g id="Group" transform="translate(50.000000, 14.000000)">
                <path d="M24.6289431,21.9403269 L24.6289431,15.1357994 C24.6547584,9.94804683 21.8865252,6.50719834 19.507922,5.13706275 C18.82652,4.74440656 18.1241056,4.44178136 17.4102845,4.21708215 L17.4102845,3.78281499 C17.4102845,1.69697081 16.0636901,0 14.4085136,0 C12.7533372,0 11.4067427,1.69697081 11.4067427,3.78281499 L11.4067427,4.28290313 C10.7637634,4.50154983 10.1315905,4.78677409 9.51802847,5.14387182 C6.88967788,6.67061595 4.22650675,10.3505384 4.20249258,15.1312599 L4.20249258,21.9403269 C4.20249258,26.7732514 2.84809356,30.9199732 0.177117826,34.2654948 C0.0180239686,34.4652274 -0.0396100324,34.7595303 0.0276296354,35.0296234 C0.0948693028,35.2997163 0.276776619,35.499449 0.49830731,35.547869 L6.1962688,36.7878758 C7.25769499,37.0186274 8.23507159,37.2077682 9.16502018,37.3636202 C10.2126383,39.9510656 12.270052,41.6117214 14.5177781,41.6117214 C16.7661044,41.6117214 18.8241185,39.9503091 19.8711363,37.3613505 C20.7974828,37.2062551 21.7700565,37.0178709 22.8254791,36.7878758 L28.5228403,35.547869 C28.744371,35.5002056 28.9256779,35.2997163 28.993518,35.0296234 C29.061358,34.7602869 29.003724,34.4652274 28.8440298,34.2654948 C26.04758,30.7618515 24.6289431,26.6151297 24.6289431,21.9403269 Z M12.607451,3.78281499 C12.607451,2.53145979 13.4155278,1.51312599 14.4085136,1.51312599 C15.4014994,1.51312599 16.2095761,2.53145979 16.2095761,3.78281499 L16.2095761,3.92050945 C15.0130703,3.70413244 13.7991541,3.71321119 12.607451,3.95606792 L12.607451,3.78281499 Z M14.5183784,40.0978389 C12.9982816,40.0978389 11.5778436,39.1460826 10.6659056,37.5898325 C12.0076972,37.763842 13.2600361,37.8516033 14.5117745,37.8516033 C15.7683158,37.8516033 17.0248571,37.763842 18.3720519,37.5875629 C17.4595135,39.145326 16.0384752,40.0978389 14.5183784,40.0978389 Z M22.6219591,35.2959335 C21.4698794,35.5463559 20.4138564,35.7498713 19.4160678,35.9102627 C19.4148671,35.9102627 19.4136663,35.9102627 19.4118653,35.9102627 C18.9718057,35.980623 18.5443535,36.0419046 18.1259066,36.094864 C18.1223046,36.094864 18.1193028,36.0956206 18.1157006,36.0956206 C17.7320743,36.1440407 17.3574533,36.1833819 16.9864344,36.2166707 C16.9167934,36.2227232 16.8471522,36.2287757 16.7781116,36.2340716 C16.4569221,36.2605513 16.1393347,36.2817351 15.8235484,36.2968664 C15.7593105,36.2998926 15.6944723,36.304432 15.6302343,36.3067017 C14.8833937,36.3384774 14.1467592,36.3384774 13.4005189,36.3074582 C13.3338796,36.304432 13.26664,36.2998926 13.2000006,36.2968664 C12.8896175,36.2809785 12.576833,36.2613079 12.2604463,36.2348282 C12.1854021,36.2287757 12.1103578,36.2227232 12.0347132,36.2159141 C11.675101,36.1833819 11.3112864,36.1455538 10.9396671,36.0986469 C10.925859,36.0971337 10.9126512,36.0956206 10.898843,36.0941075 C10.483398,36.0419046 10.0595479,35.980623 9.62369079,35.9110192 C9.62188975,35.9110192 9.62008871,35.9110192 9.61828759,35.9110192 C8.61689685,35.7513844 7.55667137,35.5463559 6.39978887,35.295177 L1.80107588,34.2950007 C4.19228656,30.8496128 5.40320093,26.7006213 5.40320093,21.9403269 L5.40320093,15.1357994 C5.42361298,11.0238794 7.73737798,7.84480172 10.0205249,6.51779023 C10.6995255,6.12362091 11.4037409,5.82931789 12.1199635,5.6227762 C12.125967,5.62126307 12.1325709,5.62201963 12.1385745,5.62050651 C13.6184475,5.20137061 15.1925761,5.18245654 16.6892591,5.56906022 C16.6970637,5.57132992 16.7048684,5.56679053 16.7126729,5.56830366 C17.4955348,5.7740888 18.2663896,6.08579276 19.0090276,6.51325084 C21.2237342,7.78957262 23.4492471,10.9474666 23.4282347,15.1320165 L23.4282347,21.9410835 C23.4282347,26.505428 24.7340051,30.7497465 27.2182707,34.2965138 L22.6219591,35.2959335 Z" id="Shape"></path>
                <path d="M18.4376522,8.49625731 C16.1746625,7.15523219 13.4035949,7.15371776 11.1557891,8.49777173 C9.87391488,9.2640718 7.6996927,11.5061809 7.68217279,15.0506973 C7.68042079,15.4686792 7.93971562,15.8094253 8.26266616,15.8124541 C8.26383415,15.8124541 8.26500215,15.8124541 8.26617014,15.8124541 C8.58678469,15.8124541 8.84841548,15.4770086 8.8501675,15.0597839 C8.86359943,12.2755099 10.6132556,10.4900005 11.6445949,9.87287143 C13.5893061,8.70903427 15.9930393,8.71206311 17.9511824,9.87287143 C18.2449331,10.0470305 18.5912435,9.87968635 18.7255629,9.49956518 C18.8598823,9.11868677 18.7302348,8.66965918 18.4376522,8.49625731 Z" id="Shape"></path>
            </g>
            <path d="M12.2488946,35.9497781 C6.51928471,32.4372521 2.74285714,26.429346 2.74285714,19.6078431 C2.74285714,8.7787304 12.2600042,0 23.9999999,0 C35.7399958,0 45.2571429,8.7787304 45.2571429,19.6078431 C45.2571429,26.429346 41.4807152,32.4372521 35.7511054,35.9497781 C43.0617564,39.9822578 48,47.6610365 48,56.4705882 C48,69.4655235 37.254834,80 23.9999999,80 C10.745166,80 0,69.4655235 0,56.4705882 C0,47.6610365 4.93824363,39.9822578 12.2488946,35.9497781 Z M23.9999999,32.9411765 C31.1954812,32.9411765 37.0285714,26.9716398 37.0285714,19.6078431 C37.0285714,12.2440465 31.1954812,6.2745098 23.9999999,6.2745098 C16.8045186,6.2745098 10.9714286,12.2440465 10.9714286,19.6078431 C10.9714286,26.9716398 16.8045186,32.9411765 23.9999999,32.9411765 Z M23.9999999,72.1568627 C31.9529004,72.1568627 38.4,65.1338784 38.4,56.4705882 C38.4,47.807298 31.9529004,40.7843137 23.9999999,40.7843137 C16.0470996,40.7843137 9.6,47.807298 9.6,56.4705882 C9.6,65.1338784 16.0470996,72.1568627 23.9999999,72.1568627 Z" id="Combined-Shape"></path>
        </g>
    </g>
</svg>