<?xml version="1.0" encoding="UTF-8"?>
<svg width="80px" height="80px" viewBox="0 0 80 80" version="1.1" xmlns="http://www.w3.org/2000/svg" xmlns:xlink="http://www.w3.org/1999/xlink">
    <!-- Generator: Sketch 50.2 (55047) - http://www.bohemiancoding.com/sketch -->
    <title>mind-map</title>
    <desc>Created with Sketch.</desc>
    <defs></defs>
    <g id="Page-1" stroke="none" stroke-width="1" fill="none" fill-rule="evenodd">
        <g id="mind-map">
            <rect id="Rectangle" fill="#FFFFFF" x="0" y="0" width="80" height="80"></rect>
            <path d="M50.2986214,12.2446697 C55.6411649,3.88639846 68.8111334,8.20088109 68.0675039,21.1372054 C78.1142284,19.8953373 81.1746985,38.689575 74.2985398,45.0532588 C77.1368868,60.0993344 70.6856593,71.3319486 56.9903213,67.7405039 C53.9993855,73.1116429 49.117506,78.9921142 41.7604025,77.8582862 C37.9379536,77.2670335 35.1594833,74.4829218 32.9923344,71.1111192 C26.1615662,78.4970291 14.3735897,71.8840219 16.1467115,58.8467809 C-0.243076273,62.813398 -3.29002579,29.5370306 11.7621946,26.9630629 C4.63397447,15.4929978 15.3036094,-1.04426922 24.9138138,6.72631107 C26.1403196,7.71648127 26.9167847,9.19105129 27.9153729,11.0217976 C30.3780421,5.84180652 34.57134,1.15096423 40.837143,2.13044914 C45.5026939,2.85823611 48.8712391,7.09079818 50.2986214,12.2446697 Z" id="Shape" stroke="#5596E6" stroke-width="2"></path>
        </g>
    </g>
</svg>