<?xml version="1.0" encoding="UTF-8"?>
<svg width="80px" height="80px" viewBox="0 0 80 80" version="1.1" xmlns="http://www.w3.org/2000/svg" xmlns:xlink="http://www.w3.org/1999/xlink">
    <!-- Generator: Sketch 50.2 (55047) - http://www.bohemiancoding.com/sketch -->
    <title>aster</title>
    <desc>Created with Sketch.</desc>
    <defs>
        <rect id="path-1" x="0" y="0" width="80" height="80"></rect>
    </defs>
    <g id="Page-1" stroke="none" stroke-width="1" fill="none" fill-rule="evenodd">
        <g id="aster">
            <g id="Group-2">
                <mask id="mask-2" fill="white">
                    <use xlink:href="#path-1"></use>
                </mask>
                <use id="Mask" fill="#FFFFFF" xlink:href="#path-1"></use>
                <g mask="url(#mask-2)">
                    <g transform="translate(-9.000000, 0.000000)">
                        <g id="Group" stroke="none" stroke-width="1" fill="none" fill-rule="evenodd" opacity="0.298493304">
                            <path d="M73.1776151,15.2689166 C70.4016869,12.5523293 67.187964,10.2813082 63.6521349,8.57154161 C58.9193718,6.28299204 53.6095153,5 48,5 L48,41" id="Oval-2" fill="#5596E6" fill-rule="nonzero"></path>
                            <path d="M87.1791939,27.1478137 C84.0328454,24.0687246 80.3902829,21.4946581 76.3826323,19.55674 C71.0183286,16.9628061 64.9999241,15.5086114 58.6418743,15.5086114 L58.6418743,56.3124564" id="Oval-2" fill="#5596E6" fill-rule="nonzero" transform="translate(72.910534, 35.910534) rotate(45.000000) translate(-72.910534, -35.910534) "></path>
                            <path d="M47.9751279,11.4099073 C44.8907632,8.39147702 41.31996,5.86812018 37.391261,3.96837957 C32.1326353,1.42554671 26.2327948,0 20,0 L20,40" id="Oval-2" fill="#5596E6" fill-rule="nonzero" transform="translate(33.987564, 20.000000) scale(-1, 1) translate(-33.987564, -20.000000) "></path>
                            <path d="M42.7372969,31.4537166 C40.649386,29.4104389 38.2321883,27.7022932 35.572719,26.4162944 C32.0129772,24.6949647 28.0191753,23.7299639 23.7999855,23.7299639 L23.7999855,50.8073184" id="Oval-2" fill="#5596E6" fill-rule="nonzero" transform="translate(33.268641, 37.268641) scale(-1, 1) rotate(45.000000) translate(-33.268641, -37.268641) "></path>
                            <path d="M75.9751279,51.4099073 C72.8907632,48.391477 69.31996,45.8681202 65.391261,43.9683796 C60.1326353,41.4255467 54.2327948,40 48,40 L48,80" id="Oval-2" fill="#5596E6" fill-rule="nonzero" transform="translate(61.987564, 60.000000) scale(-1, 1) rotate(-180.000000) translate(-61.987564, -60.000000) "></path>
                            <path d="M77.5385285,36.5914927 C75.2233706,34.3258259 72.5430867,32.4317666 69.5941623,31.0058006 C65.6469804,29.0971224 61.2184956,28.0270915 56.5400917,28.0270915 L56.5400917,58.0515287" id="Oval-2" fill="#5596E6" fill-rule="nonzero" transform="translate(67.039310, 43.039310) scale(-1, 1) rotate(-135.000000) translate(-67.039310, -43.039310) "></path>
                            <path d="M49.4782369,48.5404578 C46.7794178,45.8993313 45.7485552,44.959288 42.3109436,43.2970149 C37.7096461,41.0720362 32.5472857,39.8246828 27.0935902,39.8246828 L27.637757,71" id="Oval-2" fill="#5596E6" fill-rule="nonzero" transform="translate(38.285914, 55.412341) rotate(180.000000) translate(-38.285914, -55.412341) "></path>
                            <path d="M38.2397645,35.580926 C35.1992768,32.6054347 31.6792705,30.1179742 27.8064597,28.2452586 C22.6226412,25.7385991 16.8067295,24.3333316 10.6626001,24.3333316 L10.6626001,63.764307" id="Oval-2" fill="#5596E6" fill-rule="nonzero" transform="translate(24.451182, 44.048819) rotate(-135.000000) translate(-24.451182, -44.048819) "></path>
                        </g>
                        <g id="Group" opacity="0.610825893" stroke="none" stroke-width="1" fill="none" fill-rule="evenodd" transform="translate(48.500000, 40.000000) rotate(90.000000) translate(-48.500000, -40.000000) translate(16.000000, 13.000000)">
                            <path d="M49,9.8459444 C47.1256851,8.0348862 44.9557699,6.52087213 42.5683677,5.38102774 C39.3727921,3.85532803 35.7875613,3 32,3 L32,27" id="Oval-2" fill="#5596E6" fill-rule="nonzero"></path>
                            <path d="M58,17.7016875 C55.9051774,15.664247 53.4799781,13.9609812 50.811705,12.6786562 C47.2401794,10.962244 43.2331567,10 39,10 L39,37" id="Oval-2" fill="#5596E6" fill-rule="nonzero" transform="translate(48.500000, 23.500000) rotate(45.000000) translate(-48.500000, -23.500000) "></path>
                            <path d="M33,7.70168743 C30.9051774,5.66424699 28.4799781,3.96098112 25.811705,2.67865621 C22.2401793,0.962244029 18.2331567,0 14,0 L14,27" id="Oval-2" fill="#5596E6" fill-rule="nonzero" transform="translate(23.500000, 13.500000) scale(-1, 1) translate(-23.500000, -13.500000) "></path>
                            <path d="M29,21.1344583 C27.5667004,19.7761647 25.9073534,18.6406541 24.0816929,17.7857708 C21.6380174,16.641496 18.8963704,16 16,16 L16,34" id="Oval-2" fill="#5596E6" fill-rule="nonzero" transform="translate(22.500000, 25.000000) scale(-1, 1) rotate(45.000000) translate(-22.500000, -25.000000) "></path>
                            <path d="M51,35.6044461 C48.9051774,33.5670056 46.4799781,31.8637398 43.811705,30.5814149 C40.2401793,28.8650027 36.2331567,27.9027587 32,27.9027587 L32.3460612,54" id="Oval-2" fill="#5596E6" fill-rule="nonzero" transform="translate(41.500000, 40.951379) scale(-1, 1) rotate(-180.000000) translate(-41.500000, -40.951379) "></path>
                            <path d="M52,23.7049537 C50.4564465,22.1957385 48.6694575,20.9340601 46.7033616,19.9841898 C44.0717111,18.7127733 41.1191681,18 38,18 L38,38" id="Oval-2" fill="#5596E6" fill-rule="nonzero" transform="translate(45.000000, 28.000000) scale(-1, 1) rotate(-135.000000) translate(-45.000000, -28.000000) "></path>
                            <path d="M33.2475905,32.8629303 C31.439106,31.0838415 30.7483227,30.4506191 28.4447718,29.3308956 C25.3614324,27.8321281 23.0065935,27.0599061 19.3520604,27.0599061 L19,47.9319925" id="Oval-2" fill="#5596E6" fill-rule="nonzero" transform="translate(26.123795, 37.495949) rotate(180.000000) translate(-26.123795, -37.495949) "></path>
                            <path d="M26,23.7016875 C23.9051774,21.664247 21.4799781,19.9609811 18.8117051,18.6786563 C15.2401794,16.9622441 11.2331567,16 7,16 L7,43" id="Oval-2" fill="#5596E6" fill-rule="nonzero" transform="translate(16.500000, 29.500000) rotate(-135.000000) translate(-16.500000, -29.500000) "></path>
                        </g>
                        <g id="Group" stroke="none" stroke-width="1" fill="none" fill-rule="evenodd" transform="translate(47.610683, 38.561320) rotate(46.000000) translate(-47.610683, -38.561320) translate(21.610683, 20.561320)">
                            <path d="M39.8838384,5.21041383 C38.511234,3.88413383 36.9221547,2.77538616 35.1738046,1.94065163 C32.8336103,0.823346282 30.2080626,0.196969697 27.4343434,0.196969697 L27.4343434,17.7727273" id="Oval-2" fill="#5596E6" fill-rule="nonzero"></path>
                            <path d="M46.4747475,10.963357 C44.9406602,9.47129199 43.1646304,8.22395084 41.2105921,7.28487449 C38.5950808,6.02790599 35.6606451,5.32323232 32.5606061,5.32323232 L32.5606061,25.0959596" id="Oval-2" fill="#5596E6" fill-rule="nonzero" transform="translate(39.517677, 15.209596) rotate(45.000000) translate(-39.517677, -15.209596) "></path>
                            <path d="M29.9141414,7.64012463 C28.3800542,6.14805966 26.6040244,4.9007185 24.649986,3.96164217 C22.0344748,2.70467366 19.100039,2 16,2 L16,21.7727273" id="Oval-2" fill="#5596E6" fill-rule="nonzero" transform="translate(22.957071, 11.886364) scale(-1, 1) translate(-22.957071, -11.886364) "></path>
                            <path d="M20.4113737,11.0642859 C18.7841615,9.51688026 16.9003199,8.22327528 14.8276641,7.24936862 C12.0533814,5.94577919 8.94081426,5.21496926 5.65259118,5.21496926 L5.65259118,25.7210659" id="Oval-2" fill="#5596E6" fill-rule="nonzero" transform="translate(13.031982, 15.468018) scale(-1, 1) rotate(45.000000) translate(-13.031982, -15.468018) "></path>
                            <path d="M41.3484848,23.6178762 C39.8143976,22.2464666 38.0383678,21.0999913 36.0843294,20.236853 C33.4688182,19.0815289 30.5343825,18.4338384 27.4343434,18.4338384 L27.6877721,36" id="Oval-2" fill="#5596E6" fill-rule="nonzero" transform="translate(34.391414, 27.216919) scale(-1, 1) rotate(-180.000000) translate(-34.391414, -27.216919) "></path>
                            <path d="M42.0808081,15.3596883 C40.950428,14.254455 39.6417745,13.3304985 38.2019567,12.6348865 C36.2747379,11.7037986 34.1125221,11.1818182 31.8282828,11.1818182 L31.8282828,25.8282828" id="Oval-2" fill="#5596E6" fill-rule="nonzero" transform="translate(36.954545, 18.505051) scale(-1, 1) rotate(-135.000000) translate(-36.954545, -18.505051) "></path>
                            <path d="M28.3479829,22.0662873 C27.0235877,20.7634193 26.5177111,20.2996958 24.8307672,19.4796963 C22.5727662,18.382114 20.8482629,17.8165979 18.1719634,17.8165979 L17.9141414,33.1017117" id="Oval-2" fill="#5596E6" fill-rule="nonzero" transform="translate(23.131062, 25.459155) rotate(180.000000) translate(-23.131062, -25.459155) "></path>
                            <path d="M24.6178319,16.7727281 C23.4699132,15.6562536 22.140955,14.7228998 20.6787975,14.0202127 C18.7216765,13.0796549 16.5259124,12.5523654 14.2062316,12.5523654 L14.2062316,27.3477974" id="Oval-2" fill="#5596E6" fill-rule="nonzero" transform="translate(19.412032, 19.950081) rotate(-135.000000) translate(-19.412032, -19.950081) "></path>
                        </g>
                        <circle id="Oval" stroke="none" fill="#FFFFFF" fill-rule="nonzero" cx="48" cy="39" r="10"></circle>
                        <path d="M48.5,0.5 L48.5,79.5" id="Line" stroke="#FFFFFF" stroke-width="2" fill="none" stroke-linecap="square"></path>
                        <path d="M88,40 L9,40" id="Line" stroke="#FFFFFF" stroke-width="2" fill="none" stroke-linecap="square"></path>
                        <path d="M75.9390056,11.5860779 L21.0609944,68.4139221" id="Line" stroke="#FFFFFF" stroke-width="2" fill="none" stroke-linecap="square"></path>
                        <path d="M75.9390056,11.5860779 L21.0609944,68.4139221" id="Line" stroke="#FFFFFF" stroke-width="2" fill="none" stroke-linecap="square" transform="translate(48.500000, 40.000000) scale(-1, 1) translate(-48.500000, -40.000000) "></path>
                    </g>
                </g>
            </g>
        </g>
    </g>
</svg>