<?xml version="1.0" encoding="UTF-8"?>
<svg width="80px" height="80px" viewBox="0 0 80 80" version="1.1" xmlns="http://www.w3.org/2000/svg" xmlns:xlink="http://www.w3.org/1999/xlink">
    <!-- Generator: Sketch 50.2 (55047) - http://www.bohemiancoding.com/sketch -->
    <title>non-ribbon</title>
    <desc>Created with Sketch.</desc>
    <defs></defs>
    <g id="Page-1" stroke="none" stroke-width="1" fill="none" fill-rule="evenodd">
        <g id="non-ribbon">
            <path d="M20.5588286,10.1239271 C24.99822,36.555438 65.9201837,63.7281599 65.9201837,63.7281599" id="Shape" stroke="#5596E6" stroke-width="2"></path>
            <path d="M58.5876543,10.1239271 C58.5876543,10.1239271 58.0731554,43.6110523 29.3622739,74.4164609" id="Shape" stroke="#5596E6" stroke-width="2"></path>
            <path d="M39.5824289,7.99529689 C39.5824289,7.99529689 31.4285386,42.4343327 49.8035027,75.5912993" id="Shape" stroke="#5596E6" stroke-width="2"></path>
            <path d="M39.0467987,4.31087595 C39.0467987,4.31087595 40.1051966,39.6764257 65.6904967,64.1194592" id="Shape" stroke="#5596E6" stroke-width="2"></path>
            <path d="M39.2002297,5.01634333 C39.2002297,5.01634333 44.5721504,25.722281 15.0830893,62.1592005" id="Shape" stroke="#5596E6" stroke-width="2"></path>
            <path d="M39.5824289,7.60305703 C39.5824289,7.60305703 35.677749,21.4772487 7.31599196,25.7843622" id="Shape" stroke="#5596E6" stroke-width="2"></path>
            <path d="M7.08262992,25.0318636 C32.3482055,48.3132276 74.26793,45.8751322 74.26793,45.8751322" id="Shape" stroke="#5596E6" stroke-width="2"></path>
            <path d="M70.0545507,26.8858319 C70.0545507,26.8858319 51.0300316,41.427866 4.2501292,45.8751322" id="Shape" stroke="#5596E6" stroke-width="2"></path>
            <path d="M70.1317255,26.650676 C70.1317255,26.650676 44.9543497,51.9553204 14.3168533,62.1592005" id="Shape" stroke="#5596E6" stroke-width="2"></path>
            <circle id="Oval" fill="#5596E6" fill-rule="nonzero" cx="39.9706" cy="4.59024103" r="4.44444444"></circle>
            <circle id="Oval" fill="#5596E6" fill-rule="nonzero" cx="20.8486936" cy="10.5481482" r="4.44444444"></circle>
            <circle id="Oval" fill="#5596E6" fill-rule="nonzero" cx="7.98989378" cy="25.5727219" r="4.44444444"></circle>
            <circle id="Oval" fill="#5596E6" fill-rule="nonzero" cx="5.07286822" cy="46.010582" r="4.44444444"></circle>
            <circle id="Oval" fill="#5596E6" fill-rule="nonzero" cx="13.3333334" cy="64.3122869" r="4.44444444"></circle>
            <circle id="Oval" fill="#5596E6" fill-rule="nonzero" cx="29.7256389" cy="75.1736625" r="4.44444444"></circle>
            <circle id="Oval" fill="#5596E6" fill-rule="nonzero" cx="50.0483491" cy="75.1840094" r="4.44444444"></circle>
            <circle id="Oval" fill="#5596E6" fill-rule="nonzero" cx="66.4516796" cy="64.3395649" r="4.44444444"></circle>
            <circle id="Oval" fill="#5596E6" fill-rule="nonzero" cx="74.7296009" cy="46.0463256" r="4.44444444"></circle>
            <circle id="Oval" fill="#5596E6" fill-rule="nonzero" cx="71.864944" cy="25.5595532" r="4.44444444"></circle>
            <circle id="Oval" fill="#5596E6" fill-rule="nonzero" cx="59.0952627" cy="10.501117" r="4.44444444"></circle>
            <circle id="Oval" fill="#5596E6" fill-rule="nonzero" cx="39.9706" cy="4.5893004" r="4.44444444"></circle>
        </g>
    </g>
</svg>