<?xml version="1.0" encoding="UTF-8"?>
<svg width="80px" height="80px" viewBox="0 0 80 80" version="1.1" xmlns="http://www.w3.org/2000/svg" xmlns:xlink="http://www.w3.org/1999/xlink">
    <!-- Generator: Sketch 50.2 (55047) - http://www.bohemiancoding.com/sketch -->
    <title>kagi</title>
    <desc>Created with Sketch.</desc>
    <defs></defs>
    <g id="Page-1" stroke="none" stroke-width="1" fill="none" fill-rule="evenodd">
        <g id="kagi" fill="#5596E6" fill-rule="nonzero">
            <polygon id="Shape" points="5.56097561 58.1176471 3.2195122 58.1176471 3.2195122 60.2352941 0.292682927 60.2352941 0.292682927 62.8235294 3.2195122 62.8235294 3.2195122 79.7647059 5.56097561 79.7647059 5.56097561 77.8823529 8.29268293 77.8823529 8.29268293 75.2941176 5.56097561 75.2941176"></polygon>
            <polygon id="Shape" points="23.902439 48.7058824 21.5609756 48.7058824 21.5609756 49.7647059 18.7317073 49.7647059 18.7317073 52.3529412 21.5609756 52.3529412 21.5609756 62.2352941 23.902439 62.2352941 23.902439 60.1176471 26.8292683 60.1176471 26.8292683 57.5294118 23.902439 57.5294118"></polygon>
            <polygon id="Shape" points="14.6341463 43.8823529 12.2926829 43.8823529 12.2926829 70.7058824 9.17073171 70.7058824 9.17073171 73.2941176 12.2926829 73.2941176 12.2926829 75.6470588 14.6341463 75.6470588 14.6341463 47.1764706 17.4634146 47.1764706 17.4634146 44.5882353 14.6341463 44.5882353"></polygon>
            <polygon id="Shape" points="44.3902439 13.5294118 42.0487805 13.5294118 42.0487805 17.2941176 38.9268293 17.2941176 38.9268293 19.8823529 42.0487805 19.8823529 42.0487805 45.2941176 44.3902439 45.2941176 44.3902439 40 47.3170732 40 47.3170732 37.4117647 44.3902439 37.4117647"></polygon>
            <polygon id="Shape" points="55.804878 31.8823529 53.4634146 31.8823529 53.4634146 33.1764706 50.4390244 33.1764706 50.4390244 35.7647059 53.4634146 35.7647059 53.4634146 63.6470588 55.804878 63.6470588 55.804878 62.2352941 58.7317073 62.2352941 58.7317073 59.6470588 55.804878 59.6470588"></polygon>
            <polygon id="Shape" points="79.7073171 72.3529412 76.7804878 72.3529412 76.7804878 53.6470588 74.5365854 53.6470588 74.5365854 55.0588235 71.4146341 55.0588235 71.4146341 57.6470588 74.5365854 57.6470588 74.5365854 75.8823529 76.7804878 75.8823529 76.7804878 74.9411765 79.7073171 74.9411765"></polygon>
            <polygon id="Shape" points="66.1463415 51.7647059 63.804878 51.7647059 63.804878 55.0588235 60.9756098 55.0588235 60.9756098 57.6470588 63.804878 57.6470588 63.804878 65.2941176 65.6585366 65.2941176 66.1463415 65.2941176 68.9756098 65.2941176 68.9756098 62.7058824 66.1463415 62.7058824"></polygon>
            <polygon id="Shape" points="33.4634146 0.352941176 31.2195122 0.352941176 31.2195122 47.6470588 28.097561 47.6470588 28.097561 50.2352941 31.2195122 50.2352941 31.2195122 57.7647059 33.4634146 57.7647059 33.4634146 7.41176471 36.3902439 7.41176471 36.3902439 4.82352941 33.4634146 4.82352941"></polygon>
        </g>
    </g>
</svg>