<?xml version="1.0" encoding="UTF-8"?>
<svg width="80px" height="80px" viewBox="0 0 80 80" version="1.1" xmlns="http://www.w3.org/2000/svg" xmlns:xlink="http://www.w3.org/1999/xlink">
    <!-- Generator: Sketch 50.2 (55047) - http://www.bohemiancoding.com/sketch -->
    <title>opposite</title>
    <desc>Created with Sketch.</desc>
    <defs></defs>
    <g id="Page-1" stroke="none" stroke-width="1" fill="none" fill-rule="evenodd">
        <g id="opposite">
            <g id="Group">
                <path d="M3,40 L76.9999995,40.0083234" id="Line" stroke="#5596E6" opacity="0.495145089" stroke-linecap="square"></path>
                <path d="M41,74.9999995 L41.0078735,4.99999996" id="Line" stroke="#5596E6" opacity="0.495145089" stroke-linecap="square"></path>
                <g id="Group-2" transform="translate(38.000000, 0.000000)" fill-rule="nonzero">
                    <polygon id="Triangle" fill="#FFFFFF" points="3 0 6 8 0 8"></polygon>
                    <polygon id="Triangle" fill="#5596E6" opacity="0.502455357" points="3 0 6 8 0 8"></polygon>
                </g>
                <g id="Group-2" transform="translate(41.000000, 76.000000) scale(-1, 1) rotate(-180.000000) translate(-41.000000, -76.000000) translate(38.000000, 72.000000)" fill-rule="nonzero">
                    <polygon id="Triangle" fill="#FFFFFF" points="3 0 6 8 0 8"></polygon>
                    <polygon id="Triangle" fill="#5596E6" opacity="0.502455357" points="3 0 6 8 0 8"></polygon>
                </g>
                <g id="Group-2" transform="translate(76.000000, 40.000000) scale(-1, 1) rotate(-90.000000) translate(-76.000000, -40.000000) translate(73.000000, 36.000000)" fill-rule="nonzero">
                    <polygon id="Triangle" fill="#FFFFFF" points="3 0 6 8 0 8"></polygon>
                    <polygon id="Triangle" fill="#5596E6" opacity="0.502455357" points="3 0 6 8 0 8"></polygon>
                </g>
                <g id="Group-2" transform="translate(4.000000, 40.000000) rotate(-90.000000) translate(-4.000000, -40.000000) translate(1.000000, 36.000000)" fill-rule="nonzero">
                    <polygon id="Triangle" fill="#FFFFFF" points="3 0 6 8 0 8"></polygon>
                    <polygon id="Triangle" fill="#5596E6" opacity="0.502455357" points="3 0 6 8 0 8"></polygon>
                </g>
            </g>
            <g id="Group" transform="translate(13.000000, 51.000000)" fill="#5596E6" fill-rule="nonzero">
                <path d="M0.596,9.44324325 C0.122,8.9614865 0.122,8.17972975 0.596,7.70067569 L7.48133331,0.721621625 C7.95533331,0.241891875 8.726,0.241891875 9.20133331,0.721621625 C9.67533331,1.20270269 9.67533331,1.98108106 9.20133331,2.46486488 L2.31466669,9.44324325 C2.078,9.68310813 1.76533331,9.80337838 1.45466669,9.80337838 C1.14333331,9.80337838 0.832,9.68310813 0.596,9.44324325 Z" id="Shape"></path>
                <path d="M7.482,9.44324325 L0.596666688,2.46486488 C0.122666687,1.98108106 0.122666687,1.20135138 0.596666688,0.721621625 C1.07066669,0.241891875 1.84066669,0.241891875 2.316,0.721621625 L9.20333331,7.70067569 C9.67733331,8.18040538 9.67733331,8.96216219 9.20333331,9.44324325 C8.96466669,9.68310813 8.654,9.80337838 8.342,9.80337838 C8.03,9.80337838 7.71933331,9.68310813 7.482,9.44324325 Z" id="Shape"></path>
            </g>
            <g id="Group" transform="translate(46.000000, 65.000000)" fill="#5596E6" fill-rule="nonzero">
                <path d="M0.596,9.44324325 C0.122,8.9614865 0.122,8.17972975 0.596,7.70067569 L7.48133331,0.721621625 C7.95533331,0.241891875 8.726,0.241891875 9.20133331,0.721621625 C9.67533331,1.20270269 9.67533331,1.98108106 9.20133331,2.46486488 L2.31466669,9.44324325 C2.078,9.68310813 1.76533331,9.80337838 1.45466669,9.80337838 C1.14333331,9.80337838 0.832,9.68310813 0.596,9.44324325 Z" id="Shape"></path>
                <path d="M7.482,9.44324325 L0.596666688,2.46486488 C0.122666687,1.98108106 0.122666687,1.20135138 0.596666688,0.721621625 C1.07066669,0.241891875 1.84066669,0.241891875 2.316,0.721621625 L9.20333331,7.70067569 C9.67733331,8.18040538 9.67733331,8.96216219 9.20333331,9.44324325 C8.96466669,9.68310813 8.654,9.80337838 8.342,9.80337838 C8.03,9.80337838 7.71933331,9.68310813 7.482,9.44324325 Z" id="Shape"></path>
            </g>
            <g id="Group" transform="translate(61.000000, 45.000000)" fill="#5596E6" fill-rule="nonzero">
                <path d="M0.596,9.44324325 C0.122,8.9614865 0.122,8.17972975 0.596,7.70067569 L7.48133331,0.721621625 C7.95533331,0.241891875 8.726,0.241891875 9.20133331,0.721621625 C9.67533331,1.20270269 9.67533331,1.98108106 9.20133331,2.46486488 L2.31466669,9.44324325 C2.078,9.68310813 1.76533331,9.80337838 1.45466669,9.80337838 C1.14333331,9.80337838 0.832,9.68310813 0.596,9.44324325 Z" id="Shape"></path>
                <path d="M7.482,9.44324325 L0.596666688,2.46486488 C0.122666687,1.98108106 0.122666687,1.20135138 0.596666688,0.721621625 C1.07066669,0.241891875 1.84066669,0.241891875 2.316,0.721621625 L9.20333331,7.70067569 C9.67733331,8.18040538 9.67733331,8.96216219 9.20333331,9.44324325 C8.96466669,9.68310813 8.654,9.80337838 8.342,9.80337838 C8.03,9.80337838 7.71933331,9.68310813 7.482,9.44324325 Z" id="Shape"></path>
            </g>
            <g id="Group" transform="translate(27.000000, 27.000000)" fill="#5596E6" fill-rule="nonzero">
                <path d="M0.596,9.44324325 C0.122,8.9614865 0.122,8.17972975 0.596,7.70067569 L7.48133331,0.721621625 C7.95533331,0.241891875 8.726,0.241891875 9.20133331,0.721621625 C9.67533331,1.20270269 9.67533331,1.98108106 9.20133331,2.46486488 L2.31466669,9.44324325 C2.078,9.68310813 1.76533331,9.80337838 1.45466669,9.80337838 C1.14333331,9.80337838 0.832,9.68310813 0.596,9.44324325 Z" id="Shape"></path>
                <path d="M7.482,9.44324325 L0.596666688,2.46486488 C0.122666687,1.98108106 0.122666687,1.20135138 0.596666688,0.721621625 C1.07066669,0.241891875 1.84066669,0.241891875 2.316,0.721621625 L9.20333331,7.70067569 C9.67733331,8.18040538 9.67733331,8.96216219 9.20333331,9.44324325 C8.96466669,9.68310813 8.654,9.80337838 8.342,9.80337838 C8.03,9.80337838 7.71933331,9.68310813 7.482,9.44324325 Z" id="Shape"></path>
            </g>
            <g id="Group" transform="translate(5.000000, 3.000000)" fill="#5596E6" fill-rule="nonzero">
                <path d="M0.596,9.44324325 C0.122,8.9614865 0.122,8.17972975 0.596,7.70067569 L7.48133331,0.721621625 C7.95533331,0.241891875 8.726,0.241891875 9.20133331,0.721621625 C9.67533331,1.20270269 9.67533331,1.98108106 9.20133331,2.46486488 L2.31466669,9.44324325 C2.078,9.68310813 1.76533331,9.80337838 1.45466669,9.80337838 C1.14333331,9.80337838 0.832,9.68310813 0.596,9.44324325 Z" id="Shape"></path>
                <path d="M7.482,9.44324325 L0.596666688,2.46486488 C0.122666687,1.98108106 0.122666687,1.20135138 0.596666688,0.721621625 C1.07066669,0.241891875 1.84066669,0.241891875 2.316,0.721621625 L9.20333331,7.70067569 C9.67733331,8.18040538 9.67733331,8.96216219 9.20333331,9.44324325 C8.96466669,9.68310813 8.654,9.80337838 8.342,9.80337838 C8.03,9.80337838 7.71933331,9.68310813 7.482,9.44324325 Z" id="Shape"></path>
            </g>
            <g id="Group" transform="translate(62.000000, 12.000000)" fill="#5596E6" fill-rule="nonzero">
                <path d="M0.596,9.44324325 C0.122,8.9614865 0.122,8.17972975 0.596,7.70067569 L7.48133331,0.721621625 C7.95533331,0.241891875 8.726,0.241891875 9.20133331,0.721621625 C9.67533331,1.20270269 9.67533331,1.98108106 9.20133331,2.46486488 L2.31466669,9.44324325 C2.078,9.68310813 1.76533331,9.80337838 1.45466669,9.80337838 C1.14333331,9.80337838 0.832,9.68310813 0.596,9.44324325 Z" id="Shape"></path>
                <path d="M7.482,9.44324325 L0.596666688,2.46486488 C0.122666687,1.98108106 0.122666687,1.20135138 0.596666688,0.721621625 C1.07066669,0.241891875 1.84066669,0.241891875 2.316,0.721621625 L9.20333331,7.70067569 C9.67733331,8.18040538 9.67733331,8.96216219 9.20333331,9.44324325 C8.96466669,9.68310813 8.654,9.80337838 8.342,9.80337838 C8.03,9.80337838 7.71933331,9.68310813 7.482,9.44324325 Z" id="Shape"></path>
            </g>
        </g>
    </g>
</svg>