<?xml version="1.0" encoding="UTF-8"?>
<svg width="80px" height="78px" viewBox="0 0 80 78" version="1.1" xmlns="http://www.w3.org/2000/svg" xmlns:xlink="http://www.w3.org/1999/xlink">
    <!-- Generator: Sketch 50.2 (55047) - http://www.bohemiancoding.com/sketch -->
    <title>parallel-coord</title>
    <desc>Created with Sketch.</desc>
    <defs></defs>
    <g id="Page-1" stroke="none" stroke-width="1" fill="none" fill-rule="evenodd">
        <g id="parallel-coord" transform="translate(0.000000, -1.000000)" fill="#5596E6" fill-rule="nonzero">
            <path d="M77.3333333,1.125 C76.1111111,1.125 75.1111111,2.25 75.1111111,3.625 L75.1111111,11.75 L42.4444444,11.25 L42.4444444,3.625 C42.4444444,2.25 41.4444444,1.125 40.2222222,1.125 C39,1.125 38,2.25 38,3.625 L38,11.75 L22.2222222,14.875 L5.22222222,6 L5.22222222,3.5 C5.22222222,2.125 4.22222222,1 3,1 C1.77777778,1 0.777777778,2.125 0.777777778,3.5 L0.777777778,76.375 C0.777777778,77.75 1.77777778,78.875 3,78.875 C4.22222222,78.875 5.22222222,77.75 5.22222222,76.375 L5.22222222,73 L38,71.5 L38,76.375 C38,77.75 39,78.875 40.2222222,78.875 C41.4444444,78.875 42.4444444,77.75 42.4444444,76.375 L42.4444444,69 L47.6666667,63.625 L75.1111111,73.875 L75.1111111,76.5 C75.1111111,77.875 76.1111111,79 77.3333333,79 C78.5555556,79 79.5555556,77.875 79.5555556,76.5 L79.5555556,3.625 C79.5555556,2.25 78.5555556,1.125 77.3333333,1.125 Z M5.22222222,19.375 L22.1111111,15.875 L38,24.125 L38,28 L5.22222222,26.25 L5.22222222,19.375 Z M38,50.625 L21.5555556,42.375 L38,35.5 L38,50.625 Z M42.4444444,29 L75.2222222,26.125 L75.2222222,34.125 L68.8888889,40.625 L42.4444444,34 L42.4444444,29 Z M75.1111111,35.375 L75.1111111,42.125 L69.7777778,40.75 L75.1111111,35.375 Z M75.1111111,25.125 L42.3333333,28 L42.3333333,24.625 L75.1111111,19.375 L75.1111111,25.125 Z M38,29 L38,34.5 L20.5555556,41.875 L5.33333333,34.125 L5.33333333,27.25 L38,29 Z M5.22222222,35.25 L19.3333333,42.375 L5.22222222,48.375 L5.22222222,35.25 Z M5.22222222,49.25 L20.4444444,42.875 L38,51.75 L38,59.875 L5.22222222,61.25 L5.22222222,49.25 Z M42.4444444,52.875 L55.5555556,54.25 L47.4444444,62.625 L42.4444444,60.75 L42.4444444,52.875 Z M42.4444444,51.875 L42.4444444,34.875 L68.1111111,41.375 L56.4444444,53.375 L42.4444444,51.875 Z M69.1111111,41.625 L75.2222222,43.125 L75.2222222,55.25 L57.6666667,53.5 L69.1111111,41.625 Z M75.1111111,12.625 L75.1111111,18.5 L42.4444444,23.75 L42.4444444,12.125 L75.1111111,12.625 Z M38,12.625 L38,23.125 L23.5555556,15.625 L38,12.625 Z M20.7777778,15.25 L5.22222222,18.375 L5.22222222,7.125 L20.7777778,15.25 Z M5.22222222,72.125 L5.22222222,62.25 L38,60.75 L38,70.625 L5.22222222,72.125 Z M42.4444444,67.75 L42.4444444,61.625 L46.7777778,63.25 L42.4444444,67.75 Z M48.3333333,62.875 L56.6666667,54.25 L75.1111111,56.25 L75.1111111,72.875 L48.3333333,62.875 Z" id="Shape"></path>
        </g>
    </g>
</svg>