<?xml version="1.0" encoding="UTF-8"?>
<svg width="80px" height="80px" viewBox="0 0 80 80" version="1.1" xmlns="http://www.w3.org/2000/svg" xmlns:xlink="http://www.w3.org/1999/xlink">
    <!-- Generator: Sketch 50.2 (55047) - http://www.bohemiancoding.com/sketch -->
    <title>pictogram</title>
    <desc>Created with Sketch.</desc>
    <defs></defs>
    <g id="Page-1" stroke="none" stroke-width="1" fill="none" fill-rule="evenodd">
        <g id="pictogram" fill="#5596E6" fill-rule="nonzero">
            <path d="M12.2807018,4.5 C12.2807018,2.015625 9.92494518,0 7.01754386,0 C4.11014254,0 1.75438596,2.015625 1.75438596,4.5 C1.75438596,6.98582813 4.11014254,9 7.01754386,9 C9.92494518,9 12.2807018,6.98582813 12.2807018,4.5 Z M7.01754386,7.5 C5.08070175,7.5 3.50877193,6.156 3.50877193,4.5 C3.50877193,2.844 5.08070175,1.5 7.01754386,1.5 C8.95353618,1.5 10.5263158,2.844 10.5263158,4.5 C10.5263158,6.156 8.95353618,7.5 7.01754386,7.5 Z M10.5263158,9 L7.01754386,9 L3.50877193,9 C1.57192982,9 0,10.344 0,12 L0,15 C0,16.6552734 1.57192982,18 3.50877193,18 L3.50877193,24 L10.5263158,24 L10.5263158,18 C12.4623081,18 14.0350877,16.6552734 14.0350877,15 L14.0350877,12 C14.0350877,10.344 12.4623081,9 10.5263158,9 Z M12.2807018,15 C12.2807018,15.8291016 11.4960252,16.5 10.5263158,16.5 L10.5263158,13.5 L8.77192982,13.5 L8.77192982,22.5 L5.26315789,22.5 L5.26315789,13.5 L3.50877193,13.5 L3.50877193,16.5 C2.54078947,16.5 1.75438596,15.8291016 1.75438596,15 L1.75438596,12 C1.75438596,11.172375 2.54078947,10.5 3.50877193,10.5 L10.5263158,10.5 C11.4960252,10.5 12.2807018,11.172375 12.2807018,12 L12.2807018,15 Z" id="Shape"></path>
            <path d="M28.6549708,4.5 C28.6549708,2.015625 26.2992142,0 23.3918129,0 C20.4844115,0 18.128655,2.015625 18.128655,4.5 C18.128655,6.98582813 20.4844115,9 23.3918129,9 C26.2992142,9 28.6549708,6.98582813 28.6549708,4.5 Z M23.3918129,7.5 C21.4549708,7.5 19.8830409,6.156 19.8830409,4.5 C19.8830409,2.844 21.4549708,1.5 23.3918129,1.5 C25.3278052,1.5 26.9005848,2.844 26.9005848,4.5 C26.9005848,6.156 25.3278052,7.5 23.3918129,7.5 Z M26.9005848,9 L23.3918129,9 L19.8830409,9 C17.9461988,9 16.374269,10.344 16.374269,12 L16.374269,15 C16.374269,16.6552734 17.9461988,18 19.8830409,18 L19.8830409,24 L26.9005848,24 L26.9005848,18 C28.8365771,18 30.4093567,16.6552734 30.4093567,15 L30.4093567,12 C30.4093567,10.344 28.8365771,9 26.9005848,9 Z M28.6549708,15 C28.6549708,15.8291016 27.8702942,16.5 26.9005848,16.5 L26.9005848,13.5 L25.1461988,13.5 L25.1461988,22.5 L21.6374269,22.5 L21.6374269,13.5 L19.8830409,13.5 L19.8830409,16.5 C18.9150585,16.5 18.128655,15.8291016 18.128655,15 L18.128655,12 C18.128655,11.172375 18.9150585,10.5 19.8830409,10.5 L26.9005848,10.5 C27.8702942,10.5 28.6549708,11.172375 28.6549708,12 L28.6549708,15 Z" id="Shape"></path>
            <path d="M45.0292398,4.5 C45.0292398,2.015625 42.6734832,0 39.7660819,0 C36.8586806,0 34.502924,2.015625 34.502924,4.5 C34.502924,6.98582813 36.8586806,9 39.7660819,9 C42.6734832,9 45.0292398,6.98582813 45.0292398,4.5 Z M39.7660819,7.5 C37.8292398,7.5 36.2573099,6.156 36.2573099,4.5 C36.2573099,2.844 37.8292398,1.5 39.7660819,1.5 C41.7020742,1.5 43.2748538,2.844 43.2748538,4.5 C43.2748538,6.156 41.7020742,7.5 39.7660819,7.5 Z M43.2748538,9 L39.7660819,9 L36.2573099,9 C34.3204678,9 32.748538,10.344 32.748538,12 L32.748538,15 C32.748538,16.6552734 34.3204678,18 36.2573099,18 L36.2573099,24 L43.2748538,24 L43.2748538,18 C45.2108461,18 46.7836257,16.6552734 46.7836257,15 L46.7836257,12 C46.7836257,10.344 45.2108461,9 43.2748538,9 Z M45.0292398,15 C45.0292398,15.8291016 44.2445632,16.5 43.2748538,16.5 L43.2748538,13.5 L41.5204678,13.5 L41.5204678,22.5 L38.0116959,22.5 L38.0116959,13.5 L36.2573099,13.5 L36.2573099,16.5 C35.2893275,16.5 34.502924,15.8291016 34.502924,15 L34.502924,12 C34.502924,11.172375 35.2893275,10.5 36.2573099,10.5 L43.2748538,10.5 C44.2445632,10.5 45.0292398,11.172375 45.0292398,12 L45.0292398,15 Z" id="Shape"></path>
            <path d="M61.4035088,4.5 C61.4035088,2.015625 59.0477522,0 56.1403509,0 C53.2329496,0 50.877193,2.015625 50.877193,4.5 C50.877193,6.98582813 53.2329496,9 56.1403509,9 C59.0477522,9 61.4035088,6.98582813 61.4035088,4.5 Z M56.1403509,7.5 C54.2035088,7.5 52.6315789,6.156 52.6315789,4.5 C52.6315789,2.844 54.2035088,1.5 56.1403509,1.5 C58.0763432,1.5 59.6491228,2.844 59.6491228,4.5 C59.6491228,6.156 58.0763432,7.5 56.1403509,7.5 Z M59.6491228,9 L56.1403509,9 L52.6315789,9 C50.6947368,9 49.122807,10.344 49.122807,12 L49.122807,15 C49.122807,16.6552734 50.6947368,18 52.6315789,18 L52.6315789,24 L59.6491228,24 L59.6491228,18 C61.5851151,18 63.1578947,16.6552734 63.1578947,15 L63.1578947,12 C63.1578947,10.344 61.5851151,9 59.6491228,9 Z M61.4035088,15 C61.4035088,15.8291016 60.6188322,16.5 59.6491228,16.5 L59.6491228,13.5 L57.8947368,13.5 L57.8947368,22.5 L54.3859649,22.5 L54.3859649,13.5 L52.6315789,13.5 L52.6315789,16.5 C51.6635965,16.5 50.877193,15.8291016 50.877193,15 L50.877193,12 C50.877193,11.172375 51.6635965,10.5 52.6315789,10.5 L59.6491228,10.5 C60.6188322,10.5 61.4035088,11.172375 61.4035088,12 L61.4035088,15 Z" id="Shape"></path>
            <path d="M77.7777778,4.5 C77.7777778,2.015625 75.4220212,0 72.5146199,0 C69.6072186,0 67.251462,2.015625 67.251462,4.5 C67.251462,6.98582813 69.6072186,9 72.5146199,9 C75.4220212,9 77.7777778,6.98582813 77.7777778,4.5 Z M72.5146199,7.5 C70.5777778,7.5 69.005848,6.156 69.005848,4.5 C69.005848,2.844 70.5777778,1.5 72.5146199,1.5 C74.4506122,1.5 76.0233918,2.844 76.0233918,4.5 C76.0233918,6.156 74.4506122,7.5 72.5146199,7.5 Z M76.0233918,9 L72.5146199,9 L69.005848,9 C67.0690058,9 65.497076,10.344 65.497076,12 L65.497076,15 C65.497076,16.6552734 67.0690058,18 69.005848,18 L69.005848,24 L76.0233918,24 L76.0233918,18 C77.9593841,18 79.5321637,16.6552734 79.5321637,15 L79.5321637,12 C79.5321637,10.344 77.9593841,9 76.0233918,9 Z M77.7777778,15 C77.7777778,15.8291016 76.9931012,16.5 76.0233918,16.5 L76.0233918,13.5 L74.2690058,13.5 L74.2690058,22.5 L70.7602339,22.5 L70.7602339,13.5 L69.005848,13.5 L69.005848,16.5 C68.0378655,16.5 67.251462,15.8291016 67.251462,15 L67.251462,12 C67.251462,11.172375 68.0378655,10.5 69.005848,10.5 L76.0233918,10.5 C76.9931012,10.5 77.7777778,11.172375 77.7777778,12 L77.7777778,15 Z" id="Shape"></path>
            <path d="M12.2807018,59.6111111 C12.2807018,57.1267361 9.92494518,55.1111111 7.01754386,55.1111111 C4.11014254,55.1111111 1.75438596,57.1267361 1.75438596,59.6111111 C1.75438596,62.0969392 4.11014254,64.1111111 7.01754386,64.1111111 C9.92494518,64.1111111 12.2807018,62.0969392 12.2807018,59.6111111 Z M7.01754386,62.6111111 C5.08070175,62.6111111 3.50877193,61.2671111 3.50877193,59.6111111 C3.50877193,57.9551111 5.08070175,56.6111111 7.01754386,56.6111111 C8.95353618,56.6111111 10.5263158,57.9551111 10.5263158,59.6111111 C10.5263158,61.2671111 8.95353618,62.6111111 7.01754386,62.6111111 Z M10.5263158,64.1111111 L7.01754386,64.1111111 L3.50877193,64.1111111 C1.57192982,64.1111111 0,65.4551111 0,67.1111111 L0,70.1111111 C0,71.7663845 1.57192982,73.1111111 3.50877193,73.1111111 L3.50877193,79.1111111 L10.5263158,79.1111111 L10.5263158,73.1111111 C12.4623081,73.1111111 14.0350877,71.7663845 14.0350877,70.1111111 L14.0350877,67.1111111 C14.0350877,65.4551111 12.4623081,64.1111111 10.5263158,64.1111111 Z M12.2807018,70.1111111 C12.2807018,70.9402127 11.4960252,71.6111111 10.5263158,71.6111111 L10.5263158,68.6111111 L8.77192982,68.6111111 L8.77192982,77.6111111 L5.26315789,77.6111111 L5.26315789,68.6111111 L3.50877193,68.6111111 L3.50877193,71.6111111 C2.54078947,71.6111111 1.75438596,70.9402127 1.75438596,70.1111111 L1.75438596,67.1111111 C1.75438596,66.2834861 2.54078947,65.6111111 3.50877193,65.6111111 L10.5263158,65.6111111 C11.4960252,65.6111111 12.2807018,66.2834861 12.2807018,67.1111111 L12.2807018,70.1111111 Z" id="Shape" opacity="0.603125"></path>
            <path d="M28.6549708,59.6111111 C28.6549708,57.1267361 26.2992142,55.1111111 23.3918129,55.1111111 C20.4844115,55.1111111 18.128655,57.1267361 18.128655,59.6111111 C18.128655,62.0969392 20.4844115,64.1111111 23.3918129,64.1111111 C26.2992142,64.1111111 28.6549708,62.0969392 28.6549708,59.6111111 Z M23.3918129,62.6111111 C21.4549708,62.6111111 19.8830409,61.2671111 19.8830409,59.6111111 C19.8830409,57.9551111 21.4549708,56.6111111 23.3918129,56.6111111 C25.3278052,56.6111111 26.9005848,57.9551111 26.9005848,59.6111111 C26.9005848,61.2671111 25.3278052,62.6111111 23.3918129,62.6111111 Z M26.9005848,64.1111111 L23.3918129,64.1111111 L19.8830409,64.1111111 C17.9461988,64.1111111 16.374269,65.4551111 16.374269,67.1111111 L16.374269,70.1111111 C16.374269,71.7663845 17.9461988,73.1111111 19.8830409,73.1111111 L19.8830409,79.1111111 L26.9005848,79.1111111 L26.9005848,73.1111111 C28.8365771,73.1111111 30.4093567,71.7663845 30.4093567,70.1111111 L30.4093567,67.1111111 C30.4093567,65.4551111 28.8365771,64.1111111 26.9005848,64.1111111 Z M28.6549708,70.1111111 C28.6549708,70.9402127 27.8702942,71.6111111 26.9005848,71.6111111 L26.9005848,68.6111111 L25.1461988,68.6111111 L25.1461988,77.6111111 L21.6374269,77.6111111 L21.6374269,68.6111111 L19.8830409,68.6111111 L19.8830409,71.6111111 C18.9150585,71.6111111 18.128655,70.9402127 18.128655,70.1111111 L18.128655,67.1111111 C18.128655,66.2834861 18.9150585,65.6111111 19.8830409,65.6111111 L26.9005848,65.6111111 C27.8702942,65.6111111 28.6549708,66.2834861 28.6549708,67.1111111 L28.6549708,70.1111111 Z" id="Shape" opacity="0.603125"></path>
            <path d="M45.0292398,59.6111111 C45.0292398,57.1267361 42.6734832,55.1111111 39.7660819,55.1111111 C36.8586806,55.1111111 34.502924,57.1267361 34.502924,59.6111111 C34.502924,62.0969392 36.8586806,64.1111111 39.7660819,64.1111111 C42.6734832,64.1111111 45.0292398,62.0969392 45.0292398,59.6111111 Z M39.7660819,62.6111111 C37.8292398,62.6111111 36.2573099,61.2671111 36.2573099,59.6111111 C36.2573099,57.9551111 37.8292398,56.6111111 39.7660819,56.6111111 C41.7020742,56.6111111 43.2748538,57.9551111 43.2748538,59.6111111 C43.2748538,61.2671111 41.7020742,62.6111111 39.7660819,62.6111111 Z M43.2748538,64.1111111 L39.7660819,64.1111111 L36.2573099,64.1111111 C34.3204678,64.1111111 32.748538,65.4551111 32.748538,67.1111111 L32.748538,70.1111111 C32.748538,71.7663845 34.3204678,73.1111111 36.2573099,73.1111111 L36.2573099,79.1111111 L43.2748538,79.1111111 L43.2748538,73.1111111 C45.2108461,73.1111111 46.7836257,71.7663845 46.7836257,70.1111111 L46.7836257,67.1111111 C46.7836257,65.4551111 45.2108461,64.1111111 43.2748538,64.1111111 Z M45.0292398,70.1111111 C45.0292398,70.9402127 44.2445632,71.6111111 43.2748538,71.6111111 L43.2748538,68.6111111 L41.5204678,68.6111111 L41.5204678,77.6111111 L38.0116959,77.6111111 L38.0116959,68.6111111 L36.2573099,68.6111111 L36.2573099,71.6111111 C35.2893275,71.6111111 34.502924,70.9402127 34.502924,70.1111111 L34.502924,67.1111111 C34.502924,66.2834861 35.2893275,65.6111111 36.2573099,65.6111111 L43.2748538,65.6111111 C44.2445632,65.6111111 45.0292398,66.2834861 45.0292398,67.1111111 L45.0292398,70.1111111 Z" id="Shape" opacity="0.603125"></path>
            <path d="M61.4035088,59.6111111 C61.4035088,57.1267361 59.0477522,55.1111111 56.1403509,55.1111111 C53.2329496,55.1111111 50.877193,57.1267361 50.877193,59.6111111 C50.877193,62.0969392 53.2329496,64.1111111 56.1403509,64.1111111 C59.0477522,64.1111111 61.4035088,62.0969392 61.4035088,59.6111111 Z M56.1403509,62.6111111 C54.2035088,62.6111111 52.6315789,61.2671111 52.6315789,59.6111111 C52.6315789,57.9551111 54.2035088,56.6111111 56.1403509,56.6111111 C58.0763432,56.6111111 59.6491228,57.9551111 59.6491228,59.6111111 C59.6491228,61.2671111 58.0763432,62.6111111 56.1403509,62.6111111 Z M59.6491228,64.1111111 L56.1403509,64.1111111 L52.6315789,64.1111111 C50.6947368,64.1111111 49.122807,65.4551111 49.122807,67.1111111 L49.122807,70.1111111 C49.122807,71.7663845 50.6947368,73.1111111 52.6315789,73.1111111 L52.6315789,79.1111111 L59.6491228,79.1111111 L59.6491228,73.1111111 C61.5851151,73.1111111 63.1578947,71.7663845 63.1578947,70.1111111 L63.1578947,67.1111111 C63.1578947,65.4551111 61.5851151,64.1111111 59.6491228,64.1111111 Z M61.4035088,70.1111111 C61.4035088,70.9402127 60.6188322,71.6111111 59.6491228,71.6111111 L59.6491228,68.6111111 L57.8947368,68.6111111 L57.8947368,77.6111111 L54.3859649,77.6111111 L54.3859649,68.6111111 L52.6315789,68.6111111 L52.6315789,71.6111111 C51.6635965,71.6111111 50.877193,70.9402127 50.877193,70.1111111 L50.877193,67.1111111 C50.877193,66.2834861 51.6635965,65.6111111 52.6315789,65.6111111 L59.6491228,65.6111111 C60.6188322,65.6111111 61.4035088,66.2834861 61.4035088,67.1111111 L61.4035088,70.1111111 Z" id="Shape" opacity="0.297209821"></path>
            <path d="M77.7777778,59.6111111 C77.7777778,57.1267361 75.4220212,55.1111111 72.5146199,55.1111111 C69.6072186,55.1111111 67.251462,57.1267361 67.251462,59.6111111 C67.251462,62.0969392 69.6072186,64.1111111 72.5146199,64.1111111 C75.4220212,64.1111111 77.7777778,62.0969392 77.7777778,59.6111111 Z M72.5146199,62.6111111 C70.5777778,62.6111111 69.005848,61.2671111 69.005848,59.6111111 C69.005848,57.9551111 70.5777778,56.6111111 72.5146199,56.6111111 C74.4506122,56.6111111 76.0233918,57.9551111 76.0233918,59.6111111 C76.0233918,61.2671111 74.4506122,62.6111111 72.5146199,62.6111111 Z M76.0233918,64.1111111 L72.5146199,64.1111111 L69.005848,64.1111111 C67.0690058,64.1111111 65.497076,65.4551111 65.497076,67.1111111 L65.497076,70.1111111 C65.497076,71.7663845 67.0690058,73.1111111 69.005848,73.1111111 L69.005848,79.1111111 L76.0233918,79.1111111 L76.0233918,73.1111111 C77.9593841,73.1111111 79.5321637,71.7663845 79.5321637,70.1111111 L79.5321637,67.1111111 C79.5321637,65.4551111 77.9593841,64.1111111 76.0233918,64.1111111 Z M77.7777778,70.1111111 C77.7777778,70.9402127 76.9931012,71.6111111 76.0233918,71.6111111 L76.0233918,68.6111111 L74.2690058,68.6111111 L74.2690058,77.6111111 L70.7602339,77.6111111 L70.7602339,68.6111111 L69.005848,68.6111111 L69.005848,71.6111111 C68.0378655,71.6111111 67.251462,70.9402127 67.251462,70.1111111 L67.251462,67.1111111 C67.251462,66.2834861 68.0378655,65.6111111 69.005848,65.6111111 L76.0233918,65.6111111 C76.9931012,65.6111111 77.7777778,66.2834861 77.7777778,67.1111111 L77.7777778,70.1111111 Z" id="Shape" opacity="0.300558036"></path>
            <path d="M12.2807018,32.0555556 C12.2807018,29.5711806 9.92494518,27.5555556 7.01754386,27.5555556 C4.11014254,27.5555556 1.75438596,29.5711806 1.75438596,32.0555556 C1.75438596,34.5413837 4.11014254,36.5555556 7.01754386,36.5555556 C9.92494518,36.5555556 12.2807018,34.5413837 12.2807018,32.0555556 Z M7.01754386,35.0555556 C5.08070175,35.0555556 3.50877193,33.7115556 3.50877193,32.0555556 C3.50877193,30.3995556 5.08070175,29.0555556 7.01754386,29.0555556 C8.95353618,29.0555556 10.5263158,30.3995556 10.5263158,32.0555556 C10.5263158,33.7115556 8.95353618,35.0555556 7.01754386,35.0555556 Z M10.5263158,36.5555556 L7.01754386,36.5555556 L3.50877193,36.5555556 C1.57192982,36.5555556 0,37.8995556 0,39.5555556 L0,42.5555556 C0,44.210829 1.57192982,45.5555556 3.50877193,45.5555556 L3.50877193,51.5555556 L10.5263158,51.5555556 L10.5263158,45.5555556 C12.4623081,45.5555556 14.0350877,44.210829 14.0350877,42.5555556 L14.0350877,39.5555556 C14.0350877,37.8995556 12.4623081,36.5555556 10.5263158,36.5555556 Z M12.2807018,42.5555556 C12.2807018,43.3846571 11.4960252,44.0555556 10.5263158,44.0555556 L10.5263158,41.0555556 L8.77192982,41.0555556 L8.77192982,50.0555556 L5.26315789,50.0555556 L5.26315789,41.0555556 L3.50877193,41.0555556 L3.50877193,44.0555556 C2.54078947,44.0555556 1.75438596,43.3846571 1.75438596,42.5555556 L1.75438596,39.5555556 C1.75438596,38.7279306 2.54078947,38.0555556 3.50877193,38.0555556 L10.5263158,38.0555556 C11.4960252,38.0555556 12.2807018,38.7279306 12.2807018,39.5555556 L12.2807018,42.5555556 Z" id="Shape"></path>
            <path d="M28.6549708,32.0555556 C28.6549708,29.5711806 26.2992142,27.5555556 23.3918129,27.5555556 C20.4844115,27.5555556 18.128655,29.5711806 18.128655,32.0555556 C18.128655,34.5413837 20.4844115,36.5555556 23.3918129,36.5555556 C26.2992142,36.5555556 28.6549708,34.5413837 28.6549708,32.0555556 Z M23.3918129,35.0555556 C21.4549708,35.0555556 19.8830409,33.7115556 19.8830409,32.0555556 C19.8830409,30.3995556 21.4549708,29.0555556 23.3918129,29.0555556 C25.3278052,29.0555556 26.9005848,30.3995556 26.9005848,32.0555556 C26.9005848,33.7115556 25.3278052,35.0555556 23.3918129,35.0555556 Z M26.9005848,36.5555556 L23.3918129,36.5555556 L19.8830409,36.5555556 C17.9461988,36.5555556 16.374269,37.8995556 16.374269,39.5555556 L16.374269,42.5555556 C16.374269,44.210829 17.9461988,45.5555556 19.8830409,45.5555556 L19.8830409,51.5555556 L26.9005848,51.5555556 L26.9005848,45.5555556 C28.8365771,45.5555556 30.4093567,44.210829 30.4093567,42.5555556 L30.4093567,39.5555556 C30.4093567,37.8995556 28.8365771,36.5555556 26.9005848,36.5555556 Z M28.6549708,42.5555556 C28.6549708,43.3846571 27.8702942,44.0555556 26.9005848,44.0555556 L26.9005848,41.0555556 L25.1461988,41.0555556 L25.1461988,50.0555556 L21.6374269,50.0555556 L21.6374269,41.0555556 L19.8830409,41.0555556 L19.8830409,44.0555556 C18.9150585,44.0555556 18.128655,43.3846571 18.128655,42.5555556 L18.128655,39.5555556 C18.128655,38.7279306 18.9150585,38.0555556 19.8830409,38.0555556 L26.9005848,38.0555556 C27.8702942,38.0555556 28.6549708,38.7279306 28.6549708,39.5555556 L28.6549708,42.5555556 Z" id="Shape"></path>
            <path d="M45.0292398,32.0555556 C45.0292398,29.5711806 42.6734832,27.5555556 39.7660819,27.5555556 C36.8586806,27.5555556 34.502924,29.5711806 34.502924,32.0555556 C34.502924,34.5413837 36.8586806,36.5555556 39.7660819,36.5555556 C42.6734832,36.5555556 45.0292398,34.5413837 45.0292398,32.0555556 Z M39.7660819,35.0555556 C37.8292398,35.0555556 36.2573099,33.7115556 36.2573099,32.0555556 C36.2573099,30.3995556 37.8292398,29.0555556 39.7660819,29.0555556 C41.7020742,29.0555556 43.2748538,30.3995556 43.2748538,32.0555556 C43.2748538,33.7115556 41.7020742,35.0555556 39.7660819,35.0555556 Z M43.2748538,36.5555556 L39.7660819,36.5555556 L36.2573099,36.5555556 C34.3204678,36.5555556 32.748538,37.8995556 32.748538,39.5555556 L32.748538,42.5555556 C32.748538,44.210829 34.3204678,45.5555556 36.2573099,45.5555556 L36.2573099,51.5555556 L43.2748538,51.5555556 L43.2748538,45.5555556 C45.2108461,45.5555556 46.7836257,44.210829 46.7836257,42.5555556 L46.7836257,39.5555556 C46.7836257,37.8995556 45.2108461,36.5555556 43.2748538,36.5555556 Z M45.0292398,42.5555556 C45.0292398,43.3846571 44.2445632,44.0555556 43.2748538,44.0555556 L43.2748538,41.0555556 L41.5204678,41.0555556 L41.5204678,50.0555556 L38.0116959,50.0555556 L38.0116959,41.0555556 L36.2573099,41.0555556 L36.2573099,44.0555556 C35.2893275,44.0555556 34.502924,43.3846571 34.502924,42.5555556 L34.502924,39.5555556 C34.502924,38.7279306 35.2893275,38.0555556 36.2573099,38.0555556 L43.2748538,38.0555556 C44.2445632,38.0555556 45.0292398,38.7279306 45.0292398,39.5555556 L45.0292398,42.5555556 Z" id="Shape" opacity="0.603125"></path>
            <path d="M61.4035088,32.0555556 C61.4035088,29.5711806 59.0477522,27.5555556 56.1403509,27.5555556 C53.2329496,27.5555556 50.877193,29.5711806 50.877193,32.0555556 C50.877193,34.5413837 53.2329496,36.5555556 56.1403509,36.5555556 C59.0477522,36.5555556 61.4035088,34.5413837 61.4035088,32.0555556 Z M56.1403509,35.0555556 C54.2035088,35.0555556 52.6315789,33.7115556 52.6315789,32.0555556 C52.6315789,30.3995556 54.2035088,29.0555556 56.1403509,29.0555556 C58.0763432,29.0555556 59.6491228,30.3995556 59.6491228,32.0555556 C59.6491228,33.7115556 58.0763432,35.0555556 56.1403509,35.0555556 Z M59.6491228,36.5555556 L56.1403509,36.5555556 L52.6315789,36.5555556 C50.6947368,36.5555556 49.122807,37.8995556 49.122807,39.5555556 L49.122807,42.5555556 C49.122807,44.210829 50.6947368,45.5555556 52.6315789,45.5555556 L52.6315789,51.5555556 L59.6491228,51.5555556 L59.6491228,45.5555556 C61.5851151,45.5555556 63.1578947,44.210829 63.1578947,42.5555556 L63.1578947,39.5555556 C63.1578947,37.8995556 61.5851151,36.5555556 59.6491228,36.5555556 Z M61.4035088,42.5555556 C61.4035088,43.3846571 60.6188322,44.0555556 59.6491228,44.0555556 L59.6491228,41.0555556 L57.8947368,41.0555556 L57.8947368,50.0555556 L54.3859649,50.0555556 L54.3859649,41.0555556 L52.6315789,41.0555556 L52.6315789,44.0555556 C51.6635965,44.0555556 50.877193,43.3846571 50.877193,42.5555556 L50.877193,39.5555556 C50.877193,38.7279306 51.6635965,38.0555556 52.6315789,38.0555556 L59.6491228,38.0555556 C60.6188322,38.0555556 61.4035088,38.7279306 61.4035088,39.5555556 L61.4035088,42.5555556 Z" id="Shape" opacity="0.603125"></path>
            <path d="M77.7777778,32.0555556 C77.7777778,29.5711806 75.4220212,27.5555556 72.5146199,27.5555556 C69.6072186,27.5555556 67.251462,29.5711806 67.251462,32.0555556 C67.251462,34.5413837 69.6072186,36.5555556 72.5146199,36.5555556 C75.4220212,36.5555556 77.7777778,34.5413837 77.7777778,32.0555556 Z M72.5146199,35.0555556 C70.5777778,35.0555556 69.005848,33.7115556 69.005848,32.0555556 C69.005848,30.3995556 70.5777778,29.0555556 72.5146199,29.0555556 C74.4506122,29.0555556 76.0233918,30.3995556 76.0233918,32.0555556 C76.0233918,33.7115556 74.4506122,35.0555556 72.5146199,35.0555556 Z M76.0233918,36.5555556 L72.5146199,36.5555556 L69.005848,36.5555556 C67.0690058,36.5555556 65.497076,37.8995556 65.497076,39.5555556 L65.497076,42.5555556 C65.497076,44.210829 67.0690058,45.5555556 69.005848,45.5555556 L69.005848,51.5555556 L76.0233918,51.5555556 L76.0233918,45.5555556 C77.9593841,45.5555556 79.5321637,44.210829 79.5321637,42.5555556 L79.5321637,39.5555556 C79.5321637,37.8995556 77.9593841,36.5555556 76.0233918,36.5555556 Z M77.7777778,42.5555556 C77.7777778,43.3846571 76.9931012,44.0555556 76.0233918,44.0555556 L76.0233918,41.0555556 L74.2690058,41.0555556 L74.2690058,50.0555556 L70.7602339,50.0555556 L70.7602339,41.0555556 L69.005848,41.0555556 L69.005848,44.0555556 C68.0378655,44.0555556 67.251462,43.3846571 67.251462,42.5555556 L67.251462,39.5555556 C67.251462,38.7279306 68.0378655,38.0555556 69.005848,38.0555556 L76.0233918,38.0555556 C76.9931012,38.0555556 77.7777778,38.7279306 77.7777778,39.5555556 L77.7777778,42.5555556 Z" id="Shape" opacity="0.603125"></path>
        </g>
    </g>
</svg>