<?xml version="1.0" encoding="UTF-8"?>
<svg width="80px" height="80px" viewBox="0 0 80 80" version="1.1" xmlns="http://www.w3.org/2000/svg" xmlns:xlink="http://www.w3.org/1999/xlink">
    <!-- Generator: Sketch 50.2 (55047) - http://www.bohemiancoding.com/sketch -->
    <title>point-and-figure</title>
    <desc>Created with Sketch.</desc>
    <defs></defs>
    <g id="Page-1" stroke="none" stroke-width="1" fill="none" fill-rule="evenodd">
        <g id="point-and-figure" fill="#5596E6" fill-rule="nonzero">
            <path d="M0.672,70.1772973 C0.6752,65.3708108 4.51413333,61.4789189 9.26186667,61.4767568 C14.0032,61.4789189 17.8453333,65.3708108 17.8485333,70.1772973 C17.8464,74.9837838 14.0032,78.8810811 9.26186667,78.8810811 C4.51413333,78.8810811 0.6752,74.9837838 0.672,70.1772973 Z M4.5632,70.1772973 C4.5664,72.8075676 6.6656,74.9340541 9.26186667,74.9383784 C11.8528,74.9340541 13.9552,72.8064865 13.9584,70.1772973 C13.9562667,67.5491892 11.8528,65.4205405 9.26186667,65.4151351 C6.66666667,65.4205405 4.56746667,67.5491892 4.5632,70.1772973 Z" id="Shape"></path>
            <path d="M0.673066667,50.1416216 C0.6752,45.3372973 4.51733333,41.4432432 9.26186667,41.4389189 C14.0032,41.4421622 17.8453333,45.3362162 17.8464,50.1416216 C17.8453333,54.9524324 14.0021333,58.8432432 9.26186667,58.8464865 C4.51733333,58.8454054 0.6752,54.9524324 0.673066667,50.1416216 Z M4.5632,50.1416216 C4.56533333,52.7751351 6.6688,54.9005405 9.26186667,54.9059459 C11.8517333,54.9005405 13.9552,52.7740541 13.9584,50.1416216 C13.9562667,47.5156757 11.8517333,45.3837838 9.26186667,45.3805405 C6.6688,45.3827027 4.5664,47.5167568 4.5632,50.1416216 Z" id="Shape"></path>
            <path d="M0.673066667,29.1221622 C0.677333333,24.3145946 4.51733333,20.4237838 9.25866667,20.4216216 C14.0032,20.4237838 17.8453333,24.3167568 17.8464,29.1221622 C17.8453333,33.9308108 14.0021333,37.8248649 9.25866667,37.8281081 C4.51733333,37.8259459 0.677333333,33.9318919 0.673066667,29.1221622 Z M4.56106667,29.1221622 C4.56853333,31.7524324 6.66666667,33.88 9.2608,33.8843243 C11.8538667,33.8821622 13.9541333,31.7524324 13.9594667,29.1221622 C13.9562667,26.4962162 11.8538667,24.3664865 9.2608,24.36 C6.66666667,24.3675676 4.56853333,26.4962162 4.56106667,29.1221622 Z" id="Shape"></path>
            <path d="M42.6378667,29.9481081 C42.6410667,25.1383784 46.4789333,21.2454054 51.2234667,21.2421622 C55.9701333,21.2443243 59.8101333,25.1383784 59.8112,29.9481081 C59.8101333,34.7535135 55.9701333,38.6475676 51.2234667,38.6475676 C46.4778667,38.6475676 42.6410667,34.7535135 42.6378667,29.9481081 Z M46.5269333,29.9481081 C46.5322667,32.5762162 48.6293333,34.7037838 51.2224,34.707027 C53.8186667,34.7048649 55.9178667,32.5762162 55.9221333,29.9481081 C55.9178667,27.3189189 53.8176,25.1902703 51.2224,25.1859459 C48.6304,25.1902703 46.5322667,27.3189189 46.5269333,29.9481081 Z" id="Shape"></path>
            <path d="M42.6378667,8.92648649 C42.6410667,4.11891892 46.4821333,0.227027027 51.2256,0.221621622 C55.9701333,0.225945946 59.8101333,4.11891892 59.8112,8.92648649 C59.8101333,13.7351351 55.9701333,17.627027 51.2256,17.6291892 C46.4810667,17.627027 42.6410667,13.7351351 42.6378667,8.92648649 Z M46.5269333,8.92648649 C46.5290667,11.5535135 48.6304,13.6843243 51.2245333,13.6875676 C53.8186667,13.6843243 55.92,11.5524324 55.92,8.92648649 C55.92,6.29837838 53.8176,4.16756757 51.2245333,4.16324324 C48.6304,4.16648649 46.5290667,6.29837838 46.5269333,8.92648649 Z" id="Shape"></path>
            <path d="M22.9536,58.1091892 C22.1952,57.3383784 22.1952,56.0875676 22.9536,55.3210811 L33.9701333,44.1545946 C34.7285333,43.387027 35.9616,43.387027 36.7221333,44.1545946 C37.4805333,44.9243243 37.4805333,46.1697297 36.7221333,46.9437838 L25.7034667,58.1091892 C25.3248,58.492973 24.8245333,58.6854054 24.3274667,58.6854054 C23.8293333,58.6854054 23.3312,58.492973 22.9536,58.1091892 Z" id="Shape"></path>
            <path d="M33.9712,58.1091892 L22.9546667,46.9437838 C22.1962667,46.1697297 22.1962667,44.9221622 22.9546667,44.1545946 C23.7130667,43.387027 24.9450667,43.387027 25.7056,44.1545946 L36.7253333,55.3210811 C37.4837333,56.0886486 37.4837333,57.3394595 36.7253333,58.1091892 C36.3434667,58.492973 35.8464,58.6854054 35.3472,58.6854054 C34.848,58.6854054 34.3509333,58.492973 33.9712,58.1091892 Z" id="Shape"></path>
            <path d="M22.9536,36.4324324 C22.1930667,35.6627027 22.1930667,34.4140541 22.9536,33.6464865 L33.9701333,22.4767568 C34.7296,21.7081081 35.9616,21.7081081 36.7210667,22.4767568 C37.4805333,23.2464865 37.4805333,24.4951351 36.7210667,25.2648649 L25.7002667,36.4324324 C25.3226667,36.8162162 24.8256,37.0086486 24.3285333,37.0086486 C23.8304,37.0086486 23.3312,36.8162162 22.9536,36.4324324 Z" id="Shape"></path>
            <path d="M33.9712,36.4324324 L22.9546667,25.2648649 C22.1952,24.4962162 22.1952,23.2464865 22.9546667,22.4767568 C23.7141333,21.7081081 24.9472,21.7081081 25.7013333,22.4767568 L36.7221333,33.6464865 C37.4816,34.412973 37.4816,35.6627027 36.7221333,36.4324324 C36.3434667,36.8162162 35.8453333,37.0086486 35.3472,37.0086486 C34.848,37.0086486 34.3509333,36.8162162 33.9712,36.4324324 Z" id="Shape"></path>
            <path d="M22.9536,14.9178378 C22.1952,14.1491892 22.1952,12.9027027 22.9536,12.132973 L33.9712,0.963243243 C34.7296,0.195675676 35.9626667,0.195675676 36.7210667,0.963243243 C37.4794667,1.73189189 37.4794667,2.9827027 36.7210667,3.75027027 L25.7013333,14.9178378 C25.3237333,15.3037838 24.8256,15.4962162 24.3264,15.4962162 C23.8304,15.4962162 23.3312,15.3037838 22.9536,14.9178378 Z" id="Shape"></path>
            <path d="M33.9722667,14.9178378 L22.9546667,3.75135135 C22.1962667,2.98378378 22.1962667,1.73297297 22.9546667,0.964324324 C23.7130667,0.196756757 24.9461333,0.196756757 25.7034667,0.964324324 L36.7221333,12.1340541 C37.4805333,12.9027027 37.4805333,14.1491892 36.7221333,14.9189189 C36.3434667,15.3048649 35.8453333,15.4972973 35.3482667,15.4972973 C34.8490667,15.4962162 34.3509333,15.3037838 33.9722667,14.9178378 Z" id="Shape"></path>
            <path d="M65.5648,78.4713514 C64.8096,77.6972973 64.8096,76.4497297 65.5648,75.6821622 L76.5845333,64.5178378 C77.3450667,63.7448649 78.5738667,63.7448649 79.3354667,64.5178378 C80.096,65.2864865 80.096,66.5340541 79.3354667,67.3027027 L68.3146667,78.4713514 C67.9370667,78.852973 67.4410667,79.0464865 66.9429333,79.0464865 C66.4426667,79.0475676 65.9445333,78.852973 65.5648,78.4713514 Z" id="Shape"></path>
            <path d="M76.5845333,78.4713514 L65.5648,67.3027027 C64.8096,66.5318919 64.8096,65.2843243 65.5648,64.5178378 C66.3253333,63.7448649 67.5584,63.7448649 68.3146667,64.5178378 L79.3354667,75.6821622 C80.096,76.4518919 80.096,77.6983784 79.3354667,78.4713514 C78.9546667,78.852973 78.4554667,79.0464865 77.9584,79.0464865 C77.4602667,79.0475676 76.9632,78.852973 76.5845333,78.4713514 Z" id="Shape"></path>
            <path d="M65.5648,58.1113514 C64.8096,57.3372973 64.8096,56.0908108 65.5648,55.3232432 L76.5824,44.1535135 C77.3450667,43.3859459 78.5781333,43.3859459 79.3354667,44.1535135 C80.0938667,44.9221622 80.0938667,46.1697297 79.3354667,46.9383784 L68.3146667,58.1113514 C67.9370667,58.4951351 67.4410667,58.6864865 66.9429333,58.6864865 C66.4437333,58.6864865 65.9445333,58.4962162 65.5648,58.1113514 Z" id="Shape"></path>
            <path d="M76.5824,58.1113514 L65.5648,46.9383784 C64.8096,46.1675676 64.8096,44.9221622 65.5648,44.1535135 C66.3285333,43.3859459 67.5594667,43.3859459 68.3146667,44.1535135 L79.3354667,55.3232432 C80.0938667,56.0918919 80.0938667,57.3383784 79.3354667,58.1113514 C78.9546667,58.4951351 78.4565333,58.6864865 77.9605333,58.6864865 C77.4613333,58.6864865 76.9632,58.4962162 76.5824,58.1113514 Z" id="Shape"></path>
            <path d="M65.5648,37.0886486 C64.8096,36.32 64.8096,35.0724324 65.5648,34.3005405 L76.5856,23.1351351 C77.3450667,22.3675676 78.576,22.3675676 79.3354667,23.1351351 C80.096,23.9059459 80.096,25.1535135 79.3354667,25.9243243 L68.3168,37.0897297 C67.9381333,37.4767568 67.4410667,37.6681081 66.9429333,37.6681081 C66.4426667,37.667027 65.9445333,37.4756757 65.5648,37.0886486 Z" id="Shape"></path>
            <path d="M76.5856,37.0886486 L65.5648,25.9232432 C64.8096,25.1535135 64.8096,23.9059459 65.5648,23.1340541 C66.3253333,22.3664865 67.5594667,22.3664865 68.3168,23.1340541 L79.3354667,34.3005405 C80.096,35.0713514 80.096,36.32 79.3354667,37.0886486 C78.9546667,37.4756757 78.4565333,37.667027 77.9605333,37.667027 C77.4613333,37.667027 76.9642667,37.4756757 76.5856,37.0886486 Z" id="Shape"></path>
        </g>
    </g>
</svg>