<?xml version="1.0" encoding="UTF-8"?>
<svg width="82px" height="83px" viewBox="0 0 82 83" version="1.1" xmlns="http://www.w3.org/2000/svg" xmlns:xlink="http://www.w3.org/1999/xlink">
    <!-- Generator: Sketch 50.2 (55047) - http://www.bohemiancoding.com/sketch -->
    <title>sunburst</title>
    <desc>Created with Sketch.</desc>
    <defs></defs>
    <g id="Page-1" stroke="none" stroke-width="1" fill="none" fill-rule="evenodd">
        <g id="sunburst">
            <g id="Group" transform="translate(1.000000, 1.000000)" stroke="#FFFFFF" stroke-width="2">
                <circle id="Oval" fill="#5596E6" fill-rule="nonzero" cx="40" cy="40" r="40"></circle>
                <circle id="Oval" fill="#5596E6" fill-rule="nonzero" cx="40" cy="40" r="30"></circle>
                <circle id="Oval" fill="#5596E6" fill-rule="nonzero" cx="40" cy="40" r="20"></circle>
                <circle id="Oval" fill="#FFFFFF" fill-rule="nonzero" cx="40" cy="40" r="10"></circle>
                <polyline id="Line" stroke-linecap="square" points="0.49382716 40 9.94143887 40 19.9067801 40 29.7016245 40 50.486479 40 60.1687843 40 70.0525346 40 79.5061728 40"></polyline>
                <polyline id="Line" stroke-linecap="square" transform="translate(40.000000, 40.500000) rotate(-90.000000) translate(-40.000000, -40.500000) " points="0.49382716 40 9.94143887 40 19.9067801 40 29.7016245 40 50.486479 40 60.1687843 40 70.0525346 40 79.5061728 40"></polyline>
                <polyline id="Line" stroke-linecap="square" transform="translate(40.000000, 40.500000) rotate(30.000000) translate(-40.000000, -40.500000) " points="0.493827163 40 9.94143887 40 19.9067801 40 29.7016245 40 50.486479 40 60.1687843 40 70.0525346 40 79.5061728 40"></polyline>
                <polyline id="Line" stroke-linecap="square" transform="translate(40.000000, 40.500000) rotate(-60.000000) translate(-40.000000, -40.500000) " points="0.493827163 40 9.94143887 40 19.9067801 40 29.7016245 40 50.486479 40 60.1687843 40 70.0525346 40 79.5061728 40"></polyline>
                <polyline id="Line" stroke-linecap="square" transform="translate(40.000000, 40.500000) rotate(60.000000) translate(-40.000000, -40.500000) " points="0.49382717 40 9.94143888 40 19.9067801 40 29.7016245 40 50.486479 40 60.1687843 40 70.0525346 40 79.5061728 40"></polyline>
                <polyline id="Line" stroke-linecap="square" transform="translate(40.000000, 40.500000) rotate(-30.000000) translate(-40.000000, -40.500000) " points="0.49382717 40 9.94143888 40 19.9067801 40 29.7016245 40 50.486479 40 60.1687843 40 70.0525346 40 79.5061728 40"></polyline>
            </g>
            <g id="Group-2" fill="#FFFFFF" fill-opacity="0.6">
                <path d="M15.3322618,26.0139469 C12.8098467,30.330553 11.3307579,35.3074617 10.8949953,40.9446732 L20.6377237,40.9870242 L23.3146268,30.7792339 L15.3322618,26.0139469 Z" id="Path"></path>
                <path d="M21.2933652,5.9983035 L31.4248439,23.2451502 L40.4304251,20.8331407 L40.4575937,0.20340775 C28.9757693,2.8188714 22.4955331,4.3923843 21.0168851,4.92394645 L21.2933652,5.9983035 Z" id="Path-2"></path>
                <path d="M46.0898776,31.9155193 L51.3162311,23.3310508 L58.6645297,30.7916195 L67.1906656,25.5904369 C62.8230646,20.339413 59.5005085,16.9457392 57.2229974,15.4094156 C51.1097244,11.2856308 40.8350381,10.1378153 40.6393834,11.0196941 C40.0848389,13.5192044 40.0609998,17.3595614 40.5678661,22.5407651 C40.2615653,27.0872053 40.3523935,29.7746295 40.8403509,30.6030377 C41.3283082,31.431446 43.0781504,31.8689398 46.0898776,31.9155193 Z" id="Path-3"></path>
                <path d="M0.880181697,41.280285 C3.25651196,41.1565576 6.60397254,41.1765345 10.9225634,41.3402156 C11.517295,44.1444553 11.9075102,46.5751099 12.0932091,48.6321794 C12.224545,50.0870458 13.1476104,52.2638607 14.8624053,55.1626242 L23.4520678,50.860002 C22.5629404,49.1499334 22.0149078,47.8619569 21.8079699,46.9960722 C21.6010319,46.1301876 21.3547835,44.0946759 21.0692245,40.889537 L30.2266301,40.879149 L35.4034409,49.4768022 L25.8756638,66.321714 L40.2210673,71.4405918 L39.4843197,82.2484879 C26.6346524,79.7540405 17.1004827,75.1184701 10.8818106,68.3417769 C4.66313844,61.5650837 1.32926215,52.5445864 0.880181697,41.280285 Z" id="Path-5"></path>
                <path d="M51.305044,40.9858256 C63.0854773,41.5501401 72.9526251,41.7597198 80.9064874,41.6145647 C79.7508392,51.3582316 78.0996528,58.0733072 75.9529283,61.7597917 C73.8062038,65.4462763 68.8459425,70.0847765 61.0721442,75.6752926 L51.6858035,58.7776419 L58.6593357,50.8536094 L50.0916478,46.3336386 L51.305044,40.9858256 Z" id="Path-4"></path>
            </g>
            <path d="M21.3524968,5.96793863 L25.8523133,14.9824864 C20.0056587,19.706645 16.2442029,23.4646383 14.567946,26.2564664 C12.8289047,29.1528626 11.4674132,33.9272058 10.4834714,40.5794957 L0.573736231,40.6278398 C1.74972633,30.8210926 3.54671402,24.0502592 5.9646993,20.3153398 C8.38268459,16.5804203 13.5119504,11.7979533 21.3524968,5.96793863 Z" id="Path-6" fill-opacity="0.3" fill="#FFFFFF"></path>
            <path d="M40.5946351,21.2790171 C40.4267405,23.63301 40.3557559,26.6412656 40.3816815,30.3037839 C36.8199718,31.9752642 34.5640484,33.3356903 33.6139113,34.3850622 C32.6637742,35.4344341 31.7331176,37.5934031 30.8219414,40.8619689 L21.3365153,40.9378811 C21.0868907,35.4355941 22.9756389,30.6352811 27.0027599,26.5369419 C30.4217377,23.0575007 34.9523628,21.3048591 40.5946351,21.2790171 Z" id="Path-7" fill-opacity="0.3" fill="#FFFFFF"></path>
            <path d="M50.7692639,23.4029676 C51.4514439,24.0607841 53.5347045,25.5044223 55.1006528,26.9896182 C55.7322914,27.5886846 56.8015876,28.7859661 58.3085415,30.5814627 L75.817485,21.6617821 C77.9097878,25.357402 79.2971161,28.2784226 79.9794699,30.4248439 C80.6618237,32.5712651 80.8967519,36.0837348 80.6842545,40.9622529 L51.4500762,41.0369665 L45.8893096,32.2443389 L50.7692639,23.4029676 Z" id="Path-8" fill-opacity="0.3" fill="#FFFFFF"></path>
            <path d="M49.8954748,45.9500824 C52.9287403,47.9530162 55.8034145,49.7249662 58.5194974,51.2659323 C55.1007537,55.4134482 52.3657845,57.9613005 50.3145899,58.9094893 C48.2633952,59.8576782 44.9959754,60.6901817 40.5123304,61.4069999 L40.4136445,70.8628602 C37.1570026,70.736641 34.7684327,70.45803 33.2479347,70.0270272 C31.7274367,69.5960244 29.4792377,68.5602893 26.5033377,66.919822 L36.0403041,48.876297 L49.8954748,45.9500824 Z" id="Path-9" fill-opacity="0.3" fill="#FFFFFF"></path>
        </g>
    </g>
</svg>