<?xml version="1.0" encoding="UTF-8"?>
<svg width="82px" height="82px" viewBox="0 0 82 82" version="1.1" xmlns="http://www.w3.org/2000/svg" xmlns:xlink="http://www.w3.org/1999/xlink">
    <!-- Generator: Sketch 50.2 (55047) - http://www.bohemiancoding.com/sketch -->
    <title>radial-bar</title>
    <desc>Created with Sketch.</desc>
    <defs></defs>
    <g id="Page-1" stroke="none" stroke-width="1" fill="none" fill-rule="evenodd">
        <g id="radial-bar" transform="translate(1.000000, 1.000000)" stroke="#5596E6">
            <circle id="Oval" opacity="0.503180804" cx="40" cy="40" r="40"></circle>
            <circle id="Oval" opacity="0.503180804" cx="40" cy="40" r="25"></circle>
            <circle id="Oval" fill="#FFFFFF" fill-rule="nonzero" opacity="0.503180804" cx="40" cy="40" r="10"></circle>
            <path d="M1,40 L79.5,40" id="Line" opacity="0.500111607" stroke-linecap="square"></path>
            <path d="M40,80 L40,0.5" id="Line" opacity="0.500111607" stroke-linecap="square"></path>
            <path d="M6.29199655,20.25 L74.2749907,59.5" id="Line" opacity="0.500111607" stroke-linecap="square"></path>
            <path d="M20,74.6410162 L59.75,5.79199655" id="Line" opacity="0.500111607" stroke-linecap="square"></path>
            <path d="M1,40 L79.5,40" id="Line" opacity="0.500111607" stroke-linecap="square" transform="translate(40.500000, 40.000000) rotate(60.000000) translate(-40.500000, -40.000000) "></path>
            <path d="M40,80 L40,0.5" id="Line" opacity="0.500111607" stroke-linecap="square" transform="translate(40.000000, 40.000000) rotate(60.000000) translate(-40.000000, -40.000000) "></path>
            <polygon id="Oval-2" stroke-width="2" points="56.2258372 67.2514814 66.263824 55.1346995 62.8301964 39.974239 67.2738555 24.2775988 50.1540618 22.2123881 39.5 2 24.3023702 12.0665261 22.8676301 29.8024071 2.0297379 40.058941 18.4795068 52.3559144 22.8792167 69.2431771 39.788454 53.4066987"></polygon>
        </g>
    </g>
</svg>