<?xml version="1.0" encoding="UTF-8"?>
<svg width="83px" height="83px" viewBox="0 0 83 83" version="1.1" xmlns="http://www.w3.org/2000/svg" xmlns:xlink="http://www.w3.org/1999/xlink">
    <!-- Generator: Sketch 50.2 (55047) - http://www.bohemiancoding.com/sketch -->
    <title>stats</title>
    <desc>Created with Sketch.</desc>
    <defs></defs>
    <g id="Page-1" stroke="none" stroke-width="1" fill="none" fill-rule="evenodd" opacity="0.501953125">
        <g id="stats" transform="translate(2.000000, 1.000000)">
            <path d="M54.1268931,71.5132657 C52.6179149,72.9637726 52.6179149,75.3248828 54.1268931,76.7786188 C55.6385541,78.2336464 58.0877934,78.2291257 59.5967718,76.7786188 C61.1057501,75.3248828 61.1084326,72.9676475 59.5967718,71.5132657 C58.0891348,70.0575922 55.6358714,70.0575922 54.1268931,71.5132657 Z M1.13224653,29.4543772 C-0.37673175,30.9048841 -0.37673175,33.2666401 1.13224653,34.7210219 C2.64390745,36.1754038 5.09180555,36.1715288 6.60145448,34.7210219 C8.11110343,33.2666401 8.11311539,30.9094048 6.60145448,29.4543772 C5.09180555,27.9987037 2.64122481,27.9987037 1.13224653,29.4543772 Z M27.7647072,73.4700938 C26.2550583,74.9251215 26.2550583,77.2862316 27.7647072,78.7393218 C29.2763681,80.1956411 31.7242663,80.1898287 33.2332445,78.7393218 C34.7442348,77.2862316 34.7455761,74.9289963 33.2332445,73.4700938 C31.7249369,72.0215243 29.2743562,72.0215243 27.7647072,73.4700938 Z M55.7458592,19.8097332 C52.6266334,16.8008678 47.5651849,16.7969929 44.4426058,19.8039208 C41.3180149,22.8069739 41.3160029,27.6822529 44.4358993,30.6878893 C44.4372406,30.6917642 44.4372406,30.6917642 44.4426058,30.6937017 C47.5651849,33.7038588 52.6266334,33.6993381 55.7458592,30.6949933 C58.8664263,27.6900028 58.8684383,22.8185986 55.7458592,19.8097332 Z M71.0764079,36.373024 C69.5681002,37.8261142 69.5707829,40.1872243 71.0770786,41.6370854 C72.5934341,43.0934047 75.0366375,43.0934047 76.5449451,41.6416061 C78.0552647,40.1878701 78.0572767,37.8293433 76.5449451,36.373024 C75.0399909,34.9212254 72.5867275,34.919288 71.0764079,36.373024 Z M32.3184683,34.0713291 C30.6176822,35.3158201 30.2877189,37.6549724 31.578063,39.2908291 C32.8724311,40.9279774 35.2968562,41.2457198 36.998313,40.0025204 C38.6977578,38.7586752 39.031745,36.4233978 37.737377,34.7830204 C36.4483743,33.1484554 34.0185839,32.8287755 32.3184683,34.0713291 Z M50.9540148,2.59804125 C49.4436952,4.05177727 49.4436952,6.41094994 50.9540148,7.86468595 C52.4643344,9.32100523 54.9135738,9.31842197 56.4218814,7.86468595 C57.9335424,6.41094994 57.936225,4.05306891 56.4218814,2.59804125 C54.9135738,1.14430524 52.4643344,1.14430524 50.9540148,2.59804125 Z M27.7647072,3.32006563 C26.2550583,4.77509328 26.2550583,7.13426595 27.7647072,8.58800196 C29.2763681,10.0430296 31.7242663,10.0410921 33.2332445,8.58800196 C34.7442348,7.13297431 34.7455761,4.77703074 33.2332445,3.32006563 C31.7249369,1.86697543 29.2743562,1.86697543 27.7647072,3.32006563 Z M72.5344162,23.9726752 C71.0227553,25.4257653 71.0227553,27.7855838 72.5344162,29.2386741 C74.0460771,30.6943475 76.4946458,30.6924101 78.0029535,29.2386741 C79.5139438,27.7855838 79.5159557,25.4277028 78.0029535,23.9726752 C76.4953165,22.5176475 74.0460771,22.5176475 72.5344162,23.9726752 Z M69.5681002,58.0440883 C68.0571099,59.4984701 68.0571099,61.8557054 69.5681002,63.3100872 C71.0770786,64.7657606 73.5290006,64.7657606 75.0366375,63.3100872 C76.5476278,61.8557054 76.5476278,59.4984701 75.0366375,58.0440883 C73.5296712,56.5897065 71.0770786,56.5897065 69.5681002,58.0440883 Z M48.4772785,45.6443853 C46.9669589,47.0987671 46.9669589,49.4553565 48.4772785,50.9110299 C49.9902807,52.3660576 52.4361668,52.3660576 53.9444745,50.9110299 C55.4547941,49.4605231 55.4547941,47.1032878 53.9444745,45.6443853 C52.4341549,44.1925867 49.9849154,44.1925867 48.4772785,45.6443853 Z M57.9610393,25.6789259 L71.7618194,26.4325954 L57.9610393,25.6789259 Z M51.522732,17.5713285 L53.1645003,8.76495606 L51.522732,17.5713285 Z M44.409073,19.8342743 L32.8482874,8.78885132 L44.409073,19.8342743 Z M43.480213,30.1951303 L37.7239639,34.5724838 L43.480213,30.1951303 Z M50.6059438,32.9133777 L51.4254867,45.0986691 L50.6059438,32.9133777 Z M54.320713,31.9252763 L70.2347333,57.0553411 L54.320713,31.9252763 Z M36.4993442,61.9700151 L53.6862715,72.3857656 L36.4993442,61.9700151 Z M37.4127791,58.5930335 L68.5761986,60.9483313 L37.4127791,58.5930335 Z M31.4546622,51.0950881 L33.6450279,40.6515673 L31.4546622,51.0950881 Z M27.7439168,50.5784338 L16.7552016,14.3118857 L27.7439168,50.5784338 Z M24.1766922,52.205249 L6.22722787,34.2909072 L24.1766922,52.205249 Z M12.3094163,52.3847864 L22.4282893,55.6151673 L12.3094163,52.3847864 Z M23.5804782,62.6991435 L11.1733234,71.7186358 L23.5804782,62.6991435 Z M30.3185691,65.1164397 L30.6579215,72.7183619 L30.3185691,65.1164397 Z M35.6556576,52.5940313 C32.5364319,49.5819368 27.4749834,49.5819368 24.351063,52.5888648 C21.228484,55.5899804 21.2278133,60.463322 24.3456977,63.4715416 C24.3483804,63.4760623 24.3483804,63.4760623 24.3517336,63.4760623 C27.4763247,66.4875111 32.5364319,66.4816987 35.6556576,63.4812289 C38.7795781,60.4749468 38.7809194,55.6009593 35.6556576,52.5940313 Z M5.49218778,71.5080992 C3.98253884,72.9637726 3.98253884,75.3255286 5.49218778,76.7792646 C7.0038487,78.2349381 9.45174679,78.2297715 10.9607251,76.7792646 C12.4717153,75.3255286 12.4743979,72.9689392 10.9607251,71.5080992 C9.45241746,70.0575922 7.00183672,70.0575922 5.49218778,71.5080992 Z M70.3876431,37.2907312 L56.3729235,29.019096 L70.3876431,37.2907312 Z M55.0557531,18.7421962 L64.2632033,7.56308901 L55.0557531,18.7421962 Z M12.7829002,8.35679916 C11.2725806,9.81053518 11.2752632,12.169062 12.7835709,13.6221522 C14.2952318,15.0778257 16.7417885,15.0778257 18.2507669,13.6240897 C19.7630984,12.169062 19.7630984,9.81247263 18.2507669,8.35679916 C16.7438005,6.90435479 14.2918785,6.90306315 12.7829002,8.35679916 Z M6.20308422,48.4607969 C4.69410594,49.9138872 4.69410594,52.2749973 6.20308422,53.7313165 C7.71474513,55.1850526 10.1626432,55.1811777 11.6716215,53.7313165 C13.1839531,52.2749973 13.1839531,49.9196996 11.6716215,48.4607969 C10.1619726,47.0102901 7.7120625,47.0102901 6.20308422,48.4607969 Z M63.7850248,1.90830777 C62.2733639,3.36139798 62.2733639,5.72057064 63.7850248,7.17430666 C65.2953444,8.63062594 67.7419012,8.62739685 69.2528915,7.17430666 C70.7638817,5.72057064 70.7638817,3.36333543 69.2528915,1.90830777 C67.7419012,0.453280124 65.2953444,0.453280124 63.7850248,1.90830777 Z" id="Shape" stroke="#5596E6" stroke-width="3" fill="#5596E6" fill-rule="nonzero"></path>
            <path d="M54.0156864,71.5132657 C52.5098084,72.9637726 52.5098084,75.3248828 54.0156864,76.7786188 C55.5242414,78.2336464 57.9684487,78.2291257 59.4743267,76.7786188 C60.9802047,75.3248828 60.9828817,72.9676475 59.4743267,71.5132657 C57.9697873,70.0575922 55.5215643,70.0575922 54.0156864,71.5132657 Z M1.1299213,29.4543772 C-0.375956673,30.9048841 -0.375956673,33.2666401 1.1299213,34.7210219 C2.63847639,36.1754038 5.0813451,36.1715288 6.58789235,34.7210219 C8.0944396,33.2666401 8.09644744,30.9094048 6.58789235,29.4543772 C5.0813451,27.9987037 2.63579927,27.9987037 1.1299213,29.4543772 Z M27.7076636,73.4700938 C26.2011163,74.9251215 26.2011163,77.2862316 27.7076636,78.7393218 C29.2162187,80.1956411 31.6590874,80.1898287 33.1649653,78.7393218 C34.6728512,77.2862316 34.6741897,74.9289963 33.1649653,73.4700938 C31.6597566,72.0215243 29.2142109,72.0215243 27.7076636,73.4700938 Z M55.6313262,19.8097332 C52.518509,16.8008678 47.4674597,16.7969929 44.3512962,19.8039208 C41.2331249,22.8069739 41.231117,27.6822529 44.3446034,30.6878893 C44.3459419,30.6917642 44.3459419,30.6917642 44.3512962,30.6937017 C47.4674597,33.7038588 52.518509,33.6993381 55.6313262,30.6949933 C58.7454817,27.6900028 58.7474896,22.8185986 55.6313262,19.8097332 Z M70.930377,36.373024 C69.4251683,37.8261142 69.4278454,40.1872243 70.9310463,41.6370854 C72.4442864,43.0934047 74.8824701,43.0934047 76.3876788,41.6416061 C77.8948953,40.1878701 77.8969032,37.8293433 76.3876788,36.373024 C74.8858165,34.9212254 72.4375935,34.919288 70.930377,36.373024 Z M32.2520686,34.0713291 C30.5547768,35.3158201 30.2254916,37.6549724 31.5131845,39.2908291 C32.8048932,40.9279774 35.2243371,41.2457198 36.9222982,40.0025204 C38.6182514,38.7586752 38.9515524,36.4233978 37.6598438,34.7830204 C36.3734893,33.1484554 33.9486912,32.8287755 32.2520686,34.0713291 Z M50.849327,2.59804125 C49.3421105,4.05177727 49.3421105,6.41094994 50.849327,7.86468595 C52.3565435,9.32100523 54.8007508,9.31842197 56.3059595,7.86468595 C57.8145146,6.41094994 57.8171917,4.05306891 56.3059595,2.59804125 C54.8007508,1.14430524 52.3565435,1.14430524 50.849327,2.59804125 Z M27.7076636,3.32006563 C26.2011163,4.77509328 26.2011163,7.13426595 27.7076636,8.58800196 C29.2162187,10.0430296 31.6590874,10.0410921 33.1649653,8.58800196 C34.6728512,7.13297431 34.6741897,4.77703074 33.1649653,3.32006563 C31.6597566,1.86697543 29.2142109,1.86697543 27.7076636,3.32006563 Z M72.3853897,23.9726752 C70.8768347,25.4257653 70.8768347,27.7855838 72.3853897,29.2386741 C73.8939449,30.6943475 76.3374829,30.6924101 77.8426916,29.2386741 C79.3505773,27.7855838 79.3525852,25.4277028 77.8426916,23.9726752 C76.3381521,22.5176475 73.8939449,22.5176475 72.3853897,23.9726752 Z M69.4251683,58.0440883 C67.9172826,59.4984701 67.9172826,61.8557054 69.4251683,63.3100872 C70.9310463,64.7657606 73.3779307,64.7657606 74.8824701,63.3100872 C76.3903559,61.8557054 76.3903559,59.4984701 74.8824701,58.0440883 C73.3786,56.5897065 70.9310463,56.5897065 69.4251683,58.0440883 Z M48.3776793,45.6443853 C46.8704628,47.0987671 46.8704628,49.4553565 48.3776793,50.9110299 C49.8875729,52.3660576 52.3284337,52.3660576 53.8336425,50.9110299 C55.340859,49.4605231 55.340859,47.1032878 53.8336425,45.6443853 C52.3264259,44.1925867 49.8822187,44.1925867 48.3776793,45.6443853 Z M57.841955,25.6789259 L71.6143803,26.4325954 L57.841955,25.6789259 Z M51.4168756,17.5713285 L53.0552709,8.76495606 L51.4168756,17.5713285 Z M44.3178322,19.8342743 L32.7807992,8.78885132 L44.3178322,19.8342743 Z M43.3908807,30.1951303 L37.6464582,34.5724838 L43.3908807,30.1951303 Z M50.5019711,32.9133777 L51.3198302,45.0986691 L50.5019711,32.9133777 Z M54.209108,31.9252763 L70.0904318,57.0553411 L54.209108,31.9252763 Z M36.4243546,61.9700151 L53.5759701,72.3857656 L36.4243546,61.9700151 Z M37.3359127,58.5930335 L68.4353045,60.9483313 L37.3359127,58.5930335 Z M31.3900371,51.0950881 L33.5759027,40.6515673 L31.3900371,51.0950881 Z M27.6869159,50.5784338 L16.7207778,14.3118857 L27.6869159,50.5784338 Z M24.1270204,52.205249 L6.21443461,34.2909072 L24.1270204,52.205249 Z M12.2841268,52.3847864 L22.3822097,55.6151673 L12.2841268,52.3847864 Z M23.5320313,62.6991435 L11.150368,71.7186358 L23.5320313,62.6991435 Z M30.2562784,65.1164397 L30.5949336,72.7183619 L30.2562784,65.1164397 Z M35.5824014,52.5940313 C32.4695844,49.5819368 27.418535,49.5819368 24.3010329,52.5888648 C21.1848694,55.5899804 21.1842002,60.463322 24.2956788,63.4715416 C24.2983559,63.4760623 24.2983559,63.4760623 24.3017023,63.4760623 C27.4198735,66.4875111 32.4695844,66.4816987 35.5824014,63.4812289 C38.6999035,60.4749468 38.7012421,55.6009593 35.5824014,52.5940313 Z M5.48090472,71.5080992 C3.97435747,72.9637726 3.97435747,75.3255286 5.48090472,76.7792646 C6.98945981,78.2349381 9.43232851,78.2297715 10.9382065,76.7792646 C12.4460923,75.3255286 12.4487694,72.9689392 10.9382065,71.5080992 C9.43299779,70.0575922 6.98745197,70.0575922 5.48090472,71.5080992 Z M70.2430274,37.2907312 L56.2571021,29.019096 L70.2430274,37.2907312 Z M54.9426379,18.7421962 L64.1311707,7.56308901 L54.9426379,18.7421962 Z M12.7566378,8.35679916 C11.2494212,9.81053518 11.2520984,12.169062 12.7573071,13.6221522 C14.2658622,15.0778257 16.7073923,15.0778257 18.2132703,13.6240897 C19.7224947,12.169062 19.7224947,9.81247263 18.2132703,8.35679916 C16.7094001,6.90435479 14.2625158,6.90306315 12.7566378,8.35679916 Z M6.19034056,48.4607969 C4.68446259,49.9138872 4.68446259,52.2749973 6.19034056,53.7313165 C7.69889565,55.1850526 10.1417644,55.1811777 11.6476424,53.7313165 C13.1568667,52.2749973 13.1568667,49.9196996 11.6476424,48.4607969 C10.1410951,47.0102901 7.69621853,47.0102901 6.19034056,48.4607969 Z M63.6539747,1.90830777 C62.1454196,3.36139798 62.1454196,5.72057064 63.6539747,7.17430666 C65.1611912,8.63062594 67.6027213,8.62739685 69.1106072,7.17430666 C70.6184929,5.72057064 70.6184929,3.36333543 69.1106072,1.90830777 C67.6027213,0.453280124 65.1611912,0.453280124 63.6539747,1.90830777 Z" id="SVGID_1_" stroke="#FFFFFF" stroke-width="2"></path>
        </g>
    </g>
</svg>