<?xml version="1.0" encoding="UTF-8"?>
<svg width="80px" height="79px" viewBox="0 0 80 79" version="1.1" xmlns="http://www.w3.org/2000/svg" xmlns:xlink="http://www.w3.org/1999/xlink">
    <!-- Generator: Sketch 50.2 (55047) - http://www.bohemiancoding.com/sketch -->
    <title>stream</title>
    <desc>Created with Sketch.</desc>
    <defs></defs>
    <g id="Page-1" stroke="none" stroke-width="1" fill="none" fill-rule="evenodd">
        <g id="stream" fill="#5596E6">
            <path d="M0,35.1290323 C1.31143717,34.7720594 2.16285427,34.224603 2.5542513,33.4866633 C5.16794901,28.5587988 6.3949375,23.6154247 7.6093406,22.6064466 C9.85419096,20.7413289 12.3560925,25.5512245 13.4044552,23.9788901 C16.6207645,19.1550692 17.3967938,7.21867527 18.9288511,6.88630335 C22.4440203,6.12370554 24.2228071,31.2574636 25.9492758,30.1912601 C28.9737054,28.3234838 31.0539745,11.7443951 32.7117646,11.5184748 C37.5298211,10.8618798 41.2168512,29.489616 42.8780956,29.2707017 C52.9454875,27.944048 51.2618578,2.12699575 55.3201984,0.030381838 C59.6603712,-0.354350009 60.2218956,14.7194438 68.0311937,16.724946 C69.2253426,17.0316148 71.0153995,14.2599605 71.9746473,14.4592251 C74.3951011,14.9620263 74.5125623,20.4346873 75.0534446,23.0597307 C76.7316265,31.2043873 78.3804783,36.432077 80,38.7427998 C77.4671261,44.2792077 75.8398831,49.5138925 75.118271,54.4468543 C74.8779979,56.0893679 74.2819043,63.9578253 72.1353437,63.9958987 C70.5822812,64.0234454 70.7626722,61.6110524 68.3717606,61.4608656 C62.079948,61.0656411 59.0970207,79.0018398 55.7525265,78.3470962 C48.9759358,77.0204592 51.3982014,49.3313198 43.1246185,49.0417216 C41.5386197,48.9862073 38.1463267,65.0468734 33.1632667,66.6722334 C29.007073,68.0278885 27.8874721,47.9566186 25.6625788,47.4999962 C23.4799878,47.0520556 22.7438192,72.1675198 18.8708725,71.652762 C17.5443972,71.4764587 15.7942515,58.7512529 13.352868,54.8728574 C12.6752609,53.796407 9.54414355,56.8521652 7.47466605,55.1694507 C6.28341467,54.2008313 5.18445484,50.2677682 2.74781744,46.2184894 C2.3242954,45.5146674 1.40835625,44.8289344 0,44.1612903 L0,35.1290323 Z" id="Rectangle" opacity="0.509821429"></path>
            <path d="M0,36.900215 C1.31143717,36.6591546 2.16285427,36.2894627 2.5542513,35.7911391 C5.16794901,32.4633999 6.3949375,29.1251871 7.6093406,28.443834 C9.85419096,27.184338 14.1703185,31.3027077 15.2186812,30.2409255 C18.4349905,26.9834459 17.3967938,18.0526208 18.9288511,17.8281732 C22.4440203,17.3131983 24.2228071,34.2857821 25.9492758,33.5657852 C28.9737054,32.3044939 30.5782058,23.5743799 32.2118709,23.8152041 C39.1921215,24.844187 36.0489544,32.9683245 42.8780956,32.944141 C53.0360938,32.9081693 51.2618578,14.6142588 55.3201984,13.1984357 C59.6603712,12.93863 57.5842148,35.7853107 65.5997473,35.1473058 C70.7936199,34.733894 68.4133042,23.5563845 71.9746473,22.9420941 C74.368852,22.5291215 74.5125623,26.9772659 75.0534446,28.7499323 C76.7316265,34.2499402 78.3804783,37.7801485 80,39.3405573 C77.4671261,43.07924 75.8398831,46.614172 75.118271,49.9453534 C74.8779979,51.054527 74.2819043,56.3680202 72.1353437,56.3937308 C70.5822812,56.4123328 70.7626722,54.7832671 68.3717606,54.6818475 C62.079948,54.4149562 59.0970207,66.5270977 55.7525265,66.0849557 C48.9759358,65.1890905 51.3982014,46.4908824 43.1246185,46.2953196 C41.5386197,46.2578313 39.0374614,51.1094256 34.0544014,52.2070154 C29.8982077,53.1224762 29.9630341,45.5427603 25.6625788,45.2542073 C21.3621235,44.9656543 22.7438192,61.9119475 18.8708725,61.5643366 C17.5443972,61.4452806 18.9245857,44.9460509 14.96668,43.3288034 C10.1955486,41.3792622 9.54414355,51.5696366 7.47466605,50.4333158 C6.28341467,49.7792165 5.18445484,47.123257 2.74781744,44.3888181 C2.3242954,43.913534 1.40835625,43.4504651 0,42.9996115 L0,36.900215 Z" id="Rectangle" opacity="0.509821429"></path>
            <path d="M0,37.5700759 C1.00891785,38.9600013 2.36555475,39.1417551 4.0699107,38.1153371 C7.69210667,35.9339343 6.3949375,31.6914927 7.6093406,31.1763317 C9.85419096,30.2240455 10.1708963,36.9716343 14.5416562,36.5897005 C20.3370045,36.0832807 17.3967938,23.3196895 18.9288511,23.149988 C22.4440203,22.7606231 24.2228071,35.593342 25.9492758,35.048963 C28.9737054,34.0953194 30.5782058,27.4946097 32.2118709,27.6766933 C39.1921215,28.454692 36.0489544,34.5972319 42.8780956,34.5789471 C53.0360938,34.5517494 51.2618578,20.719995 55.3201984,19.6495122 C59.6603712,19.4530769 57.5842148,36.7271134 65.5997473,36.2447273 C70.7936199,35.9321527 68.3270212,37.3528686 71.9746473,27.0165477 C72.9643911,32.3633712 75.6395087,36.4962494 80,39.4151825 C75.7183896,38.7469275 73.2494686,39.6737311 72.5932372,42.1955933 C71.3524908,46.9637149 65.0009877,37.452724 65.7458635,45.1801331 C66.0024908,47.842408 64.4236276,58.5580813 53.5077984,50.692571 C47.6986758,46.5067493 40.0603392,37.1181635 34.9771789,37.7790815 C29.3550869,38.510072 33.4977275,44.7523987 29.5571843,44.6977493 C25.6166411,44.6430999 27.553154,39.6568414 24.1907457,39.7312109 C20.6485766,39.8095563 22.343777,45.7941895 19.8382467,44.3032243 C13.5956436,40.5884401 6.98289468,39.8812784 0,42.1817392 L0,37.5700759 Z" id="Rectangle"></path>
        </g>
    </g>
</svg>