<?xml version="1.0" encoding="UTF-8"?>
<svg width="82px" height="83px" viewBox="0 0 82 83" version="1.1" xmlns="http://www.w3.org/2000/svg" xmlns:xlink="http://www.w3.org/1999/xlink">
    <!-- Generator: Sketch 50.2 (55047) - http://www.bohemiancoding.com/sketch -->
    <title>sunburst</title>
    <desc>Created with Sketch.</desc>
    <defs></defs>
    <g id="Page-1" stroke="none" stroke-width="1" fill="none" fill-rule="evenodd">
        <g id="sunburst" transform="translate(1.000000, 1.000000)" stroke="#FFFFFF" stroke-width="2">
            <g id="Group-2">
                <path d="M6.37691562,19.3234534 C6.20856895,19.8795995 6.086746,20.450502 6.01660156,21.0367839 C5.97298177,21.4013672 8.40538194,23.0630425 13.3138021,26.0218099 C11.1061143,33.1479567 10.038623,38.3765808 10.1113281,41.7076823 C10.1840333,45.0387838 11.4674534,49.7032803 13.9615885,55.7011719 L5.68847656,60.9544271 C8.47455839,65.2247733 10.5485601,68.0542004 11.9104818,69.4427083 C15.9277494,73.5383978 18.9525215,74.4223418 19.827474,75.2158203 C20.9000507,76.1885207 24.0584219,66.6912353 24.9599609,67.1269531 C27.5612811,68.3841827 32.7886455,71.7177513 39.8873698,71.3033854 C44.5738743,71.0298254 51.1914062,68.8001302 55.171224,67.0891927 C55.807032,66.8158566 59.7792969,75.3294271 59.4928385,75.5052083 C58.5419739,76.0886934 57.9471929,76.5629834 57.6538022,76.9034774 C52.3293135,79.5265122 46.3367325,81 40,81 C17.90861,81 0,63.09139 0,41 C0,33.0111018 2.34201445,25.5692104 6.37691562,19.3234534 Z M16.5641849,8.58095019 C23.0923577,3.85349393 31.1046283,1.04955001 39.7694649,1.00065036 C39.7639055,1.11471443 39.7586074,1.25165084 39.7535807,1.41145833 C42.9412964,1.24232589 45.9123008,1.44486778 48.6726524,1.94275072 C45.880199,1.32545908 42.978107,1 40,1 C39.9576582,1 39.9153317,1.00006579 39.8730207,1.00019727 C39.9538877,2.11424144 40.0606672,5.41224426 40.1933594,10.8942057 C36.7955812,11.0421018 34.2368789,11.3176009 32.5172526,11.7207031 C30.7976263,12.1238054 28.2293754,13.0501291 24.8125,14.4996745 C22.2196181,10.6763238 20.5271267,8.08268229 19.735026,6.71875 C18.6796197,7.31001387 17.6126224,7.92953293 16.5641849,8.58095019 Z M69.9629462,14.4998332 C76.208642,21.5563561 80,30.8354185 80,41 C80,50.1964393 76.8964752,58.6680116 71.6796387,65.4245039 C72.4832008,64.2737653 73.2841257,63.0286802 74.0712891,61.6842448 C72.3805339,59.1132812 65.944987,56.5843099 66.1031901,56.3095703 C68.9841853,51.3063606 70.0466547,45.8161323 70.0823568,41.5891927 C70.1598307,32.4166667 65.8808594,26.8954862 65.8808594,26.1149089 C67.2379557,24.4000651 75.3440755,22.7526042 74.2701823,20.6230469 C73.1249867,18.6318771 71.6932261,16.5406011 69.9629462,14.4998332 Z" id="Combined-Shape" fill="#5596E6"></path>
                <circle id="Oval" fill="#5596E6" cx="40" cy="41" r="30"></circle>
                <circle id="Oval" fill="#5596E6" cx="40" cy="41" r="20"></circle>
                <circle id="Oval" fill="#FFFFFF" cx="40" cy="41" r="10"></circle>
            </g>
            <g id="Group" stroke-linecap="square">
                <polyline id="Line" points="0.49382716 41 9.94143887 41 19.9067801 41 29.7016245 41 50.486479 41 60.1687843 41 70.0525346 41 79.5061728 41"></polyline>
                <path d="M0.49382716,40 L9.89364235,40 M70.7790971,40 L80.5061728,40" id="Line" transform="translate(40.500000, 40.500000) rotate(-90.000000) translate(-40.500000, -40.500000) "></path>
                <path d="M5.78665071,60.7530864 L13.7726075,56.1423921 M57.2933315,31.0156904 L65.9998584,25.9889747 L74.2133493,21.2469136" id="Line"></path>
                <path d="M0.24382716,40.9330127 L49.2438272,40.9330127 M69.6396011,40.9330127 L79.2561728,40.9330127" id="Line" transform="translate(39.750000, 41.433013) scale(-1, 1) rotate(-30.000000) translate(-39.750000, -41.433013) "></path>
                <path d="M19.2469136,5.78665071 L29.2469136,22.7866507 M55.2469136,66.7866507 L59.7530864,75.2133493" id="Line"></path>
                <path d="M60.7530864,5.78665071 L50.9039054,22.8459326 M30.0045926,58.3125535 L20.2469136,75.2133493" id="Line"></path>
            </g>
        </g>
    </g>
</svg>