<?xml version="1.0" encoding="UTF-8"?>
<svg width="81px" height="81px" viewBox="0 0 81 81" version="1.1" xmlns="http://www.w3.org/2000/svg" xmlns:xlink="http://www.w3.org/1999/xlink">
    <!-- Generator: Sketch 50.2 (55047) - http://www.bohemiancoding.com/sketch -->
    <title>line</title>
    <desc>Created with Sketch.</desc>
    <defs></defs>
    <g id="Page-1" stroke="none" stroke-width="1" fill="none" fill-rule="evenodd">
        <g id="line" transform="translate(1.000000, 0.000000)">
            <g id="Group" transform="translate(1.000000, 21.000000)">
                <path d="M41.4855412,11.9956208 C46.5953323,8.97247705 51.2488667,6.9739368 55.4461443,6 C61.7420608,4.5390948 64.0992265,6.79659385 68.7568747,5.66757731 C71.8619734,4.91489962 74.6473444,3.27502216 77.1129877,0.747944937 L77.0848937,32.2121771 C70.2622978,29.2027607 63.1683874,27.8174963 55.8031625,28.0563837 C44.7553252,28.4147149 45.6584683,17.168803 41.6146268,12.9577081 C40.709187,12.0148193 40.6661584,11.6941235 41.4855412,11.9956208 Z" id="Rectangle-2" fill="#5596E6" opacity="0.395591518"></path>
                <path d="M41.4855412,12.4345497 C46.6239263,13.6183679 50.7538383,12.9352682 53.8752773,10.3852508 C58.5574357,6.56022475 62.3649693,11.6250979 68.1703582,9.40726122 C72.0406174,7.92870346 75.0214939,6.79294972 77.1129877,6 L77.0848937,24 C73.2880372,25.4917295 70.2101568,26.105462 67.8512526,25.8411975 C64.2963321,25.442945 63.0646692,20.2176246 55.3340455,22.6798261 C45.7699584,25.7259853 45.6584683,15.3940143 41.6146268,12.9849388 C40.709187,12.4455327 40.6661584,12.2620697 41.4855412,12.4345497 Z" id="Rectangle-2" fill-opacity="0.6" fill="#5596E6" opacity="0.598158482"></path>
                <polyline id="Combined-Shape" stroke="#5596E6" stroke-width="2" points="0.454780467 18.7779391 8.78909499 18.7647164 17.4244128 21.6605988 23.2309393 14.3456814 33.321584 15.6737331 39.5544757 10.5374097 49.3023226 17.7848222 58.7255635 11.9468185 66.0516558 14.249204 77 12.2087112"></polyline>
            </g>
            <polyline id="Rectangle" stroke="#5596E6" points="80 80 0 80 0 0"></polyline>
        </g>
    </g>
</svg>