<?xml version="1.0" encoding="UTF-8"?>
<svg width="81px" height="82px" viewBox="0 0 81 82" version="1.1" xmlns="http://www.w3.org/2000/svg" xmlns:xlink="http://www.w3.org/1999/xlink">
    <!-- Generator: Sketch 50.2 (55047) - http://www.bohemiancoding.com/sketch -->
    <title>timeline</title>
    <desc>Created with Sketch.</desc>
    <defs></defs>
    <g id="Page-1" stroke="none" stroke-width="1" fill="none" fill-rule="evenodd">
        <g id="timeline" transform="translate(1.000000, 1.000000)">
            <path d="M1,40.0396361 L73,40.0396361" id="Line" stroke="#5596E6" stroke-width="2" opacity="0.502566964" stroke-linecap="square"></path>
            <g id="Group" stroke="#5596E6" stroke-width="2">
                <path d="M15.5,21.2345679 L15.5,37.037037" id="Line-2" stroke-linecap="square"></path>
                <ellipse id="Oval" fill="#FFFFFF" fill-rule="nonzero" cx="15.5" cy="40" rx="3.5" ry="3.45679012"></ellipse>
                <path d="M2,0.5 C1.17157288,0.5 0.5,1.17157288 0.5,2 L0.5,19.7283951 C0.5,20.5568222 1.17157288,21.2283951 2,21.2283951 L28,21.2283951 C28.8284271,21.2283951 29.5,20.5568222 29.5,19.7283951 L29.5,2 C29.5,1.17157288 28.8284271,0.5 28,0.5 L2,0.5 Z" id="Rectangle" fill="#FFFFFF" fill-rule="nonzero"></path>
            </g>
            <g id="Group" transform="translate(45.000000, 0.000000)" stroke="#5596E6" stroke-width="2">
                <path d="M15.5,21.2345679 L15.5,37.037037" id="Line-2" stroke-linecap="square"></path>
                <ellipse id="Oval" fill="#FFFFFF" fill-rule="nonzero" cx="15.5" cy="40" rx="3.5" ry="3.45679012"></ellipse>
                <path d="M2,0.5 C1.17157288,0.5 0.5,1.17157288 0.5,2 L0.5,19.7283951 C0.5,20.5568222 1.17157288,21.2283951 2,21.2283951 L28,21.2283951 C28.8284271,21.2283951 29.5,20.5568222 29.5,19.7283951 L29.5,2 C29.5,1.17157288 28.8284271,0.5 28,0.5 L2,0.5 Z" id="Rectangle" fill="#FFFFFF" fill-rule="nonzero"></path>
            </g>
            <g id="Group" transform="translate(37.000000, 58.000000) scale(-1, 1) rotate(-180.000000) translate(-37.000000, -58.000000) translate(22.000000, 36.000000)" stroke="#5596E6" stroke-width="2">
                <path d="M15.5,21.2345679 L15.5,37.037037" id="Line-2" stroke-linecap="square"></path>
                <ellipse id="Oval" fill="#FFFFFF" fill-rule="nonzero" cx="15.5" cy="40" rx="3.5" ry="3.45679012"></ellipse>
                <path d="M2,0.5 C1.17157288,0.5 0.5,1.17157288 0.5,2 L0.5,19.7283951 C0.5,20.5568222 1.17157288,21.2283951 2,21.2283951 L28,21.2283951 C28.8284271,21.2283951 29.5,20.5568222 29.5,19.7283951 L29.5,2 C29.5,1.17157288 28.8284271,0.5 28,0.5 L2,0.5 Z" id="Rectangle" fill="#FFFFFF" fill-rule="nonzero"></path>
            </g>
            <polygon id="Triangle" fill="#5596E6" fill-rule="nonzero" opacity="0.499441964" transform="translate(77.000000, 40.000000) rotate(90.000000) translate(-77.000000, -40.000000) " points="77 37 81.5 43 72.5 43"></polygon>
        </g>
    </g>
</svg>